<svg width="140" height="140" viewBox="0 0 140 140" fill="none" xmlns="http://www.w3.org/2000/svg">
<circle cx="70.4102" cy="70.1787" r="69" fill="white" stroke="#43B2CA"/>
<g clip-path="url(#clip0_131_1602)">
<path d="M99.3112 84.33H99.1531C98.749 84.33 98.421 83.9968 98.421 83.5863C98.421 83.1757 98.749 82.8425 99.1531 82.8425H99.3112C99.7146 82.8425 100.043 82.5085 100.043 82.0987V67.7694C100.043 62.6813 95.9283 61.9211 93.4759 61.9211H88.1149C87.7108 61.9211 87.3828 61.5879 87.3828 61.1774C87.3828 60.7668 87.7108 60.4336 88.1149 60.4336H93.4759C98.5052 60.4336 101.507 63.1759 101.507 67.7694V82.0987C101.507 83.3289 100.522 84.33 99.3112 84.33Z" fill="#474847"/>
<path d="M96.7204 96.5305C96.3162 96.5305 95.9883 96.1972 95.9883 95.7867V71.8902C95.9883 71.4797 96.3162 71.1465 96.7204 71.1465H98.3426C98.7467 71.1465 99.0747 71.4797 99.0747 71.8902C99.0747 72.3008 98.7467 72.634 98.3426 72.634H97.4524V95.7867C97.4524 96.1972 97.1245 96.5305 96.7204 96.5305Z" fill="#474847"/>
<path d="M91.775 96.5298C91.3709 96.5298 91.043 96.1966 91.043 95.7861V85.2008C91.043 84.7902 91.3709 84.457 91.775 84.457C92.1791 84.457 92.5071 84.7902 92.5071 85.2008V95.7861C92.5071 96.1966 92.1791 96.5298 91.775 96.5298Z" fill="#474847"/>
<path d="M92.5879 58.6259C90.1289 58.6259 88.4766 56.6713 88.4766 53.7617C88.4766 50.8521 90.1289 48.8975 92.5879 48.8975C95.0469 48.8975 96.6992 50.8521 96.6992 53.7617C96.6992 56.6713 95.0469 58.6259 92.5879 58.6259ZM92.5879 50.3857C90.6362 50.3857 89.9407 52.1299 89.9407 53.7624C89.9407 55.395 90.6362 57.1391 92.5879 57.1391C94.5396 57.1391 95.2351 55.395 95.2351 53.7624C95.2351 52.1299 94.5396 50.3857 92.5879 50.3857Z" fill="#474847"/>
<path d="M40.8622 84.33H40.704C39.4932 84.33 38.5078 83.3289 38.5078 82.0987V67.7694C38.5078 63.1759 41.5108 60.4336 46.5394 60.4336H51.9011C52.3052 60.4336 52.6332 60.7668 52.6332 61.1774C52.6332 61.5879 52.3052 61.9211 51.9011 61.9211H46.5394C44.0862 61.9211 39.972 62.6805 39.972 67.7694V82.0987C39.972 82.5085 40.3007 82.8425 40.704 82.8425H40.8622C41.2663 82.8425 41.5942 83.1757 41.5942 83.5863C41.5942 83.9968 41.2663 84.33 40.8622 84.33Z" fill="#474847"/>
<path d="M43.2941 96.5305C42.89 96.5305 42.5621 96.1972 42.5621 95.7867V72.634H42.4039C41.9998 72.634 41.6719 72.3008 41.6719 71.8902C41.6719 71.4797 41.9998 71.1465 42.4039 71.1465H43.2941C43.6983 71.1465 44.0262 71.4797 44.0262 71.8902V95.7867C44.0262 96.1972 43.6983 96.5305 43.2941 96.5305Z" fill="#474847"/>
<path d="M48.2399 96.5298C47.8358 96.5298 47.5078 96.1966 47.5078 95.7861V85.2008C47.5078 84.7902 47.8358 84.457 48.2399 84.457C48.644 84.457 48.972 84.7902 48.972 85.2008V95.7861C48.972 96.1966 48.644 96.5298 48.2399 96.5298Z" fill="#474847"/>
<path d="M47.4277 58.6252C44.9687 58.6252 43.3164 56.6706 43.3164 53.7609C43.3164 50.8513 44.9687 48.8975 47.4277 48.8975C49.8868 48.8975 51.539 50.8521 51.539 53.7617C51.539 56.6713 49.8868 58.6259 47.4277 58.6259V58.6252ZM47.4277 50.385C45.476 50.385 44.7806 52.1291 44.7806 53.7617C44.7806 55.3943 45.476 57.1384 47.4277 57.1384C49.3794 57.1384 50.0749 55.3943 50.0749 53.7617C50.0749 52.1291 49.3794 50.385 47.4277 50.385Z" fill="#474847"/>
<path d="M53.1071 96.53C52.703 96.53 52.375 96.1968 52.375 95.7862V74.066C52.375 73.6555 52.703 73.3223 53.1071 73.3223C53.5112 73.3223 53.8391 73.6555 53.8391 74.066V95.7862C53.8391 96.1968 53.5112 96.53 53.1071 96.53Z" fill="#474847"/>
<path d="M87.8493 96.5298C87.4452 96.5298 87.1172 96.1966 87.1172 95.7861V69.9938C87.1172 69.5832 87.4452 69.25 87.8493 69.25H89.227C89.6311 69.25 89.9591 69.5832 89.9591 69.9938C89.9591 70.4043 89.6311 70.7375 89.227 70.7375H88.5813V95.7861C88.5813 96.1966 88.2534 96.5298 87.8493 96.5298Z" fill="#43B2CA"/>
<path d="M62.4391 71.8415C62.035 71.8415 61.707 71.5083 61.707 71.0977V68.6373C61.707 68.2268 62.035 67.8936 62.4391 67.8936C62.8432 67.8936 63.1712 68.2268 63.1712 68.6373V71.0977C63.1712 71.5083 62.8432 71.8415 62.4391 71.8415Z" fill="#474847"/>
<path d="M62.4391 96.5305C62.035 96.5305 61.707 96.1973 61.707 95.7867V75.1695C61.707 74.759 62.035 74.4258 62.4391 74.4258C62.8432 74.4258 63.1712 74.759 63.1712 75.1695V95.7867C63.1712 96.1973 62.8432 96.5305 62.4391 96.5305Z" fill="#474847"/>
<path d="M58.4313 96.5305C58.0272 96.5305 57.6992 96.1973 57.6992 95.7867V80.8541C57.6992 80.4436 58.0272 80.1104 58.4313 80.1104C58.8354 80.1104 59.1634 80.4436 59.1634 80.8541V95.7867C59.1634 96.1973 58.8354 96.5305 58.4313 96.5305Z" fill="#474847"/>
<path d="M63.6512 82.2755H63.111C62.7069 82.2755 62.3789 81.9423 62.3789 81.5318C62.3789 81.1212 62.7069 80.788 63.111 80.788H63.6512C64.0546 80.788 64.3833 80.4541 64.3833 80.0442V75.0699C64.3833 74.6594 64.7113 74.3262 65.1154 74.3262C65.5195 74.3262 65.8475 74.6594 65.8475 75.0699V80.0442C65.8475 81.2744 64.8621 82.2755 63.6512 82.2755Z" fill="#474847"/>
<path d="M57.1589 58.5201C54.3682 58.5201 52.418 56.2606 52.418 53.0252C52.418 49.7898 54.3682 47.5303 57.1589 47.5303C59.9495 47.5303 61.8998 49.7898 61.8998 53.0252C61.8998 56.2606 59.9503 58.5201 57.1589 58.5201ZM57.1589 49.0178C54.7408 49.0178 53.8821 51.1762 53.8821 53.0252C53.8821 54.8742 54.7401 57.0326 57.1589 57.0326C59.5776 57.0326 60.4356 54.8742 60.4356 53.0252C60.4356 51.1762 59.5776 49.0178 57.1589 49.0178Z" fill="#474847"/>
<path d="M77.9743 96.5298C77.5702 96.5298 77.2422 96.1966 77.2422 95.7861V69.9938C77.2422 69.5832 77.5702 69.25 77.9743 69.25C78.3784 69.25 78.7063 69.5832 78.7063 69.9938V95.7861C78.7063 96.1966 78.3784 96.5298 77.9743 96.5298Z" fill="#43B2CA"/>
<path d="M82.65 96.5305C82.2459 96.5305 81.918 96.1973 81.918 95.7867V80.8541C81.918 80.4436 82.2459 80.1104 82.65 80.1104C83.0541 80.1104 83.3821 80.4436 83.3821 80.8541V95.7867C83.3821 96.1973 83.0541 96.5305 82.65 96.5305Z" fill="#43B2CA"/>
<path d="M69.3132 75.5558C68.6938 75.5558 68.0752 75.532 67.4698 75.4822C67.0672 75.4494 66.767 75.0909 66.7992 74.6811C66.8315 74.2721 67.1829 73.9597 67.5877 73.9998C70.1602 74.2096 72.9845 73.9359 74.7766 73.2999C77.1412 72.4602 77.1654 71.7745 77.2042 70.6373C77.2123 70.4045 77.221 70.1657 77.2452 69.9203C77.2855 69.512 77.6398 69.2122 78.0468 69.2539C78.4487 69.2948 78.7423 69.6592 78.7027 70.0683C78.6815 70.281 78.6749 70.487 78.6683 70.6893C78.6127 72.2981 78.3265 73.6153 75.2605 74.7034C73.7217 75.2494 71.5204 75.5558 69.3139 75.5558H69.3132Z" fill="#43B2CA"/>
<path d="M90.2884 82.276H89.7481C89.344 82.276 89.0161 81.9427 89.0161 81.5322C89.0161 81.1216 89.344 80.7884 89.7481 80.7884H90.2884C90.6918 80.7884 91.0205 80.4545 91.0205 80.0447V68.636C91.0205 63.3791 89.1032 61.2348 84.4033 61.2348H82.0255C78.655 61.661 77.4801 64.0998 76.3424 66.4576C76.0664 67.031 75.8051 67.5725 75.5152 68.0775C73.9705 70.7677 71.39 72.041 67.854 71.8729C67.7442 71.8677 67.66 71.8647 67.6037 71.864C67.2128 71.9004 66.8628 71.5516 66.8518 71.141C66.8409 70.7305 67.1593 70.3884 67.5634 70.3772C67.6417 70.3772 67.7655 70.3794 67.9243 70.3876C69.1425 70.4456 72.3702 70.6033 74.2509 67.3285C74.5137 66.8703 74.7641 66.3527 75.0284 65.8038C76.2187 63.3337 77.7012 60.2605 81.8952 59.7533C81.9238 59.7503 81.953 59.748 81.9816 59.748H84.4033C89.9165 59.748 92.4846 62.5721 92.4846 68.6368V80.0454C92.4846 81.2756 91.4993 82.2767 90.2884 82.2767V82.276Z" fill="#43B2CA"/>
<path d="M82.5847 58.5201C79.794 58.5201 77.8438 56.2606 77.8438 53.0252C77.8438 49.7898 79.794 47.5303 82.5847 47.5303C85.3753 47.5303 87.3248 49.7898 87.3248 53.0252C87.3248 56.2606 85.3753 58.5201 82.5847 58.5201ZM82.5847 49.0178C80.1666 49.0178 79.3079 51.1762 79.3079 53.0252C79.3079 54.8742 80.1659 57.0326 82.5847 57.0326C85.0034 57.0326 85.8607 54.8742 85.8607 53.0252C85.8607 51.1762 85.0027 49.0178 82.5847 49.0178Z" fill="#43B2CA"/>
<path d="M60.7205 75.9473C55.6955 75.9473 52.2006 74.999 50.1178 73.086C48.519 71.6178 47.7657 69.6223 47.8147 66.9864C47.8967 62.5892 51.0154 59.748 55.7607 59.748H57.7651C62.372 59.748 65.8464 63.5695 65.8464 68.6368L65.8567 70.4873C66.4445 70.462 66.9658 70.4241 67.3933 70.3809C67.5968 70.3593 67.7996 70.427 67.9526 70.5661C68.1049 70.7045 68.1942 70.9016 68.1971 71.1091L68.2528 74.729C68.2586 75.1098 67.9804 75.4333 67.6078 75.4787C65.0543 75.7903 62.7608 75.9473 60.7205 75.9473ZM55.7607 61.2356C52.6794 61.2356 49.358 62.7536 49.2789 67.0146C49.2379 69.1946 49.8338 70.8197 51.1003 71.983C53.5915 74.2716 58.8639 74.9766 66.7784 74.0797L66.7454 71.925C63.8823 72.1117 54.298 72.3623 52.3492 67.5606C52.1947 67.1805 52.3734 66.7461 52.7467 66.5892C53.1215 66.4323 53.5491 66.6137 53.7028 66.9931C54.869 69.867 60.342 70.52 64.3215 70.52C64.345 70.52 64.3691 70.52 64.3925 70.52L64.3823 68.6412C64.3823 64.349 61.5997 61.2356 57.7651 61.2356H55.7607Z" fill="#474847"/>
</g>
<defs>
<clipPath id="clip0_131_1602">
<rect width="63" height="49" fill="white" transform="translate(38.5078 47.5303)"/>
</clipPath>
</defs>
</svg>
