<svg width="140" height="140" viewBox="0 0 140 140" fill="none" xmlns="http://www.w3.org/2000/svg">
<path d="M139.008 69.5352C139.008 107.919 107.892 139.035 69.5078 139.035C31.124 139.035 0.0078125 107.919 0.0078125 69.5352C0.0078125 31.1514 31.124 0.0351562 69.5078 0.0351562C107.892 0.0351562 139.008 31.1514 139.008 69.5352Z" fill="white"/>
<path fill-rule="evenodd" clip-rule="evenodd" d="M69.5078 138.035C107.339 138.035 138.008 107.367 138.008 69.5352C138.008 31.7037 107.339 1.03516 69.5078 1.03516C31.6763 1.03516 1.00781 31.7037 1.00781 69.5352C1.00781 107.367 31.6763 138.035 69.5078 138.035ZM69.5078 139.035C107.892 139.035 139.008 107.919 139.008 69.5352C139.008 31.1514 107.892 0.0351562 69.5078 0.0351562C31.124 0.0351562 0.0078125 31.1514 0.0078125 69.5352C0.0078125 107.919 31.124 139.035 69.5078 139.035Z" fill="#43B2CA"/>
<path d="M66.896 51.6797C66.7637 51.6797 66.63 51.6742 66.4935 51.6658C65.0997 51.5697 63.9133 51.0044 63.0681 50.0297C62.078 48.8906 61.6074 47.2573 61.741 45.4345C62.0014 41.9241 64.2419 39.7198 67.3555 39.9176C68.7493 40.0136 69.9357 40.579 70.7809 41.5537C71.771 42.6927 72.2416 44.3261 72.1079 46.1488C71.8587 49.5061 69.7853 51.6811 66.896 51.6811V51.6797ZM66.9433 41.2056C64.3074 41.2056 63.192 43.499 63.043 45.5306C62.933 47.0038 63.2923 48.2988 64.0525 49.1747C64.675 49.8932 65.5258 50.2928 66.5826 50.3638C69.4302 50.5685 70.6514 48.1637 70.806 46.0514C70.916 44.5781 70.5568 43.2832 69.7965 42.4073C69.174 41.6888 68.3232 41.2891 67.2663 41.2181C67.1563 41.2112 67.0491 41.207 66.9433 41.207V41.2056Z" fill="#474847"/>
<path fill-rule="evenodd" clip-rule="evenodd" d="M66.8967 51.6809C66.939 51.6809 66.9811 51.6804 67.023 51.6795C67.0476 51.679 67.0722 51.6783 67.0967 51.6774C69.8814 51.5792 71.8652 49.4279 72.1087 46.1486C72.2424 44.3259 71.7717 42.6925 70.7817 41.5535C69.9365 40.5788 68.7501 40.0134 67.3562 39.9174C64.2427 39.7196 62.0022 41.9239 61.7418 45.4343C61.6081 47.2571 62.0788 48.8904 63.0688 50.0295C63.9141 51.0042 65.1004 51.5695 66.4943 51.6656C66.6307 51.674 66.7644 51.6795 66.8967 51.6795V51.6809ZM66.6967 51.8758V51.8809H66.8967C68.3947 51.8809 69.6885 51.3157 70.6381 50.3111C71.5859 49.3084 72.1808 47.8791 72.3082 46.1634L72.3082 46.1633C72.4448 44.2996 71.9649 42.61 70.9328 41.4225C70.0495 40.4039 68.8118 39.8172 67.37 39.7178L67.3689 39.7178C65.7591 39.6155 64.3639 40.1351 63.3389 41.1427C62.3159 42.1482 61.6754 43.6258 61.5424 45.4195L61.5423 45.4197C61.4057 47.2833 61.8856 48.9729 62.9177 50.1605M66.6967 51.8758C66.6253 51.8733 66.5538 51.8696 66.482 51.8652L66.4805 51.8651C65.0387 51.7657 63.8011 51.1791 62.9178 50.1606M66.9441 41.2068V41.2054C66.9065 41.2054 66.8691 41.2059 66.8321 41.2068C66.8026 41.2075 66.7732 41.2086 66.7441 41.2099C64.2515 41.323 63.1889 43.5509 63.0438 45.5304C62.9338 47.0036 63.293 48.2986 64.0533 49.1745C64.6757 49.893 65.5265 50.2926 66.5834 50.3636C69.431 50.5683 70.6522 48.1635 70.8068 46.0512C70.9168 44.5779 70.5575 43.283 69.7972 42.4071C69.1748 41.6886 68.324 41.2889 67.2671 41.2179C67.1571 41.211 67.0499 41.2068 66.9441 41.2068ZM67.2541 41.4175C67.1473 41.4108 67.0445 41.4068 66.9441 41.4068H66.8347C65.6418 41.4374 64.7953 41.9686 64.2207 42.7268C63.6233 43.5152 63.3158 44.5561 63.2432 45.545L63.2432 45.5453C63.136 46.9805 63.4879 48.218 64.2043 49.0434L64.2045 49.0435C64.7878 49.7169 65.5864 50.0962 66.5968 50.1641L66.5977 50.1641C67.9537 50.2616 68.9085 49.7413 69.5496 48.9504C70.1975 48.151 70.5321 47.0646 70.6073 46.0366L70.6073 46.0363C70.7145 44.601 70.3627 43.3636 69.6462 42.5382L69.6461 42.5381C69.0628 41.8648 68.2643 41.4855 67.2541 41.4175Z" fill="#474847"/>
<path d="M79.9112 88.8333C79.8792 88.8333 79.8472 88.8305 79.8151 88.8263C79.4587 88.7734 79.2122 88.4434 79.2637 88.0869L80.9235 76.6952C81.1268 75.7316 80.9542 74.7945 80.4431 74.0161C79.9405 73.2474 79.1662 72.7211 78.2625 72.5345L70.2795 70.8955C69.9495 70.8273 69.7253 70.5196 69.7629 70.1854L71.0983 58.0514C71.1693 57.4039 70.9799 56.769 70.565 56.2691C70.1528 55.7706 69.5721 55.4698 68.9288 55.4197L61.28 54.8321C59.1245 54.6733 57.0163 55.6592 55.7631 57.422L50.2698 65.4552L48.7116 72.7837C48.642 73.1123 48.7256 73.4479 48.9414 73.7069C49.1572 73.9618 49.5039 74.1163 49.7991 74.0871C50.2573 74.0704 50.6555 73.7626 50.7892 73.3198L52.9322 66.196C52.96 66.1013 53.0102 66.015 53.0756 65.9426L59.2317 59.2392C59.4253 59.0276 59.7344 58.9677 59.9934 59.0916C60.2524 59.2155 60.4 59.4927 60.3568 59.7753L59.2219 67.3865C58.5438 72.3994 59.2554 74.7889 65.2625 75.6689L76.3771 77.351C76.7155 77.4025 76.9564 77.7075 76.9286 78.0486L76.0917 88.2331C76.0624 88.5924 75.7213 88.8569 75.3885 88.8291C75.0292 88.7999 74.7633 88.4851 74.7925 88.1259L75.5792 78.5485L65.0703 76.9583C58.0982 75.9377 57.1834 72.7419 57.9311 67.2027L58.7527 61.6872L54.1381 66.7126L52.0368 73.693C51.743 74.6691 50.863 75.3514 49.8479 75.3876C49.082 75.4308 48.4178 75.1064 47.943 74.541C47.4668 73.9743 47.2816 73.2335 47.4361 72.508L49.0221 65.0541C49.0402 64.972 49.0737 64.8926 49.121 64.823L54.695 56.6729C56.2198 54.5299 58.7903 53.3324 61.3803 53.5287L69.0291 54.1163C70.0275 54.1929 70.9298 54.6594 71.569 55.4322C72.2123 56.2078 72.5061 57.1867 72.3947 58.1907L71.1233 69.7342L78.5243 71.2548C79.7692 71.5124 80.84 72.2379 81.5334 73.2989C82.2352 74.3697 82.4733 75.6564 82.206 76.9221L80.5531 88.2735C80.5058 88.5979 80.2273 88.8319 79.9084 88.8319L79.9112 88.8333Z" fill="#474847"/>
<path fill-rule="evenodd" clip-rule="evenodd" d="M79.9123 89.0317L79.912 89.0331C79.8686 89.0331 79.8274 89.0293 79.79 89.0244L79.7865 89.024C79.3215 88.9549 78.9992 88.524 79.0666 88.0581L80.7282 76.6536C80.921 75.7399 80.7573 74.8576 80.2767 74.1256C79.8033 73.4017 79.0746 72.906 78.2229 72.7301L70.2401 71.0913C69.8095 71.0022 69.5158 70.6005 69.5649 70.1631C69.565 70.163 69.5649 70.1631 69.5649 70.1631L70.9003 58.0294C70.9003 58.0294 70.9003 58.0295 70.9003 58.0294C70.9654 57.4355 70.7919 56.8545 70.4119 56.3967C70.0343 55.94 69.5035 55.6649 68.9143 55.6189C68.9142 55.6189 68.9143 55.6189 68.9143 55.6189L61.2661 55.0313C61.266 55.0313 61.2662 55.0314 61.2661 55.0313C59.1807 54.8779 57.1405 55.8317 55.9279 57.5363L50.458 65.5353L48.9081 72.825C48.8513 73.0931 48.9189 73.366 49.0953 73.5781C49.2753 73.7902 49.5603 73.9097 49.7802 73.8879L49.7926 73.8866C50.1647 73.8731 50.4894 73.6234 50.5985 73.2618L52.7411 66.1393C52.7412 66.1391 52.741 66.1395 52.7411 66.1393C52.778 66.0142 52.844 65.9013 52.928 65.8083L52.9291 65.8071L59.0849 59.1041C59.085 59.104 59.0848 59.1041 59.0849 59.1041C59.338 58.8275 59.7423 58.7492 60.0805 58.911C60.4181 59.0726 60.6118 59.4346 60.5554 59.805C60.5553 59.8051 60.5554 59.8049 60.5554 59.805L59.4207 67.4145C59.0815 69.9226 59.104 71.7043 59.905 72.9704C60.6999 74.2268 62.3018 75.0327 65.2922 75.4708L76.4079 77.1531C76.8502 77.2204 77.1651 77.619 77.1287 78.0647L76.2918 88.2491C76.2532 88.7237 75.8107 89.0646 75.373 89.0282C74.9031 88.99 74.5558 88.5782 74.5939 88.1095L75.3654 78.7182L65.0421 77.156C61.5351 76.6426 59.4901 75.5743 58.4367 73.8804C57.3896 72.1965 57.3594 69.9487 57.7337 67.1758L57.7341 67.173L58.4596 62.3028L54.3171 66.8139L52.2291 73.7505C51.911 74.8073 50.9583 75.5471 49.8579 75.5872C49.0242 75.6336 48.3017 75.278 47.7906 74.6695C47.2748 74.0556 47.0739 73.252 47.2413 72.4662C47.2413 72.4662 47.2413 72.4662 47.2413 72.4662L48.8276 65.0109C48.8509 64.9051 48.8941 64.802 48.9564 64.7104L54.5328 56.5568C56.0982 54.3567 58.7362 53.1275 61.3962 53.3291L69.0452 53.9167C69.0452 53.9167 69.0452 53.9167 69.0452 53.9167C70.0976 53.9975 71.0501 54.4899 71.7239 55.3046C72.4016 56.1219 72.7116 57.1546 72.5943 58.2124M72.5943 58.2124L71.3429 69.5748L78.5653 71.0587C79.8618 71.327 80.9786 72.0832 81.7015 73.1891C82.4317 74.3033 82.6799 75.6419 82.4038 76.957L80.7518 88.3021C80.6901 88.7251 80.3279 89.0302 79.9123 89.0317M79.9127 88.8317C79.9129 88.8317 79.9125 88.8317 79.9127 88.8317C79.9286 88.8316 79.9443 88.8309 79.96 88.8297C80.2572 88.8064 80.5091 88.5804 80.5539 88.2733L82.2068 76.9219C82.4741 75.6562 82.236 74.3695 81.5342 73.2987C80.8407 72.2377 79.77 71.5122 78.5251 71.2546L71.1241 69.734L72.3955 58.1905C72.5069 57.1865 72.2131 56.2076 71.5697 55.432C70.9306 54.6592 70.0283 54.1927 69.0299 54.1161L61.3811 53.5285C58.7911 53.3322 56.2206 54.5297 54.6958 56.6727L49.1218 64.8228C49.0744 64.8924 49.041 64.9718 49.0229 65.054L47.4369 72.5078C47.2824 73.2333 47.4675 73.9741 47.9438 74.5408C48.4186 75.1062 49.0828 75.4306 49.8487 75.3874C50.8638 75.3512 51.7438 74.6689 52.0376 73.6928L54.1388 66.7124L58.7535 61.687L57.9319 67.2025C57.1842 72.7417 58.099 75.9375 65.0711 76.9581L75.58 78.5484L74.7933 88.1257C74.764 88.485 75.03 88.7997 75.3893 88.8289C75.7221 88.8567 76.0632 88.5922 76.0925 88.2329L76.9293 78.0484C76.9572 77.7073 76.7163 77.4023 76.3779 77.3508L65.2633 75.6687C59.2562 74.7887 58.5446 72.3992 59.2227 67.3863L60.3576 59.7751C60.4008 59.4925 60.2532 59.2153 59.9942 59.0914C59.7352 58.9675 59.426 59.0274 59.2325 59.239L53.0764 65.9424C53.011 66.0148 52.9608 66.1011 52.933 66.1958L50.79 73.3196C50.6563 73.7624 50.2581 74.0702 49.7999 74.0869C49.5047 74.1161 49.158 73.9616 48.9422 73.7068C48.7264 73.4478 48.6428 73.1122 48.7124 72.7835L50.2706 65.455L55.7639 57.4218C57.0171 55.659 59.1253 54.6731 61.2808 54.8319L68.9296 55.4195C69.5729 55.4696 70.1536 55.7704 70.5657 56.2689C70.9807 56.7688 71.1701 57.4037 71.0991 58.0512L69.7637 70.1852C69.7261 70.5194 69.9503 70.8271 70.2803 70.8953L78.2633 72.5343C79.167 72.7209 79.9412 73.2472 80.4439 74.0159C80.9549 74.7943 81.1276 75.7314 80.9243 76.695L79.2645 88.0867C79.213 88.4432 79.4594 88.7732 79.8159 88.8261C79.8313 88.8281 79.8467 88.8298 79.8621 88.831C79.8776 88.8322 79.893 88.833 79.9085 88.8331C79.9087 88.8331 79.9083 88.8331 79.9085 88.8331C79.9094 88.8331 79.9111 88.8331 79.912 88.8331L79.9092 88.8317C79.9101 88.8317 79.9118 88.8317 79.9127 88.8317Z" fill="#474847"/>
<path d="M58.8566 95.8609C58.8399 95.8609 58.8245 95.8609 58.8092 95.8609C58.45 95.8358 58.1784 95.5239 58.2049 95.1646L59.6363 74.7692C59.6614 74.4086 59.9998 74.1384 60.3326 74.1649C60.6918 74.1899 60.9634 74.5019 60.9369 74.8611L59.5054 95.2566C59.4818 95.6005 59.1949 95.8623 58.8566 95.8623V95.8609Z" fill="#474847"/>
<path fill-rule="evenodd" clip-rule="evenodd" d="M58.8574 95.863C58.8717 95.863 58.8859 95.8626 58.9 95.8617C58.9544 95.8581 59.0071 95.8478 59.0574 95.8315C59.3024 95.7521 59.4874 95.5307 59.5062 95.2573L60.9377 74.8619C60.9642 74.5026 60.6926 74.1907 60.3334 74.1657C60.0006 74.1392 59.6622 74.4093 59.6371 74.77L58.2057 95.1654C58.1792 95.5247 58.4507 95.8366 58.81 95.8617H58.8574V95.863ZM58.6574 96.04C58.2591 95.9453 57.9753 95.5736 58.0062 95.1511C58.0062 95.151 58.0062 95.1509 58.0062 95.1507L59.4376 74.7561C59.4376 74.7561 59.4376 74.756 59.4376 74.756C59.4707 74.2813 59.9085 73.9318 60.3482 73.9662C60.8168 73.9994 61.1716 74.4064 61.1372 74.8762C61.1372 74.8763 61.1372 74.8765 61.1372 74.8766L59.7058 95.2711C59.7058 95.2712 59.7058 95.2713 59.7057 95.2714C59.6746 95.7213 59.2995 96.063 58.8574 96.063H58.6574V96.04Z" fill="#474847"/>
<path d="M63.5779 96.0027C63.5487 96.0027 63.5195 96.0027 63.4902 95.9958C63.1337 95.9484 62.8831 95.6198 62.9318 95.2633L65.4494 76.4651C65.4967 76.1086 65.8281 75.844 66.1818 75.9067C66.5383 75.954 66.7889 76.2826 66.7402 76.6391L64.2227 95.4374C64.1795 95.7646 63.8996 96.0027 63.5779 96.0027Z" fill="#474847"/>
<path fill-rule="evenodd" clip-rule="evenodd" d="M63.4558 96.1928C62.9944 96.1266 62.6713 95.6996 62.7344 95.2365L62.7344 95.2368L62.9326 95.2633C62.8839 95.6198 63.1346 95.9484 63.491 95.9958C63.5203 96.0027 63.5495 96.0027 63.5787 96.0027C63.9004 96.0027 64.1803 95.7646 64.2235 95.4374L66.741 76.6391C66.7898 76.2826 66.5391 75.954 66.1826 75.9067C65.829 75.844 65.4975 76.1086 65.4502 76.465L62.9326 95.2633M66.9392 76.6658C67.0025 76.2012 66.6771 75.7729 66.2132 75.709ZM64.4217 95.4635L66.9392 76.6662ZM66.2132 75.709C65.7392 75.6276 65.3128 75.981 65.252 76.4386L65.252 76.4385L65.4502 76.465L65.2519 76.4387" fill="#474847"/>
<path d="M79.1683 65.4737C79.0931 65.4737 79.0193 65.4612 78.9483 65.4361L73.4257 63.4532C73.0874 63.3307 72.9119 62.9575 73.0317 62.6191C73.1528 62.2822 73.5274 62.1081 73.8658 62.2251L79.1599 64.1258L85.5945 61.6458C86.0846 61.4174 86.3367 60.8159 86.1403 60.2631C85.937 59.6866 85.3271 59.3803 84.7479 59.5683L79.3939 61.2824C79.2128 61.3409 79.0137 61.3158 78.8508 61.2155L70.386 55.9701C70.0811 55.7807 69.9864 55.3797 70.1757 55.072C70.3665 54.7656 70.7703 54.6765 71.0739 54.8617L79.2838 59.947L84.3524 58.3248C85.6098 57.9224 86.9341 58.5852 87.3727 59.8272C87.7946 61.0192 87.2487 62.317 86.1041 62.8461L79.4036 65.4291C79.3284 65.4584 79.2476 65.4723 79.1696 65.4723L79.1683 65.4737Z" fill="#474847"/>
<path fill-rule="evenodd" clip-rule="evenodd" d="M79.2479 65.6734H79.1651C79.0674 65.6734 78.9711 65.6571 78.8785 65.6244L78.8775 65.6241L73.355 63.6412C72.913 63.4811 72.6837 62.9938 72.84 62.5522C72.9991 62.1097 73.4886 61.8839 73.928 62.0358L73.9302 62.0366L79.1543 63.9122L85.5127 61.4615C85.901 61.2768 86.1115 60.7881 85.9487 60.3298C85.7809 59.854 85.2809 59.6043 84.8064 59.7582L79.4522 61.4725C79.4521 61.4725 79.4523 61.4724 79.4522 61.4725C79.2145 61.5491 78.9546 61.5159 78.7428 61.3856L70.2775 56.1399C69.8786 55.8922 69.7554 55.3681 70.0023 54.9669L70.0028 54.966C70.253 54.5643 70.7799 54.4498 71.1749 54.6907L71.176 54.6914L79.3076 59.7282L84.2883 58.1341C85.6493 57.6985 87.0837 58.4169 87.5581 59.7604C88.0143 61.0494 87.4235 62.4548 86.1849 63.0274L86.1731 63.0329L79.4729 65.6153C79.4728 65.6153 79.4731 65.6152 79.4729 65.6153C79.4017 65.6429 79.3272 65.6601 79.2538 65.6676L79.2479 65.6734ZM79.4005 65.4289L86.101 62.8459C87.2456 62.3167 87.7914 61.0189 87.3695 59.827C86.9309 58.5849 85.6067 57.9221 84.3493 58.3245L79.2807 59.9468L71.0707 54.8615C70.7672 54.6763 70.3634 54.7654 70.1726 55.0717C69.9832 55.3795 70.0779 55.7805 70.3828 55.9699L78.8476 61.2153C79.0106 61.3155 79.2097 61.3406 79.3907 61.2821L84.7447 59.568C85.324 59.38 85.9339 59.6864 86.1372 60.2628C86.3335 60.8157 86.0815 61.4172 85.5913 61.6456L79.1568 64.1255L73.8626 62.2248C73.5242 62.1078 73.1497 62.2819 73.0285 62.6189C72.9088 62.9573 73.0842 63.3304 73.4226 63.453L78.9451 65.4358C79.0161 65.4609 79.0899 65.4734 79.1651 65.4734L79.1665 65.472C79.2445 65.472 79.3253 65.4581 79.4005 65.4289Z" fill="#474847"/>
<path d="M70.6029 103.037H59.821C59.4604 103.037 59.1694 102.746 59.1694 102.386C59.1694 102.025 59.4604 101.734 59.821 101.734H70.2171L74.1258 94.5962C74.24 94.3874 74.46 94.2578 74.6981 94.2578H84.3771C84.7378 94.2578 85.0288 94.5489 85.0288 94.9095V96.7629L92.0218 92.6677L85.0288 88.571V90.4244C85.0288 90.785 84.7378 91.0761 84.3771 91.0761H72.8336L68.5546 98.2333C68.4376 98.4297 68.2245 98.5508 67.9962 98.5508H51.2337C50.873 98.5508 50.582 98.2598 50.582 97.8992C50.582 97.5385 50.873 97.2475 51.2337 97.2475H67.6272L71.9062 90.0902C72.0232 89.8939 72.2362 89.7727 72.4646 89.7727H83.7254V87.4334C83.7254 87.2008 83.8508 86.9836 84.0527 86.8681C84.2546 86.7539 84.5052 86.7524 84.7071 86.8708L93.6426 92.1051C93.8431 92.2221 93.9642 92.4365 93.9642 92.6677C93.9642 92.8988 93.8417 93.1133 93.6426 93.2302L84.7071 98.4631C84.5038 98.5814 84.2546 98.5814 84.0527 98.4659C83.8508 98.3503 83.7254 98.1331 83.7254 97.9006V95.5626H75.0838L71.1752 102.7C71.061 102.909 70.841 103.039 70.6029 103.039V103.037Z" fill="#43B2CA"/>
<path d="M56.3879 103.038H53.8118C53.4512 103.038 53.1602 102.747 53.1602 102.386C53.1602 102.025 53.4512 101.734 53.8118 101.734H56.3879C56.7485 101.734 57.0395 102.025 57.0395 102.386C57.0395 102.747 56.7485 103.038 56.3879 103.038Z" fill="#43B2CA"/>
</svg>
