<svg width="64" height="73" viewBox="0 0 64 73" fill="none" xmlns="http://www.w3.org/2000/svg">
<path d="M11.7633 34.1746C11.7633 34.6317 12.1324 35.0007 12.5895 35.0007C13.0466 35.0007 13.4156 34.6317 13.4156 34.1746V31.2467C13.4156 30.7896 13.0466 30.4205 12.5895 30.4205C12.1324 30.4205 11.7633 30.7896 11.7633 31.2467V34.1746Z" fill="#474847" stroke="#474847" stroke-width="0.2"/>
<path d="M11.7651 41.8298H13.416C14.4922 41.8298 15.3672 40.9549 15.3672 39.8788V36.2759C15.3672 35.1997 14.4922 34.3248 13.416 34.3248H11.7651C10.6889 34.3248 9.81406 35.1997 9.81406 36.2759V39.8788C9.81406 40.9549 10.6889 41.8298 11.7651 41.8298ZM11.4664 36.2759C11.4664 36.1108 11.6 35.9771 11.7651 35.9771H13.416C13.5809 35.9771 13.7148 36.1121 13.7148 36.2759V39.8788C13.7148 40.0439 13.5811 40.1775 13.416 40.1775H11.7651C11.6 40.1775 11.4664 40.0439 11.4664 39.8788V36.2759Z" fill="#474847" stroke="#474847" stroke-width="0.2"/>
<path d="M25.8484 8.14859C25.8484 10.4173 26.5119 12.3185 27.674 13.6532C28.8366 14.9886 30.4953 15.7534 32.4773 15.7534C34.4585 15.7534 36.1172 14.9886 37.2801 13.6532C38.4424 12.3185 39.1062 10.4173 39.1062 8.14859C39.1062 5.87988 38.4424 3.97872 37.2801 2.64397C36.1172 1.3086 34.4585 0.54375 32.4773 0.54375C30.4961 0.54375 28.8374 1.3086 27.6746 2.64397C26.5123 3.97872 25.8484 5.87988 25.8484 8.14859ZM27.4008 8.14859C27.4008 6.74728 27.7349 5.2325 28.5361 4.06963C29.3356 2.90909 30.6021 2.09607 32.4773 2.09607C34.3525 2.09607 35.619 2.90909 36.4186 4.06963C37.2197 5.2325 37.5539 6.74728 37.5539 8.14859C37.5539 9.54991 37.2197 11.0647 36.4186 12.2276C35.619 13.3881 34.3525 14.2011 32.4773 14.2011C30.6021 14.2011 29.3356 13.3881 28.5361 12.2276C27.7349 11.0647 27.4008 9.54991 27.4008 8.14859Z" fill="#43B2CA" stroke="#43B2CA" stroke-width="0.1"/>
<path d="M40.4852 61.8026C40.4852 62.2321 40.8319 62.5787 41.2613 62.5787C41.6908 62.5787 42.0375 62.2321 42.0375 61.8026V30.5855C42.0375 30.1561 41.6908 29.8094 41.2613 29.8094C40.8319 29.8094 40.4852 30.156 40.4852 30.5855V61.8026Z" fill="#43B2CA" stroke="#43B2CA" stroke-width="0.1"/>
<path d="M22.9266 61.8007V61.8007L22.9561 44.9424C22.9561 44.9424 22.9561 44.9424 22.9561 44.9423L22.9561 44.9423L23.0061 44.9424C23.0061 44.5421 23.3319 44.2178 23.7322 44.2178C24.1341 44.2178 24.4568 44.5436 24.4568 44.9455L22.9266 61.8007ZM22.9266 61.8007C22.9266 62.23 23.2715 62.5785 23.7012 62.5785C24.129 62.5785 24.4773 62.232 24.4773 61.8039L22.9266 61.8007Z" fill="#43B2CA" stroke="#43B2CA" stroke-width="0.1"/>
<path d="M33.1721 30.9322L33.1721 30.9321L38.8053 19.6673C42.4534 19.8792 45.3585 22.9164 45.3585 26.618V48.6308C45.3585 49.0097 45.0489 49.3194 44.67 49.3194H44.1843C43.7548 49.3194 43.4081 49.6661 43.4081 50.0956C43.4081 50.525 43.7548 50.8717 44.1843 50.8717H44.6684C44.6689 50.8717 44.6694 50.8717 44.67 50.8717C45.9055 50.8709 46.9109 49.8667 46.9109 48.6308V26.618C46.9109 21.9229 43.0914 18.1023 38.3301 18.1023C38.0348 18.1023 37.7677 18.2683 37.6352 18.5317L37.6351 18.5319L32.4773 28.8491L27.3195 18.5319L27.3194 18.5317C27.1849 18.2643 26.8482 18.1023 26.5594 18.1023C21.863 18.1023 18.0437 21.9231 18.0437 26.618C18.0437 27.0475 18.3905 27.3941 18.8199 27.3941C19.2494 27.3941 19.5961 27.0475 19.5961 26.618C19.5961 22.935 22.4703 19.91 26.1509 19.6706L31.7825 30.9321L31.7825 30.9322C31.9163 31.199 32.1998 31.3287 32.4773 31.3287C32.7548 31.3287 33.0383 31.199 33.1721 30.9322Z" fill="#43B2CA" stroke="#43B2CA" stroke-width="0.1"/>
<path d="M31.5035 19.6566H33.4539C33.8834 19.6566 34.2301 19.3099 34.2301 18.8805C34.2301 18.451 33.8834 18.1043 33.4539 18.1043H31.5035C31.074 18.1043 30.7273 18.451 30.7273 18.8805C30.7273 19.3099 31.074 19.6566 31.5035 19.6566Z" fill="#43B2CA" stroke="#43B2CA" stroke-width="0.1"/>
<path d="M31.7039 29.6115C31.7039 30.0409 32.0505 30.3876 32.48 30.3876C32.9095 30.3876 33.2562 30.041 33.2562 29.6115V18.8805C33.2562 18.451 32.9095 18.1043 32.48 18.1043C32.0505 18.1043 31.7039 18.451 31.7039 18.8805V29.6115Z" fill="#43B2CA" stroke="#43B2CA" stroke-width="0.1"/>
<path d="M43.5538 70.7517C43.9618 67.3826 46.8396 64.7638 50.3187 64.7638H55.4126C58.8902 64.7638 61.7695 67.3826 62.1776 70.7517H43.5538ZM42.6754 72.404H63.0544H63.056C63.5131 72.404 63.8821 72.0349 63.8821 71.5779C63.8821 66.9081 60.0824 63.11 55.4126 63.11H50.3187C45.6489 63.11 41.8492 66.9081 41.8492 71.5779C41.8492 72.035 42.2183 72.404 42.6754 72.404Z" fill="#474847" stroke="#474847" stroke-width="0.2"/>
<path d="M46.9469 54.5972C46.9469 56.6109 47.5372 58.3031 48.5759 59.4933C49.6156 60.6847 51.0987 61.366 52.867 61.366C54.6352 61.366 56.1183 60.6852 57.1581 59.4939C58.1968 58.3038 58.7871 56.6117 58.7871 54.5972C58.7871 52.5827 58.1968 50.8901 57.1581 49.6997C56.1183 48.508 54.6353 47.8268 52.867 47.8268C51.0987 47.8268 49.6156 48.5084 48.5759 49.7003C47.5372 50.8909 46.9469 52.5834 46.9469 54.5972ZM48.5992 54.5972C48.5992 53.4074 48.8822 52.1245 49.5564 51.1423C50.2274 50.1647 51.289 49.4791 52.867 49.4791C54.4449 49.4791 55.5065 50.1647 56.1775 51.1423C56.8517 52.1245 57.1348 53.4074 57.1348 54.5972C57.1348 55.7869 56.8517 57.0694 56.1775 58.0513C55.5066 59.0285 54.4449 59.7137 52.867 59.7137C51.289 59.7137 50.2274 59.0285 49.5564 58.0513C48.8822 57.0694 48.5992 55.7869 48.5992 54.5972Z" fill="#474847" stroke="#474847" stroke-width="0.2"/>
<path d="M23.1515 70.7517C23.5595 67.3826 26.4372 64.7638 29.9163 64.7638H35.0103C38.4878 64.7638 41.3672 67.3826 41.7752 70.7517H23.1515ZM22.2731 72.404H42.652H42.6536C43.1107 72.404 43.4797 72.0349 43.4797 71.5779C43.4797 66.9081 39.68 63.11 35.0103 63.11H29.9163C25.2466 63.11 21.4469 66.9081 21.4469 71.5779C21.4469 72.035 21.816 72.404 22.2731 72.404Z" fill="#474847" stroke="#474847" stroke-width="0.2"/>
<path d="M26.5406 54.5972C26.5406 56.6109 27.1309 58.3031 28.1696 59.4933C29.2094 60.6847 30.6924 61.366 32.4607 61.366C34.229 61.366 35.712 60.6852 36.7518 59.4939C37.7906 58.3038 38.3809 56.6117 38.3809 54.5972C38.3809 52.5827 37.7906 50.8901 36.7518 49.6997C35.7121 48.508 34.229 47.8268 32.4607 47.8268C30.6924 47.8268 29.2094 48.5084 28.1696 49.7003C27.1309 50.8909 26.5406 52.5834 26.5406 54.5972ZM28.1929 54.5972C28.1929 53.4074 28.476 52.1245 29.1502 51.1423C29.8211 50.1647 30.8828 49.4791 32.4607 49.4791C34.0386 49.4791 35.1003 50.1647 35.7713 51.1423C36.4455 52.1245 36.7285 53.4074 36.7285 54.5972C36.7285 55.7869 36.4455 57.0694 35.7713 58.0513C35.1003 59.0285 34.0387 59.7137 32.4607 59.7137C30.8828 59.7137 29.8211 59.0285 29.1502 58.0513C28.476 57.0694 28.1929 55.7869 28.1929 54.5972Z" fill="#474847" stroke="#474847" stroke-width="0.2"/>
<path d="M1.89415 72.3894H22.2716H22.2731C22.7302 72.3894 23.0993 72.0203 23.0993 71.5632C23.0993 66.8935 19.3011 63.0953 14.6314 63.0953H9.53748C4.86775 63.0953 1.06797 66.8934 1.06797 71.5632C1.06797 72.0203 1.43706 72.3894 1.89415 72.3894ZM21.3947 70.737H2.77104C3.17904 67.3679 6.05682 64.7492 9.53589 64.7492H14.6299C18.1074 64.7492 20.9867 67.3679 21.3947 70.737Z" fill="#474847" stroke="#474847" stroke-width="0.2"/>
<path d="M6.16172 54.5825C6.16172 56.5971 6.75242 58.2896 7.79154 59.48C8.83169 60.6717 10.3151 61.3529 12.0834 61.3529C13.8517 61.3529 15.3348 60.6717 16.3745 59.48C17.4133 58.2896 18.0036 56.5971 18.0036 54.5825C18.0036 52.568 17.4133 50.8755 16.3745 49.685C15.3348 48.4934 13.8517 47.8121 12.0834 47.8121C10.3151 47.8121 8.83169 48.4934 7.79154 49.685C6.75242 50.8755 6.16172 52.568 6.16172 54.5825ZM7.81409 54.5841C7.81409 53.3943 8.09712 52.1114 8.7715 51.1292C9.44266 50.1516 10.5047 49.466 12.0834 49.466C13.6613 49.466 14.723 50.1516 15.394 51.1292C16.0682 52.1114 16.3512 53.3943 16.3512 54.5841C16.3512 55.7739 16.0685 57.0564 15.3945 58.0382C14.7238 59.0154 13.6621 59.7006 12.0834 59.7006C10.5047 59.7006 9.44264 59.0154 8.77149 58.0382C8.09712 57.0563 7.81409 55.7739 7.81409 54.5841Z" fill="#474847" stroke="#474847" stroke-width="0.2"/>
<path d="M22.3445 32.0738H22.3865L22.3891 32.0711C22.8261 32.0488 23.1722 31.6887 23.1722 31.2461V29.2957C23.1722 28.676 23.6766 28.1715 24.2964 28.1715C24.7535 28.1715 25.1226 27.8024 25.1226 27.3453C25.1226 26.8882 24.7535 26.5191 24.2964 26.5191H10.639C9.10821 26.5191 7.86094 27.7648 7.86094 29.2972V31.2476C7.86094 31.7047 8.23003 32.0738 8.68712 32.0738H22.3445ZM21.5167 29.2972V30.4215H9.51323V29.2972C9.51323 28.6775 10.0178 28.173 10.6375 28.173H21.7544C21.6017 28.5173 21.5167 28.8975 21.5167 29.2972Z" fill="#474847" stroke="#474847" stroke-width="0.2"/>
<path d="M25.4191 29.2976V44.0792H13.4156V41.0031C13.4156 40.546 13.0465 40.1769 12.5894 40.1769C12.1323 40.1769 11.7633 40.546 11.7633 41.0031V44.9054C11.7633 45.3625 12.1323 45.7316 12.5894 45.7316H26.1468V45.7331H26.2468C26.7039 45.7331 27.0729 45.364 27.0729 44.9069V29.2992C27.0729 27.7668 25.8256 26.5211 24.2948 26.5211H22.3444C21.8874 26.5211 21.5183 26.8901 21.5183 27.3473C21.5183 27.8044 21.8874 28.1734 22.3444 28.1734H24.2948C24.9145 28.1734 25.4191 28.6779 25.4191 29.2976Z" fill="#474847" stroke="#474847" stroke-width="0.2"/>
</svg>
