<?xml version="1.0" encoding="UTF-8"?><svg id="_レイヤー_2" xmlns="http://www.w3.org/2000/svg" viewBox="0 0 501.92 112.54"><defs><style>.cls-1{fill:#193f86;}.cls-2{fill:#373536;}.cls-3{fill:#33a3dc;}</style></defs><g id="Layer_1"><path class="cls-2" d="m142.35,80.46v-45.3h6.79v38.51h38.45v6.79h-45.24Z"/><path class="cls-2" d="m191.61,32.08h6.79v6.79h-6.79v-6.79Zm0,48.38v-36.44h6.79v36.44h-6.79Z"/><path class="cls-2" d="m234.33,44.02c2.26,0,4.19.8,5.78,2.39,1.59,1.59,2.39,3.52,2.39,5.78v20.11c0,2.26-.8,4.19-2.39,5.78-1.59,1.59-3.52,2.39-5.78,2.39h-28.9v-48.38h6.79v11.94h22.12Zm1.38,28.27v-20.11c0-.38-.14-.7-.41-.97-.27-.27-.6-.41-.97-.41h-20.73c-.38,0-.7.14-.97.41-.27.27-.41.6-.41.97v20.11c0,.38.14.7.41.97.27.27.6.41.97.41h20.73c.38,0,.7-.13.97-.41.27-.27.41-.6.41-.97Z"/><path class="cls-2" d="m276.68,44.02c2.26,0,4.19.8,5.78,2.39,1.59,1.59,2.39,3.52,2.39,5.78v13.45h-30.28v6.66c0,.38.14.7.41.97.27.27.6.41.97.41h28.9v6.79h-28.9c-2.26,0-4.19-.8-5.78-2.39s-2.39-3.52-2.39-5.78v-20.11c0-2.26.8-4.19,2.39-5.78,1.59-1.59,3.52-2.39,5.78-2.39h20.73Zm-22.12,14.83h23.5v-6.66c0-.38-.14-.7-.41-.97-.27-.27-.6-.41-.97-.41h-20.73c-.38,0-.7.14-.97.41-.27.27-.41.6-.41.97v6.66Z"/><path class="cls-2" d="m298.86,44.02h20.36v6.79h-20.36c-.38,0-.7.14-.97.41s-.41.6-.41.97v28.27h-6.79v-28.27c0-2.26.8-4.19,2.39-5.78,1.59-1.59,3.52-2.39,5.78-2.39Z"/><path class="cls-2" d="m371.37,40.31h-37.57c-.67,0-1.25.24-1.73.72-.48.48-.72,1.06-.72,1.73v30.16c0,.67.24,1.25.72,1.73.48.48,1.06.72,1.73.72h37.57v5.09h-37.57c-2.1,0-3.87-.73-5.34-2.2-1.47-1.47-2.2-3.25-2.2-5.34v-30.16c0-2.1.73-3.87,2.2-5.34,1.47-1.47,3.25-2.2,5.34-2.2h37.57v5.09Z"/><path class="cls-2" d="m384.43,44.02h20.48v5.15h-20.48c-.67,0-1.25.24-1.73.72-.48.48-.72,1.06-.72,1.73v28.84h-5.15v-28.84c0-2.09.74-3.88,2.23-5.37,1.49-1.49,3.28-2.23,5.37-2.23Z"/><path class="cls-2" d="m437.46,44.02c2.14,0,3.95.75,5.43,2.23,1.49,1.49,2.23,3.28,2.23,5.37v28.84h-29.53c-2.1,0-3.89-.74-5.37-2.23-1.49-1.49-2.23-3.28-2.23-5.37v-13.19h31.92v-8.04c0-.67-.24-1.25-.72-1.73-.48-.48-1.06-.72-1.73-.72h-29.47v-5.15h29.47Zm2.45,31.29v-10.49h-26.77v8.04c0,.67.24,1.25.72,1.73.48.48,1.06.72,1.73.72h24.32Z"/><path class="cls-2" d="m458.63,37.23c-.67,0-1.25.24-1.73.72-.48.48-.72,1.06-.72,1.73v4.33h15.77v5.15h-15.77v31.29h-5.15v-40.78c0-2.14.73-3.94,2.2-5.4,1.47-1.47,3.27-2.2,5.4-2.2h13.32v5.15h-13.32Z"/><path class="cls-2" d="m501.92,49.17h-15.77v23.69c0,.67.24,1.25.72,1.73.48.48,1.06.72,1.73.72h13.32v5.15h-13.32c-2.14,0-3.94-.74-5.4-2.23-1.47-1.49-2.2-3.28-2.2-5.37v-40.78h5.15v11.94h15.77v5.15Z"/><path class="cls-1" d="m81.2,97.44l-2.56-.32.03,5.19-10.95,6.68-.12-23.32,2-1.22,3.48-2.13-.02-2.99-7.04,4.3-7.01-.89-13.78-1.75,3.12-1.9,1.45-.88h0s5.44-3.32,5.44-3.32l17.82,2.26v-2.58s-17.94-2.27-17.94-2.27c-.29-.04-.58.03-.83.18l-4.5,2.75-.03-5.9s-.02-.04-.02-.06c0-.07,0-.13-.01-.2-.03-.14-.08-.26-.15-.38,0,0,0,0-.01-.02-.1-.17-.25-.31-.42-.41-.02-.01-.02-.03-.04-.04,0,0-.02,0-.03,0-.13-.07-.28-.12-.43-.14l-12.07-1.53,3.89-2.37c.38-.24.62-.65.61-1.1l-.14-25.72,1.27-.77-.02-2.99-3.18,1.94-2.29,1.4v-.09s-.12-23.24-.12-23.24l2-1.22,8.95-5.46.02,3.73,2.55-1.56-.02-4.45s-.02-.04-.02-.06c0-.07,0-.13-.01-.2-.03-.14-.08-.26-.15-.38,0,0,0,0-.01-.02-.1-.17-.25-.31-.42-.41-.02-.01-.02-.03-.04-.04,0,0-.02,0-.03,0-.13-.07-.28-.12-.43-.14L24.11.19c-.29-.03-.58.03-.83.18l-13.5,8.24s-.07.07-.11.1c-.02.02-.05.02-.07.04-.02.01-.02.04-.04.05-.11.11-.2.22-.26.36,0,.01-.02.02-.02.03-.06.15-.09.31-.1.47,0,.02-.01.03-.01.05l.14,25.72L.61,40.73s-.07.07-.11.1c-.02.02-.05.02-.07.04-.02.01-.02.04-.04.05-.11.11-.2.22-.26.36,0,.01-.02.02-.02.03-.06.15-.09.31-.1.47,0,.02-.01.03-.01.05l.14,26.31c0,.64.48,1.18,1.12,1.26l12.07,1.53-3.89,2.37s-.07.07-.11.1c-.02.02-.05.02-.07.04-.02.01-.02.04-.04.05-.11.11-.2.22-.26.36,0,.01-.02.02-.02.03-.06.15-.09.31-.1.47,0,.02-.01.03-.01.05l.14,26.32c0,.64.48,1.18,1.12,1.26l24.86,3.15c.05,0,.11.01.16.01.21,0,.41-.07.59-.16.02-.01.05,0,.08-.02l4.5-2.75.03,5.9c0,.64.48,1.18,1.12,1.26l24.86,3.15c.05,0,.11.01.16.01.21,0,.41-.07.59-.16.02-.01.05,0,.08-.02l13.5-8.24c.38-.24.62-.65.61-1.1l-.03-5.58Zm-42.82-58.43l.12,23.32-10.95,6.69-.12-23.33,1.8-1.1,9.15-5.58ZM24.23,2.79l20.79,2.63-2.14,1.31-7.86,4.8-7.01-.89-13.78-1.75,10-6.1Zm9.8,11.2l.04,7.34.09,16.39-22.3-2.83-.13-23.73,22.3,2.83Zm-22.98,23.38l20.79,2.63-5.98,3.65-5.71-.72-15.08-1.91,5.98-3.65Zm-8.35,29.65l-.13-23.73,22.3,2.83.04,7.33.09,16.4-22.3-2.83Zm8.82,32.58l-.13-23.73,22.3,2.83.04,7.34.09,16.39-22.3-2.83Zm23.16-23.36l-7.01-.89-13.78-1.75,3.51-2.14,8.72,1.11c.05,0,.11,0,.16,0,.21,0,.41-.07.59-.16.02-.01.05,0,.08-.02l6.11-3.73,11.62,1.47-2.14,1.31-7.86,4.8Zm6.1,4.47s-.07.07-.11.1c-.02.02-.05.02-.07.04-.02.01-.02.04-.04.05-.11.11-.2.22-.26.36,0,.01-.02.02-.02.03-.06.15-.09.31-.1.47,0,.02-.01.03-.01.05l.09,17.43-3.88,2.37-.12-23.32,2-1.22,8.95-5.46.03,5.17-6.45,3.94Zm2.08,26.28l-.13-23.73,22.3,2.83.04,7.94.08,15.79-22.3-2.83Z"/><path class="cls-3" d="m121.37,15.07c-.02-.2-.09-.39-.2-.57-.01-.02,0-.04-.02-.05,0,0-.02-.01-.02-.02-.09-.12-.19-.23-.32-.32L99.95.21c-.24-.16-.52-.23-.82-.21l-15.76,1.37s-.09.02-.14.03c-.03,0-.06,0-.08,0-.02,0-.04.02-.06.03-.14.05-.27.11-.39.2-.01,0-.02.01-.04.02-.12.1-.22.23-.3.38,0,.02-.02.03-.03.04l-2.65,5.4-23.94-3.03c-.29-.04-.58.03-.83.18l-13.5,8.24s-.07.07-.11.1c-.02.02-.05.02-.07.04-.02.01-.02.04-.04.05-.11.11-.2.22-.26.36,0,.01-.02.02-.02.03-.06.15-.09.31-.1.47,0,.02-.01.03-.01.05l.14,26.32c0,.64.48,1.18,1.12,1.26l24.86,3.15c.05,0,.11.01.16.01.21,0,.41-.07.59-.16.02-.01.05,0,.08-.02l13.51-8.24c.38-.24.62-.65.61-1.1v-.73s10.17,6.78,10.17,6.78c.03.02.05.02.08.04.03.02.06.03.1.05.17.08.35.13.53.13.04,0,.07,0,.11,0l15.76-1.36c.45-.04.84-.31,1.04-.71l11.6-23.62s0-.04.01-.06c.03-.06.06-.12.08-.18.03-.13.05-.27.04-.4,0,0,0-.01,0-.02Zm-22.47-12.48l17.44,11.62-3.66.32-8.01.69-9.97-6.64-7.47-4.98,11.67-1.01Zm-55.42,36.55l-.13-23.73,22.3,2.83.04,7.34.09,16.39-22.3-2.83Zm23.16-23.36l-7.01-.89-13.78-1.75,10-6.1,20.79,2.63-2.14,1.31-7.86,4.8Zm1.69,25.37l-.12-23.32,2-1.22,7.11-4.34-6.6,13.44c-.28.58-.09,1.27.44,1.63l8.11,5.4v1.73s-10.94,6.68-10.94,6.68Zm23.89-2.87l-18.71-12.46,10.46-21.31.66.44,18.04,12.02-10.46,21.3Zm15.44-.7l-12.78,1.11,10.28-20.94,6.87-.6,5.92-.51-10.28,20.94Z"/><path class="cls-3" d="m112.64,64.94c0-.07,0-.13-.01-.2-.03-.14-.08-.26-.15-.38,0,0,0,0-.01-.02-.1-.17-.25-.31-.42-.41-.02-.01-.02-.03-.04-.04,0,0-.02,0-.03,0-.13-.07-.28-.12-.43-.14l-24.86-3.15c-.29-.04-.58.03-.83.18l-13.5,8.24s-.07.07-.11.1c-.02.02-.05.02-.07.04-.02.01-.02.04-.04.05-.11.11-.2.22-.26.36,0,.01-.02.02-.02.03-.06.15-.09.31-.1.47,0,.02-.01.03-.01.05l.14,26.32c0,.64.48,1.18,1.12,1.26l24.86,3.15c.05,0,.11.01.16.01.21,0,.41-.07.59-.17.02-.01.05,0,.08-.02l13.51-8.24c.38-.24.62-.65.61-1.1l-.14-26.32s-.02-.04-.02-.06Zm-38.21,30.35l-.13-23.73,22.3,2.83.04,7.34.09,16.39-22.3-2.83Zm23.16-23.36l-7.01-.89-13.78-1.75,10-6.1,20.79,2.63-2.14,1.31-7.86,4.8Zm1.69,25.37l-.12-23.32,2-1.22,8.95-5.46.12,23.32-10.95,6.68Z"/></g></svg>