<svg width="140" height="32" viewBox="0 0 140 32" fill="none" xmlns="http://www.w3.org/2000/svg">
<path d="M39.4297 23.111V10.6328H41.3101V21.2407H51.9583V23.111H39.4297Z" fill="white"/>
<path d="M53.0703 9.78516H54.9507V11.6555H53.0703V9.78516ZM53.0703 23.1118V13.0741H54.9507V23.1118H53.0703Z" fill="white"/>
<path d="M64.9019 13.0733C65.5278 13.0733 66.0623 13.2937 66.5026 13.7317C66.9429 14.1696 67.1645 14.7013 67.1645 15.3238V20.8633C67.1645 21.4858 66.9429 22.0174 66.5026 22.4554C66.0623 22.8934 65.5278 23.1137 64.9019 23.1137H56.8984V9.78711H58.7788V13.0761H64.9047L64.9019 13.0733ZM65.2841 20.8605V15.3211C65.2841 15.2164 65.2453 15.1282 65.1705 15.0539C65.0958 14.9795 65.0044 14.9409 64.9019 14.9409H59.161C59.0558 14.9409 58.9672 14.9795 58.8924 15.0539C58.8176 15.1282 58.7788 15.2191 58.7788 15.3211V20.8605C58.7788 20.9652 58.8176 21.0533 58.8924 21.1277C58.9672 21.2021 59.0585 21.2406 59.161 21.2406H64.9019C65.0071 21.2406 65.0958 21.2021 65.1705 21.1277C65.2453 21.0533 65.2841 20.9624 65.2841 20.8605Z" fill="white"/>
<path d="M76.6304 13.0732C77.2563 13.0732 77.7908 13.2936 78.2311 13.7316C78.6714 14.1696 78.893 14.7012 78.893 15.3237V19.0286H70.5074V20.8632C70.5074 20.9679 70.5461 21.056 70.6209 21.1304C70.6957 21.2048 70.7871 21.2433 70.8895 21.2433H78.893V23.1137H70.8895C70.2636 23.1137 69.7292 22.8933 69.2888 22.4553C68.8485 22.0174 68.627 21.4857 68.627 20.8632V15.3237C68.627 14.7012 68.8485 14.1696 69.2888 13.7316C69.7292 13.2936 70.2636 13.0732 70.8895 13.0732H76.6304ZM70.5046 17.1583H77.0126V15.3237C77.0126 15.2191 76.9738 15.1309 76.899 15.0565C76.8243 14.9822 76.7329 14.9436 76.6304 14.9436H70.8895C70.7843 14.9436 70.6957 14.9822 70.6209 15.0565C70.5461 15.1309 70.5074 15.2218 70.5074 15.3237V17.1583H70.5046Z" fill="white"/>
<path d="M82.7743 13.0742H88.4127V14.9446H82.7743C82.669 14.9446 82.5804 14.9831 82.5057 15.0575C82.4309 15.1319 82.3921 15.2228 82.3921 15.3247V23.1119H80.5117V15.3247C80.5117 14.7022 80.7333 14.1705 81.1736 13.7326C81.6139 13.2946 82.1484 13.0742 82.7743 13.0742Z" fill="white"/>
<path d="M102.854 12.0515H92.4494C92.2639 12.0515 92.1033 12.1176 91.9703 12.2498C91.8374 12.382 91.7709 12.5418 91.7709 12.7264V21.0342C91.7709 21.2187 91.8374 21.3785 91.9703 21.5107C92.1033 21.6429 92.2639 21.709 92.4494 21.709H102.854V23.1111H92.4494C91.8679 23.1111 91.3777 22.91 90.9706 22.5051C90.5635 22.1002 90.3613 21.6099 90.3613 21.0342V12.7264C90.3613 12.1479 90.5635 11.6603 90.9706 11.2554C91.3777 10.8505 91.8706 10.6494 92.4494 10.6494H102.854V12.0515Z" fill="white"/>
<path d="M106.472 13.0742H112.144V14.4928H106.472C106.286 14.4928 106.126 14.5589 105.993 14.6912C105.86 14.8234 105.793 14.9831 105.793 15.1677V23.1119H104.367V15.1677C104.367 14.592 104.572 14.0989 104.985 13.6885C105.397 13.2781 105.893 13.0742 106.472 13.0742Z" fill="white"/>
<path d="M121.157 13.0742C121.75 13.0742 122.251 13.2808 122.661 13.6885C123.074 14.0989 123.279 14.592 123.279 15.1677V23.1119H115.101C114.519 23.1119 114.024 22.9081 113.614 22.4976C113.201 22.0872 112.996 21.5941 112.996 21.0184V17.3851H121.836V15.1705C121.836 14.9859 121.769 14.8261 121.637 14.6939C121.504 14.5617 121.343 14.4956 121.157 14.4956H112.996V13.077H121.157V13.0742ZM121.836 21.6933V18.8037H114.422V21.0184C114.422 21.203 114.489 21.3627 114.622 21.495C114.755 21.6272 114.915 21.6933 115.101 21.6933H121.836Z" fill="white"/>
<path d="M127.019 11.2026C126.833 11.2026 126.673 11.2687 126.54 11.4009C126.407 11.5332 126.34 11.6929 126.34 11.8775V13.0702H130.708V14.4888H126.34V23.1079H124.914V11.8747C124.914 11.2852 125.116 10.7894 125.523 10.3873C125.93 9.98233 126.429 9.78125 127.019 9.78125H130.708V11.1999H127.019V11.2026Z" fill="white"/>
<path d="M139.008 14.4927H134.641V21.0183C134.641 21.2029 134.708 21.3626 134.84 21.4949C134.973 21.6271 135.134 21.6932 135.32 21.6932H139.008V23.1118H135.32C134.727 23.1118 134.228 22.908 133.824 22.4975C133.417 22.0871 133.215 21.594 133.215 21.0183V9.78516H134.641V13.0741H139.008V14.4927Z" fill="white"/>
<path d="M22.4951 27.7884L21.7861 27.7002L21.7944 29.1298L18.762 30.9699L18.7287 24.5462L19.2826 24.2102L20.2463 23.6234L20.2408 22.7998L18.2912 23.9843L16.3498 23.7391L12.5337 23.2571L13.3977 22.7337L13.7993 22.4913L15.3058 21.5768L20.2408 22.1993V21.4886L15.2726 20.8634C15.1922 20.8523 15.1119 20.8716 15.0427 20.9129L13.7965 21.6705L13.7882 20.0453C13.7882 20.0453 13.7826 20.0342 13.7826 20.0287C13.7826 20.0094 13.7826 19.9929 13.7799 19.9736C13.7716 19.9351 13.7577 19.902 13.7383 19.869C13.7383 19.869 13.7383 19.869 13.7356 19.8634C13.7079 19.8166 13.6663 19.7781 13.6192 19.7505C13.6137 19.7478 13.6137 19.7422 13.6082 19.7395C13.6082 19.7395 13.6026 19.7395 13.5999 19.7395C13.5639 19.7202 13.5223 19.7064 13.4808 19.7009L10.1382 19.2795L11.2154 18.6266C11.3207 18.5605 11.3871 18.4476 11.3844 18.3236L11.3456 11.2389L11.6973 11.0268L11.6918 10.2032L10.8111 10.7375L10.1769 11.1232V11.0984L10.1437 4.69675L10.6976 4.3607L13.1761 2.8567L13.1817 3.88415L13.8879 3.45444L13.8823 2.22865C13.8823 2.22865 13.8768 2.21764 13.8768 2.21213C13.8768 2.19284 13.8768 2.17632 13.874 2.15703C13.8657 2.11847 13.8519 2.08542 13.8325 2.05236C13.8325 2.05236 13.8325 2.05236 13.8297 2.04685C13.802 2.00002 13.7605 1.96146 13.7134 1.93391C13.7079 1.93116 13.7079 1.92565 13.7023 1.9229C13.7023 1.9229 13.6968 1.9229 13.694 1.9229C13.658 1.90361 13.6165 1.88984 13.5749 1.88433L6.68475 1.00011C6.60444 0.991849 6.52413 1.00838 6.4549 1.0497L2.71625 3.31947C2.71625 3.31947 2.69687 3.33875 2.68579 3.34701C2.68025 3.35252 2.67194 3.35252 2.6664 3.35803C2.66086 3.36078 2.66086 3.36905 2.65533 3.3718C2.62486 3.4021 2.59994 3.4324 2.58332 3.47097C2.58332 3.47372 2.57778 3.47648 2.57778 3.47923C2.56117 3.52055 2.55286 3.56462 2.55009 3.6087C2.55009 3.61421 2.54732 3.61696 2.54732 3.62247L2.58609 10.7072L0.176744 12.1672C0.176744 12.1672 0.157358 12.1864 0.146281 12.1947C0.140742 12.2002 0.132434 12.2002 0.126895 12.2057C0.121356 12.2085 0.121356 12.2167 0.115818 12.2195C0.0853547 12.2498 0.0604304 12.2801 0.0438143 12.3187C0.0438143 12.3214 0.0382755 12.3242 0.0382755 12.3269C0.0216593 12.3682 0.0133512 12.4123 0.0105819 12.4564C0.0105819 12.4619 0.0078125 12.4647 0.0078125 12.4702L0.0465836 19.7175C0.0465836 19.8937 0.179513 20.0425 0.356753 20.0645L3.69938 20.486L2.62209 21.1388C2.62209 21.1388 2.60271 21.1581 2.59163 21.1664C2.58609 21.1719 2.57778 21.1719 2.57225 21.1774C2.56671 21.1801 2.56671 21.1884 2.56117 21.1912C2.5307 21.2215 2.50578 21.2518 2.48916 21.2903C2.48916 21.2931 2.48363 21.2958 2.48363 21.2986C2.46701 21.3399 2.4587 21.384 2.45593 21.428C2.45593 21.4336 2.45316 21.4363 2.45316 21.4418L2.49193 28.6919C2.49193 28.8682 2.62486 29.0169 2.8021 29.0389L9.68675 29.9066C9.70059 29.9066 9.71721 29.9094 9.73106 29.9094C9.78921 29.9094 9.8446 29.8901 9.89445 29.8653C9.89999 29.8626 9.90829 29.8653 9.9166 29.8598L11.1628 29.1023L11.1711 30.7275C11.1711 30.9038 11.3041 31.0525 11.4813 31.0746L18.3659 31.9423C18.3798 31.9423 18.3964 31.945 18.4102 31.945C18.4684 31.945 18.5238 31.9257 18.5736 31.8982C18.5792 31.8954 18.5875 31.8982 18.5958 31.8927L22.3344 29.6229C22.4397 29.5568 22.5061 29.4439 22.5034 29.3199L22.4951 27.7829V27.7884ZM10.6366 11.6934L10.6699 18.117L7.63741 19.9599L7.60418 13.5334L8.10267 13.2304L10.6366 11.6934ZM6.71799 1.7163L12.4755 2.44076L11.8829 2.80161L9.70613 4.1238L7.76481 3.87864L3.94862 3.39659L6.71799 1.7163ZM9.43196 4.80143L9.44304 6.82329L9.46797 11.338L3.29228 10.5585L3.25628 4.02188L9.43196 4.80143ZM3.06796 11.2416L8.82547 11.9661L7.16939 12.9715L5.58808 12.7732L1.41188 12.247L3.06796 11.2416ZM0.755541 19.4089L0.719539 12.8723L6.89523 13.6519L6.9063 15.671L6.93123 20.1885L0.755541 19.4089ZM3.19812 28.3834L3.16212 21.8467L9.3378 22.6263L9.34888 24.6481L9.37381 29.1629L3.19812 28.3834ZM9.61197 21.9487L7.67065 21.7035L3.85446 21.2215L4.82651 20.632L7.2414 20.9377C7.25524 20.9377 7.27186 20.9405 7.28571 20.9405C7.34386 20.9405 7.39925 20.9212 7.4491 20.8964C7.45464 20.8937 7.46294 20.8964 7.47125 20.8909L9.16334 19.8634L12.3813 20.2684L11.7887 20.6292L9.61197 21.9514V21.9487ZM11.3013 23.18C11.3013 23.18 11.2819 23.1992 11.2708 23.2075C11.2653 23.213 11.257 23.213 11.2514 23.2185C11.2459 23.2213 11.2459 23.2295 11.2404 23.2323C11.2099 23.2626 11.185 23.2929 11.1684 23.3315C11.1684 23.3342 11.1628 23.337 11.1628 23.3397C11.1462 23.381 11.1379 23.4251 11.1351 23.4692C11.1351 23.4747 11.1324 23.4775 11.1324 23.483L11.1573 28.2842L10.0828 28.937L10.0495 22.5134L10.6034 22.1773L13.082 20.6733L13.0903 22.0974L11.3041 23.1827L11.3013 23.18ZM11.8773 30.419L11.8413 23.8824L18.017 24.6619L18.0281 26.8491L18.0502 31.1985L11.8745 30.419H11.8773Z" fill="white"/>
<path d="M33.6194 5.09915C33.6139 5.04406 33.5945 4.99172 33.564 4.94214C33.5613 4.93663 33.564 4.93112 33.5585 4.92836C33.5585 4.92836 33.553 4.92561 33.553 4.92285C33.528 4.8898 33.5003 4.8595 33.4643 4.83471L27.6874 1.00585C27.621 0.961774 27.5434 0.939737 27.4603 0.948001L23.0958 1.32538C23.0958 1.32538 23.0709 1.33364 23.0571 1.33364C23.0488 1.33364 23.0404 1.33364 23.0349 1.33364C23.0294 1.33364 23.0238 1.33915 23.0183 1.34191C22.9795 1.35568 22.9435 1.37221 22.9103 1.397C22.9075 1.397 22.9047 1.39975 22.8992 1.40251C22.866 1.43005 22.8383 1.46586 22.8161 1.50718C22.8161 1.51269 22.8106 1.51544 22.8078 1.5182L22.0739 3.00567L15.4441 2.17103C15.3638 2.16001 15.2834 2.1793 15.2142 2.22062L11.4756 4.49039C11.4756 4.49039 11.4562 4.50967 11.4451 4.51793C11.4396 4.52344 11.4313 4.52344 11.4257 4.52895C11.4202 4.5317 11.4202 4.53997 11.4146 4.54272C11.3842 4.57302 11.3593 4.60332 11.3426 4.64189C11.3426 4.64464 11.3371 4.6474 11.3371 4.65015C11.3205 4.69147 11.3122 4.73554 11.3094 4.77962C11.3094 4.78513 11.3066 4.78788 11.3066 4.79339L11.3454 12.0434C11.3454 12.2197 11.4783 12.3685 11.6556 12.3905L18.5402 13.2582C18.5541 13.2582 18.5707 13.261 18.5845 13.261C18.6427 13.261 18.6981 13.2417 18.7479 13.2141C18.7535 13.2114 18.7618 13.2141 18.7701 13.2086L22.5115 10.9388C22.6167 10.8727 22.6832 10.7598 22.6804 10.6358V10.4348L25.4969 12.3024C25.5052 12.3079 25.5107 12.3079 25.519 12.3134C25.5273 12.3189 25.5356 12.3216 25.5467 12.3272C25.5938 12.3492 25.6436 12.363 25.6935 12.363C25.7046 12.363 25.7129 12.363 25.724 12.363L30.0885 11.9883C30.2131 11.9773 30.3211 11.903 30.3765 11.7928L33.589 5.28646C33.589 5.28646 33.589 5.27544 33.5917 5.26993C33.6 5.2534 33.6083 5.23688 33.6139 5.22035C33.6222 5.18454 33.6277 5.14598 33.625 5.11017C33.625 5.11017 33.625 5.10741 33.625 5.10466L33.6194 5.09915ZM27.3967 1.66144L32.2264 4.86225L31.2128 4.9504L28.9946 5.14047L26.2335 3.31143L24.1648 1.93965L27.3967 1.66144ZM12.0488 11.7294L12.0128 5.1928L18.1885 5.97235L18.1996 7.99421L18.2245 12.509L12.0488 11.7294ZM18.4627 5.29472L16.5214 5.04957L12.7052 4.56751L15.4745 2.88722L21.232 3.61168L20.6394 3.97253L18.4627 5.29472ZM18.9307 12.2831L18.8975 5.85941L19.4513 5.52335L21.4204 4.32787L19.5926 8.03002C19.515 8.18978 19.5677 8.37985 19.7144 8.47901L21.9604 9.96648V10.443L18.9307 12.2831ZM25.5467 11.4925L20.3652 8.06032L23.262 2.19031L23.4448 2.31152L28.4407 5.62252L25.5439 11.4898L25.5467 11.4925ZM29.8226 11.2997L26.2834 11.6055L29.1303 5.83737L31.0328 5.6721L32.6723 5.53162L29.8254 11.2997H29.8226Z" fill="white"/>
<path d="M31.2028 18.8362C31.2028 18.817 31.2028 18.8004 31.2001 18.7811C31.1918 18.7426 31.1779 18.7095 31.1585 18.6765C31.1585 18.6765 31.1585 18.6765 31.1558 18.671C31.1281 18.6241 31.0865 18.5856 31.0395 18.558C31.0339 18.5553 31.0339 18.5498 31.0284 18.547C31.0284 18.547 31.0228 18.547 31.0201 18.547C30.9841 18.5277 30.9425 18.514 30.901 18.5084L24.0163 17.6408C23.936 17.6297 23.8557 17.649 23.7865 17.6903L20.0478 19.9601C20.0478 19.9601 20.0285 19.9794 20.0174 19.9877C20.0118 19.9932 20.0035 19.9932 19.998 19.9987C19.9925 20.0014 19.9925 20.0097 19.9869 20.0124C19.9564 20.0427 19.9315 20.073 19.9149 20.1116C19.9149 20.1144 19.9094 20.1171 19.9094 20.1199C19.8928 20.1612 19.8844 20.2053 19.8817 20.2493C19.8817 20.2548 19.8789 20.2576 19.8789 20.2631L19.9177 27.5132C19.9177 27.6894 20.0506 27.8382 20.2278 27.8602L27.1125 28.7279C27.1263 28.7279 27.143 28.7279 27.1568 28.7279C27.215 28.7279 27.2703 28.7086 27.3202 28.6811C27.3257 28.6783 27.334 28.6811 27.3423 28.6756L31.0838 26.4058C31.189 26.3397 31.2555 26.2268 31.2527 26.1028L31.2139 18.8528C31.2139 18.8528 31.2084 18.8417 31.2084 18.8362H31.2028ZM20.6211 27.1964L20.5851 20.6598L26.7608 21.4393L26.7719 23.4612L26.7968 27.9759L20.6211 27.1964ZM27.0349 20.7617L25.0936 20.5165L21.2774 20.0345L24.0468 18.3542L29.8043 19.0786L29.2117 19.4395L27.0349 20.7617ZM27.503 27.75L27.4697 21.3264L28.0236 20.9903L30.5022 19.4863L30.5354 25.91L27.503 27.75Z" fill="white"/>
</svg>
