<svg width="299" height="91" viewBox="0 0 299 91" fill="none" xmlns="http://www.w3.org/2000/svg">
<mask id="mask0_131_1638" style="mask-type:alpha" maskUnits="userSpaceOnUse" x="0" y="0" width="299" height="91">
<path d="M0.0117188 0.370605H298.578V90.4585H0.0117188V0.370605Z" fill="#D9D9D9"/>
</mask>
<g mask="url(#mask0_131_1638)">
<path d="M149.454 90.4585L0.177559 0.915539L298.73 0.915565L149.454 90.4585Z" fill="#43B2CA"/>
<path d="M107.163 22.6874C108.155 22.7834 109.083 22.8154 110.171 22.8154C111.515 22.8154 117.467 22.5274 119.387 22.3034C120.411 22.2074 121.147 22.0474 121.595 21.9194L124.091 24.8314C123.451 25.2794 122.267 26.0474 121.627 26.5914C119.355 28.3834 116.219 31.0074 114.075 32.7034C118.331 32.2554 123.547 31.9354 127.419 31.9354V35.6794C124.379 35.4874 121.211 35.4874 119.291 35.7434C116.379 36.1594 113.947 38.2074 113.947 40.7994C113.947 43.2954 115.899 44.2554 118.747 44.6074C120.507 44.7994 122.395 44.7674 123.579 44.6714L122.747 48.8314C114.619 49.1834 109.883 46.7514 109.883 41.4714C109.883 39.5194 111.035 37.5674 112.187 36.4794C109.307 36.7034 105.755 37.1834 102.587 37.7274L102.203 33.8874C103.899 33.7274 106.107 33.4394 107.739 33.2474C110.587 31.3914 114.715 27.8074 116.667 26.0474C115.387 26.1434 111.483 26.3354 110.203 26.4634C109.403 26.5274 108.347 26.6554 107.355 26.7514L107.163 22.6874Z" fill="white"/>
<path d="M139.867 28.1274V23.9034C142.235 24.1594 145.179 24.2874 148.507 24.2874C151.643 24.2874 155.259 24.0954 157.691 23.8394V28.0954C155.483 28.2554 151.547 28.4794 148.539 28.4794C145.211 28.4794 142.459 28.3194 139.867 28.1274ZM138.395 36.9594L142.555 37.3434C142.267 38.4954 142.011 39.4874 142.011 40.5434C142.011 42.5594 143.931 44.0314 148.507 44.0314C152.795 44.0314 156.827 43.5514 159.643 42.7834L159.675 47.2314C156.923 47.9034 153.115 48.3194 148.667 48.3194C141.403 48.3194 137.755 45.8874 137.755 41.5354C137.755 39.6794 138.139 38.1434 138.395 36.9594Z" fill="white"/>
<path d="M190.107 30.4634C190.875 31.6154 192.059 33.5354 192.667 34.8154L190.235 35.9034C189.435 34.1434 188.763 32.8954 187.739 31.4554L190.107 30.4634ZM193.691 28.9914C194.491 30.1114 195.707 31.9994 196.379 33.2474L193.979 34.3994C193.115 32.6714 192.379 31.4874 191.355 30.0794L193.691 28.9914ZM168.763 25.2154C170.043 25.1834 171.259 25.1194 171.867 25.0554C174.523 24.8314 179.771 24.3514 185.563 23.8394C188.827 23.5834 192.283 23.3914 194.523 23.2954L194.555 27.3914C192.859 27.3914 190.139 27.4234 188.443 27.8074C184.603 28.8314 181.755 32.9274 181.755 36.6714C181.755 41.8874 186.619 43.7754 191.995 44.0314L190.523 48.4154C183.867 47.9994 177.595 44.4154 177.595 37.5354C177.595 32.9594 180.123 29.3754 182.267 27.7754C179.515 28.0634 172.859 28.7674 169.179 29.5674L168.763 25.2154Z" fill="white"/>
</g>
</svg>
