<svg width="91" height="91" viewBox="0 0 91 91" fill="none" xmlns="http://www.w3.org/2000/svg">
<path d="M91 45.5C91 70.629 70.629 91 45.5 91C20.371 91 0 70.629 0 45.5C0 20.371 20.371 0 45.5 0C70.629 0 91 20.371 91 45.5Z" fill="#ED7973"/>
<path d="M19.931 33.109L15.8363 32.1464L17.1808 20.7789H30.1832V24.7819H21.3825L20.8783 29.1975C21.1228 29.0549 21.5353 28.8869 22.1159 28.6933C22.7067 28.4896 23.3586 28.3878 24.0716 28.3878C25.1717 28.3878 26.1444 28.5558 26.9899 28.892C27.8455 29.2179 28.5687 29.7018 29.1595 30.3435C29.7503 30.975 30.1934 31.7542 30.4887 32.6811C30.7943 33.6081 30.9471 34.6674 30.9471 35.8592C30.9471 36.8166 30.7892 37.7436 30.4735 38.6399C30.1679 39.5261 29.6942 40.3257 29.0525 41.0387C28.421 41.7415 27.6214 42.3018 26.6537 42.7194C25.6861 43.1268 24.5402 43.3306 23.216 43.3306C22.2279 43.3306 21.2654 43.1778 20.3283 42.8722C19.3912 42.5666 18.5457 42.1286 17.792 41.5582C17.0484 40.9776 16.4576 40.2799 16.0196 39.465C15.5918 38.6399 15.383 37.7181 15.3932 36.6995H20.5727C20.6033 37.2394 20.7306 37.7079 20.9547 38.1052C21.1788 38.5024 21.4793 38.8131 21.8562 39.0372C22.2432 39.2511 22.6863 39.358 23.1854 39.358C23.6947 39.358 24.1174 39.2562 24.4536 39.0525C24.7897 38.8487 25.0545 38.5686 25.2481 38.2121C25.4416 37.8556 25.5791 37.4482 25.6606 36.9898C25.7421 36.5212 25.7828 36.0272 25.7828 35.5077C25.7828 34.9577 25.7217 34.4637 25.5995 34.0257C25.4875 33.5877 25.3041 33.2159 25.0495 32.9103C24.7948 32.5946 24.4638 32.3552 24.0563 32.1922C23.6591 32.0292 23.1803 31.9478 22.6201 31.9478C21.8765 31.9478 21.2908 32.0751 20.863 32.3297C20.4352 32.5844 20.1245 32.8441 19.931 33.109Z" fill="white"/>
<path d="M50.6936 29.8698V33.934C50.6936 35.5332 50.5052 36.9236 50.1283 38.1052C49.7616 39.2867 49.2319 40.2646 48.5393 41.0387C47.8568 41.8128 47.0419 42.3883 46.0946 42.7652C45.1473 43.1421 44.1033 43.3306 42.9625 43.3306C42.0457 43.3306 41.1901 43.2134 40.3956 42.9791C39.6011 42.7347 38.883 42.368 38.2413 41.8791C37.6097 41.3799 37.0648 40.7586 36.6064 40.015C36.1481 39.2715 35.7966 38.3955 35.5522 37.3871C35.3077 36.3685 35.1855 35.2174 35.1855 33.934V29.8698C35.1855 28.2604 35.3688 26.8701 35.7355 25.6987C36.1124 24.5171 36.6472 23.5393 37.3398 22.7651C38.0325 21.991 38.8524 21.4155 39.7997 21.0386C40.747 20.6617 41.7911 20.4733 42.9319 20.4733C43.8486 20.4733 44.6992 20.5955 45.4835 20.84C46.278 21.0743 46.9961 21.441 47.6378 21.9401C48.2795 22.429 48.8245 23.0452 49.2727 23.7888C49.731 24.5324 50.0824 25.4135 50.3269 26.4321C50.5714 27.4405 50.6936 28.5864 50.6936 29.8698ZM45.5446 34.5605V29.2128C45.5446 28.4998 45.5039 27.8785 45.4224 27.3488C45.3511 26.8191 45.239 26.371 45.0862 26.0043C44.9436 25.6376 44.7654 25.3422 44.5515 25.1181C44.3376 24.8838 44.0931 24.7157 43.8181 24.6139C43.5532 24.5018 43.2579 24.4458 42.9319 24.4458C42.5245 24.4458 42.1578 24.5324 41.8318 24.7055C41.5161 24.8685 41.2461 25.1334 41.022 25.5001C40.7979 25.8667 40.6248 26.3557 40.5026 26.9668C40.3905 27.578 40.3345 28.3267 40.3345 29.2128V34.5605C40.3345 35.2837 40.3701 35.9152 40.4414 36.455C40.5229 36.9847 40.635 37.438 40.7776 37.8149C40.9304 38.1816 41.1137 38.482 41.3276 38.7163C41.5415 38.9404 41.786 39.1034 42.061 39.2052C42.336 39.3071 42.6365 39.358 42.9625 39.358C43.3597 39.358 43.7162 39.2765 44.032 39.1136C44.3477 38.9506 44.6177 38.6858 44.8418 38.3191C45.076 37.9422 45.2492 37.4482 45.3612 36.837C45.4835 36.2157 45.5446 35.4568 45.5446 34.5605Z" fill="white"/>
<path d="M54.9778 26.2334V25.057C54.9778 24.2115 55.1611 23.4425 55.5278 22.7498C55.8945 22.0572 56.4446 21.5021 57.178 21.0844C57.9114 20.6668 58.823 20.458 59.9129 20.458C61.0333 20.458 61.9603 20.6668 62.6937 21.0844C63.427 21.5021 63.972 22.0572 64.3285 22.7498C64.6952 23.4425 64.8785 24.2115 64.8785 25.057V26.2334C64.8785 27.0585 64.6952 27.8174 64.3285 28.51C63.972 29.2026 63.427 29.7578 62.6937 30.1754C61.9705 30.593 61.0588 30.8018 59.9587 30.8018C58.8485 30.8018 57.9266 30.593 57.1932 30.1754C56.4599 29.7578 55.9047 29.2026 55.5278 28.51C55.1611 27.8174 54.9778 27.0585 54.9778 26.2334ZM58.278 25.057V26.2334C58.278 26.539 58.3392 26.8293 58.4614 27.1043C58.5836 27.3794 58.767 27.6034 59.0114 27.7766C59.2661 27.9396 59.5768 28.0211 59.9435 28.0211C60.3203 28.0211 60.6259 27.9396 60.8602 27.7766C61.0945 27.6034 61.2676 27.3794 61.3797 27.1043C61.5019 26.8293 61.563 26.539 61.563 26.2334V25.057C61.563 24.731 61.5019 24.4305 61.3797 24.1555C61.2676 23.8805 61.0894 23.6615 60.8449 23.4985C60.6004 23.3254 60.2898 23.2388 59.9129 23.2388C59.5564 23.2388 59.2559 23.3254 59.0114 23.4985C58.767 23.6615 58.5836 23.8805 58.4614 24.1555C58.3392 24.4305 58.278 24.731 58.278 25.057ZM65.5355 38.7469V37.5704C65.5355 36.7351 65.7189 35.9712 66.0856 35.2786C66.4625 34.5859 67.0176 34.0308 67.751 33.6132C68.4946 33.1955 69.4113 32.9867 70.5012 32.9867C71.6216 32.9867 72.5435 33.1955 73.2667 33.6132C74.0001 34.0308 74.545 34.5859 74.9015 35.2786C75.2682 35.9712 75.4516 36.7351 75.4516 37.5704V38.7469C75.4516 39.5821 75.2682 40.3461 74.9015 41.0387C74.545 41.7314 74.0052 42.2865 73.2819 42.7041C72.5587 43.1217 71.6471 43.3306 70.547 43.3306C69.4368 43.3306 68.5098 43.1217 67.7663 42.7041C67.0227 42.2865 66.4625 41.7314 66.0856 41.0387C65.7189 40.3461 65.5355 39.5821 65.5355 38.7469ZM68.8511 37.5704V38.7469C68.8511 39.0626 68.9275 39.358 69.0802 39.6331C69.233 39.9081 69.4368 40.1322 69.6914 40.3053C69.9461 40.4683 70.2262 40.5498 70.5317 40.5498C71.0003 40.5498 71.3466 40.4683 71.5707 40.3053C71.805 40.1322 71.9578 39.9081 72.0291 39.6331C72.1106 39.358 72.1513 39.0626 72.1513 38.7469V37.5704C72.1513 37.2546 72.0902 36.9592 71.968 36.6842C71.8457 36.4092 71.6624 36.1902 71.4179 36.0272C71.1735 35.8541 70.8679 35.7675 70.5012 35.7675C70.1345 35.7675 69.8289 35.8541 69.5844 36.0272C69.34 36.1902 69.1566 36.4092 69.0344 36.6842C68.9122 36.9592 68.8511 37.2546 68.8511 37.5704ZM71.7846 23.9722L60.9213 41.3596L58.5225 40.1525L69.3858 22.7651L71.7846 23.9722Z" fill="white"/>
<path d="M34.6752 59.9836V60.885C34.6752 62.5861 34.4358 64.114 33.9571 65.4687C33.4885 66.8133 32.8213 67.9643 31.9555 68.9218C31.0897 69.8691 30.066 70.5973 28.8845 71.1066C27.7029 71.6058 26.3991 71.8553 24.973 71.8553C23.5368 71.8553 22.2228 71.6058 21.0311 71.1066C19.8495 70.5973 18.8207 69.8691 17.9447 68.9218C17.0789 67.9643 16.4067 66.8133 15.9279 65.4687C15.4594 64.114 15.2251 62.5861 15.2251 60.885V59.9836C15.2251 58.2825 15.4594 56.7546 15.9279 55.3999C16.4067 54.0452 17.0738 52.8942 17.9295 51.9469C18.7953 50.9894 19.819 50.2611 21.0005 49.762C22.1923 49.2527 23.5063 48.998 24.9425 48.998C26.3685 48.998 27.6723 49.2527 28.8539 49.762C30.0456 50.2611 31.0744 50.9894 31.9402 51.9469C32.806 52.8942 33.4783 54.0452 33.9571 55.3999C34.4358 56.7546 34.6752 58.2825 34.6752 59.9836ZM29.2359 60.885V59.953C29.2359 58.8529 29.1391 57.8853 28.9456 57.05C28.7622 56.2046 28.4872 55.4967 28.1205 54.9263C27.7538 54.3559 27.3005 53.928 26.7607 53.6428C26.231 53.3474 25.6249 53.1997 24.9425 53.1997C24.2295 53.1997 23.6081 53.3474 23.0785 53.6428C22.5488 53.928 22.1057 54.3559 21.7492 54.9263C21.3927 55.4967 21.1228 56.2046 20.9394 57.05C20.7663 57.8853 20.6797 58.8529 20.6797 59.953V60.885C20.6797 61.9749 20.7663 62.9426 20.9394 63.788C21.1228 64.6233 21.3927 65.3312 21.7492 65.9118C22.1159 66.4924 22.5641 66.9304 23.0937 67.2258C23.6336 67.5212 24.26 67.6689 24.973 67.6689C25.6555 67.6689 26.2616 67.5212 26.7912 67.2258C27.3209 66.9304 27.764 66.4924 28.1205 65.9118C28.4872 65.3312 28.7622 64.6233 28.9456 63.788C29.1391 62.9426 29.2359 61.9749 29.2359 60.885Z" fill="white"/>
<path d="M44.3834 49.3036V71.5497H39.0205V49.3036H44.3834ZM53.0313 58.5627V62.688H42.8555V58.5627H53.0313ZM53.9022 49.3036V53.4442H42.8555V49.3036H53.9022Z" fill="white"/>
<path d="M63.0603 49.3036V71.5497H57.6974V49.3036H63.0603ZM71.7082 58.5627V62.688H61.5324V58.5627H71.7082ZM72.5791 49.3036V53.4442H61.5324V49.3036H72.5791Z" fill="white"/>
<path d="M91 45.5C91 70.629 70.629 91 45.5 91C20.371 91 0 70.629 0 45.5C0 20.371 20.371 0 45.5 0C70.629 0 91 20.371 91 45.5Z" fill="#ED7973"/>
<path d="M19.931 33.109L15.8363 32.1464L17.1808 20.7789H30.1832V24.7819H21.3825L20.8783 29.1975C21.1228 29.0549 21.5353 28.8869 22.1159 28.6933C22.7067 28.4896 23.3586 28.3878 24.0716 28.3878C25.1717 28.3878 26.1444 28.5558 26.9899 28.892C27.8455 29.2179 28.5687 29.7018 29.1595 30.3435C29.7503 30.975 30.1934 31.7542 30.4887 32.6811C30.7943 33.6081 30.9471 34.6674 30.9471 35.8592C30.9471 36.8166 30.7892 37.7436 30.4735 38.6399C30.1679 39.5261 29.6942 40.3257 29.0525 41.0387C28.421 41.7415 27.6214 42.3018 26.6537 42.7194C25.6861 43.1268 24.5402 43.3306 23.216 43.3306C22.2279 43.3306 21.2654 43.1778 20.3283 42.8722C19.3912 42.5666 18.5457 42.1286 17.792 41.5582C17.0484 40.9776 16.4576 40.2799 16.0196 39.465C15.5918 38.6399 15.383 37.7181 15.3932 36.6995H20.5727C20.6033 37.2394 20.7306 37.7079 20.9547 38.1052C21.1788 38.5024 21.4793 38.8131 21.8562 39.0372C22.2432 39.2511 22.6863 39.358 23.1854 39.358C23.6947 39.358 24.1174 39.2562 24.4536 39.0525C24.7897 38.8487 25.0545 38.5686 25.2481 38.2121C25.4416 37.8556 25.5791 37.4482 25.6606 36.9898C25.7421 36.5212 25.7828 36.0272 25.7828 35.5077C25.7828 34.9577 25.7217 34.4637 25.5995 34.0257C25.4875 33.5877 25.3041 33.2159 25.0495 32.9103C24.7948 32.5946 24.4638 32.3552 24.0563 32.1922C23.6591 32.0292 23.1803 31.9478 22.6201 31.9478C21.8765 31.9478 21.2908 32.0751 20.863 32.3297C20.4352 32.5844 20.1245 32.8441 19.931 33.109Z" fill="white"/>
<path d="M50.6936 29.8698V33.934C50.6936 35.5332 50.5052 36.9236 50.1283 38.1052C49.7616 39.2867 49.2319 40.2646 48.5393 41.0387C47.8568 41.8128 47.0419 42.3883 46.0946 42.7652C45.1473 43.1421 44.1033 43.3306 42.9625 43.3306C42.0457 43.3306 41.1901 43.2134 40.3956 42.9791C39.6011 42.7347 38.883 42.368 38.2413 41.8791C37.6097 41.3799 37.0648 40.7586 36.6064 40.015C36.1481 39.2715 35.7966 38.3955 35.5522 37.3871C35.3077 36.3685 35.1855 35.2174 35.1855 33.934V29.8698C35.1855 28.2604 35.3688 26.8701 35.7355 25.6987C36.1124 24.5171 36.6472 23.5393 37.3398 22.7651C38.0325 21.991 38.8524 21.4155 39.7997 21.0386C40.747 20.6617 41.7911 20.4733 42.9319 20.4733C43.8486 20.4733 44.6992 20.5955 45.4835 20.84C46.278 21.0743 46.9961 21.441 47.6378 21.9401C48.2795 22.429 48.8245 23.0452 49.2727 23.7888C49.731 24.5324 50.0824 25.4135 50.3269 26.4321C50.5714 27.4405 50.6936 28.5864 50.6936 29.8698ZM45.5446 34.5605V29.2128C45.5446 28.4998 45.5039 27.8785 45.4224 27.3488C45.3511 26.8191 45.239 26.371 45.0862 26.0043C44.9436 25.6376 44.7654 25.3422 44.5515 25.1181C44.3376 24.8838 44.0931 24.7157 43.8181 24.6139C43.5532 24.5018 43.2579 24.4458 42.9319 24.4458C42.5245 24.4458 42.1578 24.5324 41.8318 24.7055C41.5161 24.8685 41.2461 25.1334 41.022 25.5001C40.7979 25.8667 40.6248 26.3557 40.5026 26.9668C40.3905 27.578 40.3345 28.3267 40.3345 29.2128V34.5605C40.3345 35.2837 40.3701 35.9152 40.4414 36.455C40.5229 36.9847 40.635 37.438 40.7776 37.8149C40.9304 38.1816 41.1137 38.482 41.3276 38.7163C41.5415 38.9404 41.786 39.1034 42.061 39.2052C42.336 39.3071 42.6365 39.358 42.9625 39.358C43.3597 39.358 43.7162 39.2765 44.032 39.1136C44.3477 38.9506 44.6177 38.6858 44.8418 38.3191C45.076 37.9422 45.2492 37.4482 45.3612 36.837C45.4835 36.2157 45.5446 35.4568 45.5446 34.5605Z" fill="white"/>
<path d="M54.9778 26.2334V25.057C54.9778 24.2115 55.1611 23.4425 55.5278 22.7498C55.8945 22.0572 56.4446 21.5021 57.178 21.0844C57.9114 20.6668 58.823 20.458 59.9129 20.458C61.0333 20.458 61.9603 20.6668 62.6937 21.0844C63.427 21.5021 63.972 22.0572 64.3285 22.7498C64.6952 23.4425 64.8785 24.2115 64.8785 25.057V26.2334C64.8785 27.0585 64.6952 27.8174 64.3285 28.51C63.972 29.2026 63.427 29.7578 62.6937 30.1754C61.9705 30.593 61.0588 30.8018 59.9587 30.8018C58.8485 30.8018 57.9266 30.593 57.1932 30.1754C56.4599 29.7578 55.9047 29.2026 55.5278 28.51C55.1611 27.8174 54.9778 27.0585 54.9778 26.2334ZM58.278 25.057V26.2334C58.278 26.539 58.3392 26.8293 58.4614 27.1043C58.5836 27.3794 58.767 27.6034 59.0114 27.7766C59.2661 27.9396 59.5768 28.0211 59.9435 28.0211C60.3203 28.0211 60.6259 27.9396 60.8602 27.7766C61.0945 27.6034 61.2676 27.3794 61.3797 27.1043C61.5019 26.8293 61.563 26.539 61.563 26.2334V25.057C61.563 24.731 61.5019 24.4305 61.3797 24.1555C61.2676 23.8805 61.0894 23.6615 60.8449 23.4985C60.6004 23.3254 60.2898 23.2388 59.9129 23.2388C59.5564 23.2388 59.2559 23.3254 59.0114 23.4985C58.767 23.6615 58.5836 23.8805 58.4614 24.1555C58.3392 24.4305 58.278 24.731 58.278 25.057ZM65.5355 38.7469V37.5704C65.5355 36.7351 65.7189 35.9712 66.0856 35.2786C66.4625 34.5859 67.0176 34.0308 67.751 33.6132C68.4946 33.1955 69.4113 32.9867 70.5012 32.9867C71.6216 32.9867 72.5435 33.1955 73.2667 33.6132C74.0001 34.0308 74.545 34.5859 74.9015 35.2786C75.2682 35.9712 75.4516 36.7351 75.4516 37.5704V38.7469C75.4516 39.5821 75.2682 40.3461 74.9015 41.0387C74.545 41.7314 74.0052 42.2865 73.2819 42.7041C72.5587 43.1217 71.6471 43.3306 70.547 43.3306C69.4368 43.3306 68.5098 43.1217 67.7663 42.7041C67.0227 42.2865 66.4625 41.7314 66.0856 41.0387C65.7189 40.3461 65.5355 39.5821 65.5355 38.7469ZM68.8511 37.5704V38.7469C68.8511 39.0626 68.9275 39.358 69.0802 39.6331C69.233 39.9081 69.4368 40.1322 69.6914 40.3053C69.9461 40.4683 70.2262 40.5498 70.5317 40.5498C71.0003 40.5498 71.3466 40.4683 71.5707 40.3053C71.805 40.1322 71.9578 39.9081 72.0291 39.6331C72.1106 39.358 72.1513 39.0626 72.1513 38.7469V37.5704C72.1513 37.2546 72.0902 36.9592 71.968 36.6842C71.8457 36.4092 71.6624 36.1902 71.4179 36.0272C71.1735 35.8541 70.8679 35.7675 70.5012 35.7675C70.1345 35.7675 69.8289 35.8541 69.5844 36.0272C69.34 36.1902 69.1566 36.4092 69.0344 36.6842C68.9122 36.9592 68.8511 37.2546 68.8511 37.5704ZM71.7846 23.9722L60.9213 41.3596L58.5225 40.1525L69.3858 22.7651L71.7846 23.9722Z" fill="white"/>
<path d="M34.5196 60.4357V61.3372C34.5196 63.0382 34.2803 64.5661 33.8015 65.9209C33.333 67.2654 32.6658 68.4164 31.8 69.3739C30.9342 70.3212 29.9105 71.0495 28.7289 71.5588C27.5474 72.0579 26.2436 72.3075 24.8175 72.3075C23.3813 72.3075 22.0673 72.0579 20.8756 71.5588C19.694 71.0495 18.6652 70.3212 17.7892 69.3739C16.9234 68.4164 16.2511 67.2654 15.7724 65.9209C15.3039 64.5661 15.0696 63.0382 15.0696 61.3372V60.4357C15.0696 58.7347 15.3039 57.2068 15.7724 55.8521C16.2511 54.4973 16.9183 53.3463 17.7739 52.399C18.6398 51.4415 19.6634 50.7133 20.845 50.2141C22.0368 49.7048 23.3508 49.4502 24.787 49.4502C26.213 49.4502 27.5168 49.7048 28.6984 50.2141C29.8901 50.7133 30.9189 51.4415 31.7847 52.399C32.6505 53.3463 33.3228 54.4973 33.8015 55.8521C34.2803 57.2068 34.5196 58.7347 34.5196 60.4357ZM29.0803 61.3372V60.4052C29.0803 59.3051 28.9836 58.3374 28.79 57.5022C28.6067 56.6568 28.3317 55.9488 27.965 55.3784C27.5983 54.808 27.145 54.3802 26.6052 54.095C26.0755 53.7996 25.4694 53.6519 24.787 53.6519C24.074 53.6519 23.4526 53.7996 22.9229 54.095C22.3933 54.3802 21.9502 54.808 21.5937 55.3784C21.2372 55.9488 20.9672 56.6568 20.7839 57.5022C20.6107 58.3374 20.5242 59.3051 20.5242 60.4052V61.3372C20.5242 62.4271 20.6107 63.3948 20.7839 64.2402C20.9672 65.0754 21.2372 65.7834 21.5937 66.364C21.9604 66.9446 22.4086 67.3826 22.9382 67.6779C23.4781 67.9733 24.1045 68.121 24.8175 68.121C25.5 68.121 26.1061 67.9733 26.6357 67.6779C27.1654 67.3826 27.6085 66.9446 27.965 66.364C28.3317 65.7834 28.6067 65.0754 28.79 64.2402C28.9836 63.3948 29.0803 62.4271 29.0803 61.3372Z" fill="white"/>
<path d="M44.2279 49.7558V72.0019H38.865V49.7558H44.2279ZM52.8757 59.0148V63.1401H42.7V59.0148H52.8757ZM53.7466 49.7558V53.8964H42.7V49.7558H53.7466Z" fill="white"/>
<path d="M62.9048 49.7558V72.0019H57.5419V49.7558H62.9048ZM71.5527 59.0148V63.1401H61.3769V59.0148H71.5527ZM72.4236 49.7558V53.8964H61.3769V49.7558H72.4236Z" fill="white"/>
</svg>
