<svg width="314" height="252" viewBox="0 0 314 252" fill="none" xmlns="http://www.w3.org/2000/svg">
<g opacity="0.1" clip-path="url(#clip0_57_831)">
<rect width="307" height="210" transform="translate(7)" fill="white"/>
<path d="M33.3455 147.867V25.074C33.346 24.5398 33.5587 24.0275 33.9368 23.6497C34.3149 23.2719 34.8275 23.0594 35.3622 23.0588H211.63C212.165 23.0594 212.678 23.2719 213.056 23.6497C213.434 24.0275 213.647 24.5398 213.647 25.074V147.867C213.647 148.401 213.434 148.914 213.056 149.291C212.678 149.669 212.165 149.882 211.63 149.882H35.3622C34.8275 149.882 34.3149 149.669 33.9368 149.291C33.5587 148.914 33.346 148.401 33.3455 147.867V147.867Z" fill="white"/>
<path d="M35.4079 151.118C34.5343 151.116 33.697 150.768 33.0791 150.151C32.4612 149.534 32.113 148.698 32.1105 147.825V25.1177C32.1126 24.2449 32.4605 23.4085 33.0781 22.7912C33.6957 22.1739 34.5329 21.826 35.4065 21.8235H211.585C212.458 21.8256 213.296 22.1731 213.914 22.7902C214.532 23.4072 214.88 24.2435 214.882 25.1163V147.823C214.88 148.696 214.532 149.533 213.915 150.15C213.297 150.767 212.46 151.115 211.586 151.118H35.4079ZM34.6739 147.822C34.6744 148.017 34.7521 148.203 34.8899 148.341C35.0277 148.479 35.2145 148.556 35.4094 148.557H211.585C211.78 148.556 211.966 148.478 212.103 148.341C212.241 148.203 212.318 148.016 212.319 147.822V25.1177C212.318 24.9232 212.24 24.737 212.102 24.5996C211.965 24.4622 211.778 24.3848 211.583 24.3844H35.4079C35.2133 24.3852 35.0268 24.4629 34.8893 24.6006C34.7518 24.7382 34.6743 24.9247 34.6739 25.1191V147.822Z" fill="#E4E4E4"/>
<path d="M182.835 51.8826C183.258 51.8897 183.661 52.0663 183.957 52.3744C184.254 52.6824 184.42 53.0972 184.42 53.5294C184.42 53.9615 184.254 54.3763 183.957 54.6844C183.661 54.9925 183.258 55.1691 182.835 55.1762H142.426C142.214 55.18 142.003 55.1411 141.806 55.0617C141.609 54.9823 141.429 54.864 141.277 54.7136C141.125 54.5632 141.003 54.3835 140.919 54.185C140.834 53.9864 140.789 53.7728 140.786 53.5564C140.782 53.34 140.821 53.125 140.899 52.9238C140.976 52.7225 141.092 52.5389 141.24 52.3834C141.387 52.228 141.563 52.1037 141.757 52.0178C141.952 51.9318 142.161 51.8859 142.373 51.8826C142.39 51.8822 142.408 51.8822 142.426 51.8826H182.835Z" fill="#A9A9A9"/>
<path d="M182.835 63.0002C183.258 63.0073 183.661 63.1839 183.957 63.492C184.254 63.8001 184.42 64.2149 184.42 64.6471C184.42 65.0792 184.254 65.494 183.957 65.8021C183.661 66.1102 183.258 66.2868 182.835 66.2939H142.424C142.212 66.2974 142.002 66.2584 141.805 66.1789C141.608 66.0994 141.429 65.9811 141.277 65.8307C141.124 65.6803 141.003 65.5007 140.919 65.3023C140.834 65.1038 140.789 64.8904 140.786 64.6741C140.782 64.4578 140.821 64.243 140.898 64.0418C140.976 63.8407 141.092 63.6571 141.239 63.5017C141.386 63.3463 141.562 63.222 141.756 63.1359C141.951 63.0499 142.159 63.0038 142.371 63.0002C142.389 62.9999 142.406 62.9999 142.424 63.0002H182.835Z" fill="#A9A9A9"/>
<path d="M182.835 74.5296C183.258 74.5358 183.661 74.6904 183.957 74.9599C184.254 75.2295 184.42 75.5925 184.42 75.9706C184.42 76.3487 184.254 76.7117 183.957 76.9812C183.661 77.2508 183.258 77.4053 182.835 77.4116H142.426C142.214 77.4149 142.003 77.3808 141.806 77.3114C141.609 77.2419 141.429 77.1384 141.277 77.0068C141.125 76.8752 141.003 76.718 140.919 76.5443C140.834 76.3705 140.789 76.1836 140.786 75.9943C140.782 75.8049 140.821 75.6168 140.899 75.4407C140.976 75.2646 141.092 75.1039 141.24 74.9679C141.387 74.8319 141.563 74.7231 141.757 74.6479C141.952 74.5727 142.161 74.5325 142.373 74.5296C142.39 74.5294 142.408 74.5294 142.426 74.5296H182.835Z" fill="#A9A9A9"/>
<path d="M157.251 91.8235C157.251 90.7648 157.565 89.7299 158.153 88.8496C158.741 87.9693 159.577 87.2832 160.555 86.878C161.533 86.4729 162.609 86.3669 163.647 86.5734C164.685 86.78 165.639 87.2898 166.387 88.0384C167.135 88.787 167.645 89.7408 167.852 90.7792C168.058 91.8176 167.952 92.8939 167.547 93.872C167.142 94.8501 166.456 95.6861 165.576 96.2743C164.696 96.8625 163.661 97.1765 162.603 97.1765C161.9 97.1765 161.204 97.038 160.555 96.769C159.906 96.5 159.316 96.1057 158.819 95.6086C158.322 95.1116 157.928 94.5215 157.659 93.872C157.39 93.2226 157.251 92.5265 157.251 91.8235V91.8235Z" fill="#264B8D"/>
<path d="M160.299 91.4944H162.027V89.8878C162.027 89.746 162.088 89.6101 162.196 89.5098C162.304 89.4096 162.45 89.3531 162.602 89.3529C162.755 89.3527 162.901 89.4086 163.01 89.5086C163.118 89.6085 163.179 89.7442 163.18 89.8859V91.4944H164.908C165.061 91.4944 165.208 91.5508 165.316 91.6513C165.424 91.7517 165.484 91.8879 165.484 92.0299C165.484 92.172 165.424 92.3082 165.316 92.4086C165.208 92.5091 165.061 92.5655 164.908 92.5655H163.18V94.1721C163.179 94.3139 163.118 94.4496 163.01 94.5496C162.902 94.6497 162.756 94.7058 162.603 94.7058C162.451 94.7058 162.305 94.6497 162.197 94.5496C162.089 94.4496 162.028 94.3139 162.027 94.1721V92.5655H160.299C160.223 92.5656 160.148 92.5519 160.078 92.5251C160.008 92.4983 159.945 92.459 159.891 92.4094C159.837 92.3597 159.795 92.3008 159.766 92.2358C159.737 92.1709 159.722 92.1013 159.721 92.031C159.721 91.9606 159.736 91.891 159.765 91.8259C159.794 91.7609 159.836 91.7018 159.889 91.652C159.943 91.6022 160.006 91.5626 160.076 91.5356C160.146 91.5085 160.221 91.4945 160.296 91.4944H160.299V91.4944Z" fill="white"/>
<path d="M108.677 66.7072C108.681 69.7503 108.138 72.7694 107.075 75.6207C106.593 76.9267 106.001 78.1895 105.305 79.3958C103.07 83.2972 99.8454 86.539 95.9563 88.7935C92.0671 91.048 87.6519 92.2353 83.157 92.2353C78.662 92.2353 74.2468 91.048 70.3576 88.7935C66.4685 86.539 63.2434 83.2972 61.0084 79.3958C60.7822 79.0035 60.5676 78.6052 60.3648 78.2011C58.63 74.7587 57.6971 70.968 57.6359 67.1133C57.5747 63.2587 58.3869 59.4402 60.0116 55.9445C61.6362 52.4487 64.0311 49.3663 67.0166 46.9286C70.0021 44.4909 73.5007 42.7612 77.2498 41.8693C80.9989 40.9773 84.9013 40.9463 88.6642 41.7785C92.427 42.6106 95.9526 44.2844 98.9765 46.6743C102 49.0642 104.444 52.108 106.124 55.5775C107.804 59.047 108.677 62.8521 108.677 66.7072V66.7072Z" fill="#A9A9A9"/>
<path d="M84.5956 71.2353C87.2101 71.2353 89.3296 69.023 89.3296 66.2941C89.3296 63.5651 87.2101 61.3529 84.5956 61.3529C81.9811 61.3529 79.8617 63.5651 79.8617 66.2941C79.8617 69.023 81.9811 71.2353 84.5956 71.2353Z" fill="#EF9635"/>
<path d="M60.5142 78.276C62.6549 75.9521 65.5166 72.2626 68.2006 74.9285C69.5476 76.186 71.6557 79.3021 73.6737 77.2649L89.4319 61.4356C89.7286 61.1414 90.0808 60.9098 90.4679 60.7542C90.8549 60.5987 91.269 60.5224 91.6859 60.5299C92.1027 60.5374 92.5138 60.6285 92.8951 60.7979C93.2763 60.9672 93.6201 61.2114 93.9061 61.5161L107.03 75.6956C106.55 77.0015 105.96 78.2644 105.268 79.4706H61.1552L60.5142 78.276Z" fill="white"/>
<path d="M103.114 126C102.979 126 102.846 126.026 102.722 126.078C102.598 126.129 102.485 126.205 102.39 126.301C102.295 126.396 102.22 126.51 102.169 126.635C102.117 126.76 102.091 126.894 102.091 127.029C102.091 127.165 102.117 127.299 102.169 127.424C102.22 127.549 102.295 127.662 102.39 127.758C102.485 127.854 102.598 127.929 102.722 127.981C102.846 128.033 102.979 128.059 103.114 128.059H113.829C113.963 128.059 114.096 128.033 114.22 127.981C114.344 127.929 114.457 127.854 114.552 127.758C114.647 127.662 114.722 127.549 114.774 127.424C114.825 127.299 114.852 127.165 114.852 127.029C114.852 126.894 114.825 126.76 114.774 126.635C114.722 126.51 114.647 126.396 114.552 126.301C114.457 126.205 114.344 126.129 114.22 126.078C114.096 126.026 113.963 126 113.829 126H103.114Z" fill="#264B8D"/>
<path d="M54.5414 111.177C54.2695 111.177 54.0088 111.285 53.8165 111.478C53.6242 111.671 53.5162 111.933 53.5162 112.206C53.5162 112.479 53.6242 112.741 53.8165 112.934C54.0088 113.127 54.2695 113.235 54.5414 113.235H114.238C114.51 113.235 114.771 113.127 114.963 112.934C115.155 112.741 115.263 112.479 115.263 112.206C115.263 111.933 115.155 111.671 114.963 111.478C114.771 111.285 114.51 111.177 114.238 111.177H54.5414Z" fill="#A9A9A9"/>
<path d="M54.5414 118.588C54.2695 118.588 54.0088 118.697 53.8165 118.89C53.6242 119.083 53.5162 119.345 53.5162 119.618C53.5162 119.891 53.6242 120.153 53.8165 120.346C54.0088 120.539 54.2695 120.647 54.5414 120.647H114.238C114.51 120.647 114.771 120.539 114.963 120.346C115.155 120.153 115.263 119.891 115.263 119.618C115.263 119.345 115.155 119.083 114.963 118.89C114.771 118.697 114.51 118.588 114.238 118.588H54.5414Z" fill="#EF9635"/>
<path d="M181.327 126C181.192 126 181.059 126.026 180.935 126.078C180.811 126.129 180.699 126.205 180.604 126.301C180.508 126.396 180.433 126.51 180.382 126.635C180.33 126.76 180.304 126.894 180.304 127.029C180.304 127.165 180.33 127.299 180.382 127.424C180.433 127.549 180.508 127.662 180.604 127.758C180.699 127.854 180.811 127.929 180.935 127.981C181.059 128.033 181.192 128.059 181.327 128.059H192.042C192.176 128.059 192.309 128.033 192.433 127.981C192.557 127.929 192.67 127.854 192.765 127.758C192.86 127.662 192.936 127.549 192.987 127.424C193.038 127.299 193.065 127.165 193.065 127.029C193.065 126.894 193.038 126.76 192.987 126.635C192.936 126.51 192.86 126.396 192.765 126.301C192.67 126.205 192.557 126.129 192.433 126.078C192.309 126.026 192.176 126 192.042 126H181.327Z" fill="#264B8D"/>
<path d="M132.755 111.177C132.483 111.177 132.222 111.285 132.03 111.478C131.837 111.671 131.729 111.933 131.729 112.206C131.729 112.479 131.837 112.741 132.03 112.934C132.222 113.127 132.483 113.235 132.755 113.235H192.451C192.723 113.235 192.984 113.127 193.176 112.934C193.368 112.741 193.476 112.479 193.476 112.206C193.476 111.933 193.368 111.671 193.176 111.478C192.984 111.285 192.723 111.177 192.451 111.177H132.755Z" fill="#EF9635"/>
<path d="M132.755 118.588C132.483 118.588 132.222 118.697 132.03 118.89C131.837 119.083 131.729 119.345 131.729 119.618C131.729 119.891 131.837 120.153 132.03 120.346C132.222 120.539 132.483 120.647 132.755 120.647H192.451C192.723 120.647 192.984 120.539 193.176 120.346C193.368 120.153 193.476 119.891 193.476 119.618C193.476 119.345 193.368 119.083 193.176 118.89C192.984 118.697 192.723 118.588 192.451 118.588H132.755Z" fill="#E5E5E5"/>
<path d="M224.862 82.8248C225.066 82.9729 225.257 83.1369 225.435 83.3151L247.563 78.9494L249.34 73.7651L257.513 75.4264L255.257 84.91C255.075 85.6761 254.649 86.3624 254.044 86.8659C253.438 87.3695 252.686 87.6629 251.9 87.7023L226.272 88.9867C225.809 89.8385 225.098 90.529 224.232 90.9664C223.367 91.4038 222.389 91.5674 221.429 91.4353C220.469 91.3033 219.571 90.8818 218.856 90.2271C218.141 89.5724 217.642 88.7155 217.426 87.7702C217.209 86.825 217.286 85.8362 217.645 84.9355C218.004 84.0348 218.629 83.2648 219.436 82.7279C220.243 82.1911 221.195 81.9128 222.164 81.9301C223.134 81.9474 224.075 82.2595 224.862 82.8248V82.8248Z" fill="#FFCDB7"/>
<path d="M247.024 77.924C246.878 77.6682 246.79 77.3841 246.764 77.0911C246.739 76.798 246.777 76.5029 246.876 76.2258L250.33 66.5498C250.622 65.0735 251.488 63.7734 252.737 62.9344C253.986 62.0955 255.517 61.7863 256.994 62.0745C258.47 62.3627 259.772 63.2249 260.615 64.472C261.457 65.7191 261.77 67.2494 261.487 68.7273L260.986 79.0228C260.972 79.3166 260.895 79.6039 260.759 79.8651C260.624 80.1263 260.434 80.3553 260.202 80.5364C259.971 80.7175 259.703 80.8466 259.417 80.9147C259.13 80.9829 258.833 80.9886 258.545 80.9314L248.406 78.9217C248.117 78.8646 247.844 78.746 247.606 78.5738C247.367 78.4016 247.169 78.18 247.024 77.924V77.924Z" fill="#6C63FF"/>
<path d="M241.474 203.418L234.969 203.418L231.874 178.318L241.475 178.319L241.474 203.418Z" fill="#FFCDB7"/>
<path d="M243.133 209.726L222.157 209.725V209.46C222.157 207.294 223.017 205.217 224.548 203.685C226.08 202.154 228.156 201.293 230.321 201.293H230.322L243.133 201.294L243.133 209.726Z" fill="#2F2E41"/>
<path d="M303.078 196.598L297.053 199.052L284.724 176.973L293.617 173.352L303.078 196.598Z" fill="#FFCDB7"/>
<path d="M306.992 201.815L287.564 209.726L287.464 209.48C286.648 207.474 286.662 205.226 287.503 203.23C288.343 201.234 289.942 199.654 291.948 198.837L291.948 198.837L303.814 194.005L306.992 201.815Z" fill="#2F2E41"/>
<path d="M247.393 99.1947L244.4 83.3532C243.749 81.0207 243.633 78.5713 244.062 76.1879C244.49 73.8045 245.451 71.5486 246.873 69.5888L257.816 54.9542L268.267 55.2617C273.209 67.2416 274.119 80.5049 270.86 93.0478L268.938 100.44C277.554 108.214 283.331 130.009 288.589 154.364L303.003 186.252L278.204 193.783L262.137 147.018L247.784 194.131L226.768 193.324L242.753 120.449L247.393 99.1947Z" fill="#2F2E41"/>
<path d="M264.045 51.9963C269.676 51.9963 274.241 47.4302 274.241 41.7976C274.241 36.165 269.676 31.5989 264.045 31.5989C258.414 31.5989 253.85 36.165 253.85 41.7976C253.85 47.4302 258.414 51.9963 264.045 51.9963Z" fill="#FFCDB7"/>
<path d="M304.291 64.9621C302.396 61.2609 301.75 57.0583 300.292 53.1645C298.834 49.2706 296.185 45.4074 292.169 44.3342C289.891 43.7255 287.471 44.0971 285.131 43.8073C283.074 43.5525 280.858 42.5018 280.071 40.674C280.229 38.8621 280.003 37.0372 279.407 35.3189C277.939 31.1474 274.439 27.8543 270.358 26.1519C267.044 24.769 263.227 24.3785 259.842 25.5794C256.457 26.7802 253.616 29.7152 253.008 33.2557C252.399 36.7961 254.35 40.7495 257.714 42.0071C260.13 42.91 263.24 42.6094 264.817 44.65C266.415 46.7172 265.27 49.7298 263.819 51.9025L263.918 52.0033C268.657 52.0589 273.781 51.1428 277.045 47.7053C277.4 47.33 277.725 46.9288 278.02 46.5051C278.12 46.6656 278.225 46.8221 278.338 46.9716C279.982 49.155 282.555 50.3937 285.007 51.6005C287.459 52.8073 290.002 54.1617 291.474 56.4642C294.135 60.6251 292.389 66.2292 293.91 70.9284C294.588 73.0204 295.894 74.8523 297.651 76.1743C299.407 77.4962 301.529 78.2438 303.726 78.3151C305.923 78.3864 308.089 77.7778 309.928 76.5725C311.766 75.3672 313.189 73.6237 314 71.5801C309.858 71.9262 306.185 68.6633 304.291 64.9621Z" fill="#2F2E41"/>
<path d="M205.482 91.0599L205.913 80.58L220.711 51.1515C221.128 50.3148 221.808 49.6383 222.647 49.2258C223.161 48.9695 223.72 48.8182 224.293 48.7808C224.866 48.7434 225.44 48.8206 225.983 49.0079C226.611 49.2247 227.181 49.5838 227.648 50.0571C228.115 50.5305 228.467 51.1054 228.675 51.7369C228.764 52.0096 228.827 52.2903 228.862 52.575C228.968 53.42 228.818 54.2773 228.433 55.0368L213.616 84.5053L205.482 91.0599Z" fill="#264B8D" fill-opacity="0.46"/>
<path d="M224.49 48.9783L208.427 80.923L207.203 80.3069L222.738 49.4105C223.282 49.1379 223.881 48.9902 224.49 48.9783V48.9783Z" fill="#3F3D56"/>
<path d="M228.658 52.6011L213.208 83.3282L211.983 82.7121L228.012 50.8336C228.21 51.1344 228.367 51.4598 228.48 51.8015C228.565 52.0616 228.624 52.3294 228.658 52.6011V52.6011Z" fill="#3F3D56"/>
<path d="M227.12 49.8592L210.88 82.1571L209.656 81.5409L225.916 49.2026C226.089 49.2619 226.258 49.3331 226.422 49.4156C226.668 49.5401 226.902 49.6887 227.12 49.8592Z" fill="#3F3D56"/>
<path d="M207.34 89.299L205.706 90.6155L205.843 87.1447C206.404 87.3394 207.011 88.1842 207.34 89.299Z" fill="#3F3D56"/>
<path d="M224.189 56.3075C224.245 56.5529 224.281 56.8024 224.298 57.0536L243.834 68.3272L248.582 65.5927L253.645 72.2218L245.708 77.8797C245.067 78.3368 244.295 78.5736 243.508 78.5544C242.721 78.5352 241.962 78.2612 241.343 77.7734L221.198 61.8762C220.289 62.2128 219.299 62.2646 218.36 62.0246C217.42 61.7847 216.576 61.2644 215.94 60.5329C215.304 59.8015 214.905 58.8935 214.797 57.9298C214.689 56.9662 214.877 55.9924 215.335 55.1382C215.794 54.2839 216.502 53.5896 217.365 53.1476C218.228 52.7056 219.205 52.5368 220.166 52.6638C221.127 52.7907 222.027 53.2073 222.745 53.8582C223.464 54.5091 223.967 55.3634 224.189 56.3075V56.3075Z" fill="#FFCDB7"/>
<path d="M244.102 67.2003C244.161 66.9121 244.281 66.6399 244.455 66.4024C244.628 66.1649 244.851 65.9677 245.108 65.8242L254.073 60.8098C255.264 59.8902 256.771 59.4805 258.264 59.6707C259.756 59.8608 261.113 60.6353 262.035 61.8242C262.958 63.0131 263.372 64.5195 263.186 66.0131C263 67.5066 262.229 68.8654 261.043 69.7916L253.895 77.2163C253.691 77.4282 253.444 77.5936 253.17 77.7013C252.897 77.8089 252.603 77.8563 252.309 77.8403C252.016 77.8242 251.729 77.745 251.469 77.608C251.208 77.4711 250.981 77.2797 250.801 77.0468L244.487 68.8612C244.307 68.6283 244.18 68.3594 244.113 68.0727C244.047 67.7861 244.043 67.4885 244.102 67.2003V67.2003Z" fill="#264B8D"/>
</g>
<g clip-path="url(#clip1_57_831)">
<path d="M26.3455 189.867V67.074C26.346 66.5398 26.5587 66.0275 26.9368 65.6497C27.3149 65.2719 27.8275 65.0594 28.3622 65.0588H204.63C205.165 65.0594 205.678 65.2719 206.056 65.6497C206.434 66.0275 206.647 66.5398 206.647 67.074V189.867C206.647 190.401 206.434 190.914 206.056 191.291C205.678 191.669 205.165 191.882 204.63 191.882H28.3622C27.8275 191.882 27.3149 191.669 26.9368 191.291C26.5587 190.914 26.346 190.401 26.3455 189.867V189.867Z" fill="white"/>
<path d="M28.4079 193.118C27.5343 193.116 26.697 192.768 26.0791 192.151C25.4612 191.534 25.113 190.698 25.1105 189.825V67.1177C25.1126 66.2449 25.4605 65.4085 26.0781 64.7912C26.6957 64.1739 27.5329 63.826 28.4065 63.8235H204.585C205.458 63.8256 206.296 64.1731 206.914 64.7902C207.532 65.4072 207.88 66.2435 207.882 67.1163V189.823C207.88 190.696 207.532 191.533 206.915 192.15C206.297 192.767 205.46 193.115 204.586 193.118H28.4079ZM27.6739 189.822C27.6744 190.017 27.7521 190.203 27.8899 190.341C28.0277 190.479 28.2145 190.556 28.4094 190.557H204.585C204.78 190.556 204.966 190.478 205.103 190.341C205.241 190.203 205.318 190.016 205.319 189.822V67.1177C205.318 66.9232 205.24 66.737 205.102 66.5996C204.965 66.4622 204.778 66.3848 204.583 66.3844H28.4079C28.2133 66.3852 28.0268 66.4629 27.8893 66.6006C27.7518 66.7382 27.6743 66.9247 27.6739 67.1191V189.822Z" fill="#E4E4E4"/>
<path d="M175.835 93.8826C176.258 93.8897 176.661 94.0663 176.957 94.3744C177.254 94.6824 177.42 95.0972 177.42 95.5294C177.42 95.9615 177.254 96.3763 176.957 96.6844C176.661 96.9925 176.258 97.1691 175.835 97.1762H135.426C135.214 97.18 135.003 97.1411 134.806 97.0617C134.609 96.9823 134.429 96.864 134.277 96.7136C134.125 96.5632 134.003 96.3835 133.919 96.185C133.834 95.9864 133.789 95.7728 133.786 95.5564C133.782 95.34 133.821 95.125 133.899 94.9238C133.976 94.7225 134.092 94.5389 134.24 94.3834C134.387 94.228 134.563 94.1037 134.757 94.0178C134.952 93.9318 135.161 93.8859 135.373 93.8826C135.39 93.8822 135.408 93.8822 135.426 93.8826H175.835Z" fill="#A9A9A9"/>
<path d="M175.835 105C176.258 105.007 176.661 105.184 176.957 105.492C177.254 105.8 177.42 106.215 177.42 106.647C177.42 107.079 177.254 107.494 176.957 107.802C176.661 108.11 176.258 108.287 175.835 108.294H135.424C135.212 108.297 135.002 108.258 134.805 108.179C134.608 108.099 134.429 107.981 134.277 107.831C134.124 107.68 134.003 107.501 133.919 107.302C133.834 107.104 133.789 106.89 133.786 106.674C133.782 106.458 133.821 106.243 133.898 106.042C133.976 105.841 134.092 105.657 134.239 105.502C134.386 105.346 134.562 105.222 134.756 105.136C134.951 105.05 135.159 105.004 135.371 105C135.389 105 135.406 105 135.424 105H175.835Z" fill="#A9A9A9"/>
<path d="M175.835 116.53C176.258 116.536 176.661 116.69 176.957 116.96C177.254 117.229 177.42 117.592 177.42 117.971C177.42 118.349 177.254 118.712 176.957 118.981C176.661 119.251 176.258 119.405 175.835 119.412H135.426C135.214 119.415 135.003 119.381 134.806 119.311C134.609 119.242 134.429 119.138 134.277 119.007C134.125 118.875 134.003 118.718 133.919 118.544C133.834 118.371 133.789 118.184 133.786 117.994C133.782 117.805 133.821 117.617 133.899 117.441C133.976 117.265 134.092 117.104 134.24 116.968C134.387 116.832 134.563 116.723 134.757 116.648C134.952 116.573 135.161 116.533 135.373 116.53C135.39 116.529 135.408 116.529 135.426 116.53H175.835Z" fill="#A9A9A9"/>
<path d="M150.251 133.824C150.251 132.765 150.565 131.73 151.153 130.85C151.741 129.969 152.577 129.283 153.555 128.878C154.533 128.473 155.609 128.367 156.647 128.573C157.685 128.78 158.639 129.29 159.387 130.038C160.135 130.787 160.645 131.741 160.852 132.779C161.058 133.818 160.952 134.894 160.547 135.872C160.142 136.85 159.456 137.686 158.576 138.274C157.696 138.863 156.661 139.176 155.603 139.176C154.9 139.176 154.204 139.038 153.555 138.769C152.906 138.5 152.316 138.106 151.819 137.609C151.322 137.112 150.928 136.521 150.659 135.872C150.39 135.223 150.251 134.526 150.251 133.824V133.824Z" fill="#264B8D"/>
<path d="M153.299 133.494H155.027V131.888C155.027 131.746 155.088 131.61 155.196 131.51C155.304 131.41 155.45 131.353 155.602 131.353C155.755 131.353 155.901 131.409 156.01 131.509C156.118 131.608 156.179 131.744 156.18 131.886V133.494H157.908C158.061 133.494 158.208 133.551 158.316 133.651C158.424 133.752 158.484 133.888 158.484 134.03C158.484 134.172 158.424 134.308 158.316 134.409C158.208 134.509 158.061 134.565 157.908 134.565H156.18V136.172C156.179 136.314 156.118 136.45 156.01 136.55C155.902 136.65 155.756 136.706 155.603 136.706C155.451 136.706 155.305 136.65 155.197 136.55C155.089 136.45 155.028 136.314 155.027 136.172V134.566H153.299C153.223 134.566 153.148 134.552 153.078 134.525C153.008 134.498 152.945 134.459 152.891 134.409C152.837 134.36 152.795 134.301 152.766 134.236C152.737 134.171 152.722 134.101 152.721 134.031C152.721 133.961 152.736 133.891 152.765 133.826C152.794 133.761 152.836 133.702 152.889 133.652C152.943 133.602 153.006 133.563 153.076 133.536C153.146 133.509 153.221 133.495 153.296 133.494H153.299V133.494Z" fill="white"/>
<path d="M101.677 108.707C101.681 111.75 101.138 114.769 100.075 117.621C99.5928 118.927 99.0007 120.19 98.3055 121.396C96.0705 125.297 92.8454 128.539 88.9563 130.794C85.0671 133.048 80.6519 134.235 76.157 134.235C71.662 134.235 67.2468 133.048 63.3576 130.794C59.4685 128.539 56.2434 125.297 54.0084 121.396C53.7822 121.003 53.5676 120.605 53.3648 120.201C51.63 116.759 50.6971 112.968 50.6359 109.113C50.5747 105.259 51.3869 101.44 53.0116 97.9445C54.6362 94.4487 57.0311 91.3663 60.0166 88.9286C63.0021 86.4909 66.5007 84.7612 70.2498 83.8693C73.9989 82.9773 77.9013 82.9463 81.6642 83.7785C85.427 84.6106 88.9526 86.2844 91.9765 88.6743C95.0004 91.0642 97.444 94.108 99.124 97.5775C100.804 101.047 101.677 104.852 101.677 108.707V108.707Z" fill="#A9A9A9"/>
<path d="M77.5956 113.235C80.2101 113.235 82.3296 111.023 82.3296 108.294C82.3296 105.565 80.2101 103.353 77.5956 103.353C74.9811 103.353 72.8617 105.565 72.8617 108.294C72.8617 111.023 74.9811 113.235 77.5956 113.235Z" fill="#EF9635"/>
<path d="M53.5142 120.276C55.6549 117.952 58.5166 114.263 61.2006 116.929C62.5476 118.186 64.6557 121.302 66.6737 119.265L82.4319 103.436C82.7286 103.141 83.0808 102.91 83.4679 102.754C83.8549 102.599 84.269 102.522 84.6859 102.53C85.1027 102.537 85.5138 102.629 85.8951 102.798C86.2763 102.967 86.6201 103.211 86.9061 103.516L100.03 117.696C99.5498 119.002 98.9601 120.264 98.2678 121.471H54.1552L53.5142 120.276Z" fill="white"/>
<path d="M96.1136 168C95.9794 168 95.8464 168.026 95.7223 168.078C95.5982 168.129 95.4854 168.205 95.3904 168.301C95.2954 168.396 95.22 168.51 95.1686 168.635C95.1171 168.76 95.0907 168.894 95.0907 169.029C95.0907 169.165 95.1171 169.299 95.1686 169.424C95.22 169.549 95.2954 169.662 95.3904 169.758C95.4854 169.854 95.5982 169.929 95.7223 169.981C95.8464 170.033 95.9794 170.059 96.1136 170.059H106.829C106.963 170.059 107.096 170.033 107.22 169.981C107.344 169.929 107.457 169.854 107.552 169.758C107.647 169.662 107.722 169.549 107.774 169.424C107.825 169.299 107.852 169.165 107.852 169.029C107.852 168.894 107.825 168.76 107.774 168.635C107.722 168.51 107.647 168.396 107.552 168.301C107.457 168.205 107.344 168.129 107.22 168.078C107.096 168.026 106.963 168 106.829 168H96.1136Z" fill="#264B8D"/>
<path d="M47.5414 153.177C47.2695 153.177 47.0088 153.285 46.8165 153.478C46.6242 153.671 46.5162 153.933 46.5162 154.206C46.5162 154.479 46.6242 154.741 46.8165 154.934C47.0088 155.127 47.2695 155.235 47.5414 155.235H107.238C107.51 155.235 107.771 155.127 107.963 154.934C108.155 154.741 108.263 154.479 108.263 154.206C108.263 153.933 108.155 153.671 107.963 153.478C107.771 153.285 107.51 153.177 107.238 153.177H47.5414Z" fill="#A9A9A9"/>
<path d="M47.5414 160.588C47.2695 160.588 47.0088 160.697 46.8165 160.89C46.6242 161.083 46.5162 161.345 46.5162 161.618C46.5162 161.891 46.6242 162.153 46.8165 162.346C47.0088 162.539 47.2695 162.647 47.5414 162.647H107.238C107.51 162.647 107.771 162.539 107.963 162.346C108.155 162.153 108.263 161.891 108.263 161.618C108.263 161.345 108.155 161.083 107.963 160.89C107.771 160.697 107.51 160.588 107.238 160.588H47.5414Z" fill="#EF9635"/>
<path d="M174.327 168C174.192 168 174.059 168.026 173.935 168.078C173.811 168.129 173.699 168.205 173.604 168.301C173.508 168.396 173.433 168.51 173.382 168.635C173.33 168.76 173.304 168.894 173.304 169.029C173.304 169.165 173.33 169.299 173.382 169.424C173.433 169.549 173.508 169.662 173.604 169.758C173.699 169.854 173.811 169.929 173.935 169.981C174.059 170.033 174.192 170.059 174.327 170.059H185.042C185.176 170.059 185.309 170.033 185.433 169.981C185.557 169.929 185.67 169.854 185.765 169.758C185.86 169.662 185.936 169.549 185.987 169.424C186.038 169.299 186.065 169.165 186.065 169.029C186.065 168.894 186.038 168.76 185.987 168.635C185.936 168.51 185.86 168.396 185.765 168.301C185.67 168.205 185.557 168.129 185.433 168.078C185.309 168.026 185.176 168 185.042 168H174.327Z" fill="#264B8D"/>
<path d="M125.755 153.177C125.483 153.177 125.222 153.285 125.03 153.478C124.837 153.671 124.729 153.933 124.729 154.206C124.729 154.479 124.837 154.741 125.03 154.934C125.222 155.127 125.483 155.235 125.755 155.235H185.451C185.723 155.235 185.984 155.127 186.176 154.934C186.368 154.741 186.476 154.479 186.476 154.206C186.476 153.933 186.368 153.671 186.176 153.478C185.984 153.285 185.723 153.177 185.451 153.177H125.755Z" fill="#EF9635"/>
<path d="M125.755 160.588C125.483 160.588 125.222 160.697 125.03 160.89C124.837 161.083 124.729 161.345 124.729 161.618C124.729 161.891 124.837 162.153 125.03 162.346C125.222 162.539 125.483 162.647 125.755 162.647H185.451C185.723 162.647 185.984 162.539 186.176 162.346C186.368 162.153 186.476 161.891 186.476 161.618C186.476 161.345 186.368 161.083 186.176 160.89C185.984 160.697 185.723 160.588 185.451 160.588H125.755Z" fill="#E5E5E5"/>
<path d="M217.862 124.825C218.066 124.973 218.257 125.137 218.435 125.315L240.563 120.949L242.34 115.765L250.513 117.426L248.257 126.91C248.075 127.676 247.649 128.362 247.044 128.866C246.438 129.369 245.686 129.663 244.9 129.702L219.272 130.987C218.809 131.838 218.098 132.529 217.232 132.966C216.367 133.404 215.389 133.567 214.429 133.435C213.469 133.303 212.571 132.882 211.856 132.227C211.141 131.572 210.642 130.715 210.426 129.77C210.209 128.825 210.286 127.836 210.645 126.936C211.004 126.035 211.629 125.265 212.436 124.728C213.243 124.191 214.195 123.913 215.164 123.93C216.134 123.947 217.075 124.259 217.862 124.825V124.825Z" fill="#FFCDB7"/>
<path d="M240.024 119.924C239.878 119.668 239.79 119.384 239.764 119.091C239.739 118.798 239.777 118.503 239.876 118.226L243.33 108.55C243.622 107.073 244.488 105.773 245.737 104.934C246.986 104.096 248.517 103.786 249.994 104.074C251.47 104.363 252.772 105.225 253.615 106.472C254.457 107.719 254.77 109.249 254.487 110.727L253.986 121.023C253.972 121.317 253.895 121.604 253.759 121.865C253.624 122.126 253.434 122.355 253.202 122.536C252.971 122.718 252.703 122.847 252.417 122.915C252.13 122.983 251.833 122.989 251.545 122.931L241.406 120.922C241.117 120.865 240.844 120.746 240.606 120.574C240.367 120.402 240.169 120.18 240.024 119.924V119.924Z" fill="#6C63FF"/>
<path d="M234.474 245.418L227.969 245.418L224.874 220.318L234.475 220.319L234.474 245.418Z" fill="#FFCDB7"/>
<path d="M236.133 251.726L215.157 251.725V251.46C215.157 249.294 216.017 247.217 217.548 245.685C219.08 244.154 221.156 243.293 223.321 243.293H223.322L236.133 243.294L236.133 251.726Z" fill="#2F2E41"/>
<path d="M296.078 238.598L290.053 241.052L277.724 218.973L286.617 215.352L296.078 238.598Z" fill="#FFCDB7"/>
<path d="M299.992 243.815L280.564 251.726L280.464 251.48C279.648 249.474 279.662 247.226 280.503 245.23C281.343 243.234 282.942 241.654 284.948 240.837L284.948 240.837L296.814 236.005L299.992 243.815Z" fill="#2F2E41"/>
<path d="M240.393 141.195L237.4 125.353C236.749 123.021 236.633 120.571 237.062 118.188C237.49 115.804 238.451 113.549 239.873 111.589L250.816 96.9542L261.267 97.2617C266.209 109.242 267.119 122.505 263.86 135.048L261.938 142.44C270.554 150.214 276.331 172.009 281.589 196.364L296.003 228.252L271.204 235.783L255.137 189.018L240.784 236.131L219.768 235.324L235.753 162.449L240.393 141.195Z" fill="#2F2E41"/>
<path d="M257.045 93.9963C262.676 93.9963 267.241 89.4302 267.241 83.7976C267.241 78.165 262.676 73.5989 257.045 73.5989C251.414 73.5989 246.85 78.165 246.85 83.7976C246.85 89.4302 251.414 93.9963 257.045 93.9963Z" fill="#FFCDB7"/>
<path d="M297.291 106.962C295.396 103.261 294.75 99.0583 293.292 95.1645C291.834 91.2706 289.185 87.4074 285.169 86.3342C282.891 85.7255 280.471 86.0971 278.131 85.8073C276.074 85.5525 273.858 84.5018 273.071 82.674C273.229 80.8621 273.003 79.0372 272.407 77.3189C270.939 73.1474 267.439 69.8543 263.358 68.1519C260.044 66.769 256.227 66.3785 252.842 67.5794C249.457 68.7802 246.616 71.7152 246.008 75.2557C245.399 78.7961 247.35 82.7495 250.714 84.0071C253.13 84.91 256.24 84.6094 257.817 86.65C259.415 88.7172 258.27 91.7298 256.819 93.9025L256.918 94.0033C261.657 94.0589 266.781 93.1428 270.045 89.7053C270.4 89.33 270.725 88.9288 271.02 88.5051C271.12 88.6656 271.225 88.8221 271.338 88.9716C272.982 91.155 275.555 92.3937 278.007 93.6005C280.459 94.8073 283.002 96.1617 284.474 98.4642C287.135 102.625 285.389 108.229 286.91 112.928C287.588 115.02 288.894 116.852 290.651 118.174C292.407 119.496 294.529 120.244 296.726 120.315C298.923 120.386 301.089 119.778 302.928 118.572C304.766 117.367 306.189 115.624 307 113.58C302.858 113.926 299.185 110.663 297.291 106.962Z" fill="#2F2E41"/>
<path d="M198.482 133.06L198.913 122.58L213.711 93.1515C214.128 92.3148 214.808 91.6383 215.647 91.2258C216.161 90.9695 216.72 90.8182 217.293 90.7808C217.866 90.7434 218.44 90.8206 218.983 91.0079C219.611 91.2247 220.181 91.5838 220.648 92.0571C221.115 92.5305 221.467 93.1054 221.675 93.7369C221.764 94.0096 221.827 94.2903 221.862 94.575C221.968 95.42 221.818 96.2773 221.433 97.0368L206.616 126.505L198.482 133.06Z" fill="#264B8D" fill-opacity="0.46"/>
<path d="M217.49 90.9783L201.427 122.923L200.203 122.307L215.738 91.4105C216.282 91.1379 216.881 90.9902 217.49 90.9783V90.9783Z" fill="#3F3D56"/>
<path d="M221.658 94.6011L206.208 125.328L204.983 124.712L221.012 92.8336C221.21 93.1344 221.367 93.4598 221.48 93.8015C221.565 94.0616 221.624 94.3294 221.658 94.6011V94.6011Z" fill="#3F3D56"/>
<path d="M220.12 91.8592L203.88 124.157L202.656 123.541L218.916 91.2026C219.089 91.2619 219.258 91.3331 219.422 91.4156C219.668 91.5401 219.902 91.6887 220.12 91.8592Z" fill="#3F3D56"/>
<path d="M200.34 131.299L198.706 132.616L198.843 129.145C199.404 129.339 200.011 130.184 200.34 131.299Z" fill="#3F3D56"/>
<path d="M217.189 98.3075C217.245 98.5529 217.281 98.8024 217.298 99.0536L236.834 110.327L241.582 107.593L246.645 114.222L238.708 119.88C238.067 120.337 237.295 120.574 236.508 120.554C235.721 120.535 234.962 120.261 234.343 119.773L214.198 103.876C213.289 104.213 212.299 104.265 211.36 104.025C210.42 103.785 209.576 103.264 208.94 102.533C208.304 101.801 207.905 100.894 207.797 99.9298C207.689 98.9662 207.877 97.9924 208.335 97.1382C208.794 96.2839 209.502 95.5896 210.365 95.1476C211.228 94.7056 212.205 94.5368 213.166 94.6638C214.127 94.7907 215.027 95.2073 215.745 95.8582C216.464 96.5091 216.967 97.3634 217.189 98.3075V98.3075Z" fill="#FFCDB7"/>
<path d="M237.102 109.2C237.161 108.912 237.281 108.64 237.455 108.402C237.628 108.165 237.851 107.968 238.108 107.824L247.073 102.81C248.264 101.89 249.771 101.481 251.264 101.671C252.756 101.861 254.113 102.635 255.035 103.824C255.958 105.013 256.372 106.519 256.186 108.013C256 109.507 255.229 110.865 254.043 111.792L246.895 119.216C246.691 119.428 246.444 119.594 246.17 119.701C245.897 119.809 245.603 119.856 245.309 119.84C245.016 119.824 244.729 119.745 244.469 119.608C244.208 119.471 243.981 119.28 243.801 119.047L237.487 110.861C237.307 110.628 237.18 110.359 237.113 110.073C237.047 109.786 237.043 109.489 237.102 109.2V109.2Z" fill="#264B8D"/>
</g>
<defs>
<clipPath id="clip0_57_831">
<rect width="307" height="210" fill="white" transform="translate(7)"/>
</clipPath>
<clipPath id="clip1_57_831">
<rect width="307" height="210" fill="white" transform="translate(0 42)"/>
</clipPath>
</defs>
</svg>
