<svg width="247" height="208" viewBox="0 0 247 208" fill="none" xmlns="http://www.w3.org/2000/svg">
<g opacity="0.15">
<path d="M240.921 0H58.8994C57.3356 0.00248596 55.8365 0.624835 54.7307 1.73064C53.6249 2.83644 53.0025 4.33551 53 5.89935V128.728C53.0015 130.292 53.6235 131.792 54.7296 132.898C55.8356 134.004 57.3353 134.626 58.8994 134.627H240.921C242.485 134.626 243.984 134.004 245.09 132.898C246.196 131.792 246.818 130.292 246.82 128.728V5.89935C246.818 4.33551 246.195 2.83644 245.089 1.73064C243.984 0.624836 242.485 0.00249699 240.921 0Z" fill="#3F3D56"/>
<path d="M239.402 4.26066H60.4206C59.5832 4.26248 58.7808 4.59636 58.1893 5.18906C57.5979 5.78177 57.2656 6.58489 57.2656 7.42222V127.206C57.267 128.043 57.5999 128.844 58.1913 129.436C58.7826 130.027 59.5842 130.36 60.4206 130.361H239.402C240.238 130.36 241.04 130.027 241.631 129.436C242.222 128.844 242.555 128.043 242.557 127.206V7.4222C242.557 6.58486 242.224 5.78176 241.633 5.18906C241.041 4.59636 240.239 4.26248 239.402 4.26066Z" fill="white"/>
<path d="M124.715 146.69V153.179C124.716 153.516 124.85 153.838 125.088 154.076C125.326 154.314 125.648 154.448 125.984 154.448H170.864C171.2 154.447 171.522 154.312 171.759 154.075C171.997 153.837 172.131 153.515 172.133 153.179V146.69H124.715Z" fill="#3F3D56"/>
<path d="M203.842 156.707H97.3584C97.0669 156.707 96.7791 156.641 96.5159 156.516C96.2528 156.391 96.021 156.208 95.8373 155.982C95.6537 155.756 95.5228 155.491 95.4543 155.208C95.3859 154.924 95.3815 154.629 95.4415 154.344L97.0939 146.497C97.1879 146.058 97.4293 145.664 97.7779 145.381C98.1265 145.098 98.5614 144.943 99.0104 144.942H202.19C202.639 144.943 203.074 145.098 203.423 145.381C203.771 145.664 204.013 146.058 204.107 146.497L205.759 154.344C205.819 154.629 205.815 154.924 205.746 155.208C205.678 155.491 205.547 155.756 205.364 155.982C205.18 156.208 204.948 156.391 204.685 156.516C204.422 156.641 204.134 156.707 203.842 156.707Z" fill="#3F3D56"/>
<path d="M102.638 146.355H100.174C99.9487 146.355 99.7662 146.537 99.7662 146.762V147.915C99.7662 148.14 99.9487 148.322 100.174 148.322H102.638C102.863 148.322 103.046 148.14 103.046 147.915V146.762C103.046 146.537 102.863 146.355 102.638 146.355Z" fill="#E6E6E6"/>
<path d="M109.196 146.355H106.732C106.507 146.355 106.324 146.537 106.324 146.762V147.915C106.324 148.14 106.507 148.322 106.732 148.322H109.196C109.421 148.322 109.604 148.14 109.604 147.915V146.762C109.604 146.537 109.421 146.355 109.196 146.355Z" fill="#E6E6E6"/>
<path d="M115.756 146.355H113.292C113.067 146.355 112.884 146.537 112.884 146.762V147.915C112.884 148.14 113.067 148.322 113.292 148.322H115.756C115.981 148.322 116.164 148.14 116.164 147.915V146.762C116.164 146.537 115.981 146.355 115.756 146.355Z" fill="#E6E6E6"/>
<path d="M122.316 146.355H119.851C119.626 146.355 119.444 146.537 119.444 146.762V147.915C119.444 148.14 119.626 148.322 119.851 148.322H122.316C122.541 148.322 122.723 148.14 122.723 147.915V146.762C122.723 146.537 122.541 146.355 122.316 146.355Z" fill="#E6E6E6"/>
<path d="M128.874 146.355H126.41C126.184 146.355 126.002 146.537 126.002 146.762V147.915C126.002 148.14 126.184 148.322 126.41 148.322H128.874C129.099 148.322 129.282 148.14 129.282 147.915V146.762C129.282 146.537 129.099 146.355 128.874 146.355Z" fill="#E6E6E6"/>
<path d="M135.434 146.355H132.969C132.744 146.355 132.562 146.537 132.562 146.762V147.915C132.562 148.14 132.744 148.322 132.969 148.322H135.434C135.659 148.322 135.841 148.14 135.841 147.915V146.762C135.841 146.537 135.659 146.355 135.434 146.355Z" fill="#E6E6E6"/>
<path d="M141.994 146.355H139.529C139.304 146.355 139.121 146.537 139.121 146.762V147.915C139.121 148.14 139.304 148.322 139.529 148.322H141.994C142.219 148.322 142.401 148.14 142.401 147.915V146.762C142.401 146.537 142.219 146.355 141.994 146.355Z" fill="#E6E6E6"/>
<path d="M148.552 146.355H146.087C145.862 146.355 145.68 146.537 145.68 146.762V147.915C145.68 148.14 145.862 148.322 146.087 148.322H148.552C148.777 148.322 148.959 148.14 148.959 147.915V146.762C148.959 146.537 148.777 146.355 148.552 146.355Z" fill="#E6E6E6"/>
<path d="M155.111 146.355H152.647C152.422 146.355 152.239 146.537 152.239 146.762V147.915C152.239 148.14 152.422 148.322 152.647 148.322H155.111C155.337 148.322 155.519 148.14 155.519 147.915V146.762C155.519 146.537 155.337 146.355 155.111 146.355Z" fill="#E6E6E6"/>
<path d="M161.671 146.355H159.207C158.982 146.355 158.799 146.537 158.799 146.762V147.915C158.799 148.14 158.982 148.322 159.207 148.322H161.671C161.896 148.322 162.079 148.14 162.079 147.915V146.762C162.079 146.537 161.896 146.355 161.671 146.355Z" fill="#E6E6E6"/>
<path d="M168.229 146.355H165.765C165.54 146.355 165.357 146.537 165.357 146.762V147.915C165.357 148.14 165.54 148.322 165.765 148.322H168.229C168.454 148.322 168.637 148.14 168.637 147.915V146.762C168.637 146.537 168.454 146.355 168.229 146.355Z" fill="#E6E6E6"/>
<path d="M174.789 146.355H172.325C172.099 146.355 171.917 146.537 171.917 146.762V147.915C171.917 148.14 172.099 148.322 172.325 148.322H174.789C175.014 148.322 175.197 148.14 175.197 147.915V146.762C175.197 146.537 175.014 146.355 174.789 146.355Z" fill="#E6E6E6"/>
<path d="M181.349 146.355H178.884C178.659 146.355 178.477 146.537 178.477 146.762V147.915C178.477 148.14 178.659 148.322 178.884 148.322H181.349C181.574 148.322 181.756 148.14 181.756 147.915V146.762C181.756 146.537 181.574 146.355 181.349 146.355Z" fill="#E6E6E6"/>
<path d="M187.907 146.355H185.442C185.217 146.355 185.035 146.537 185.035 146.762V147.915C185.035 148.14 185.217 148.322 185.442 148.322H187.907C188.132 148.322 188.315 148.14 188.315 147.915V146.762C188.315 146.537 188.132 146.355 187.907 146.355Z" fill="#E6E6E6"/>
<path d="M194.467 146.355H192.002C191.777 146.355 191.595 146.537 191.595 146.762V147.915C191.595 148.14 191.777 148.322 192.002 148.322H194.467C194.692 148.322 194.874 148.14 194.874 147.915V146.762C194.874 146.537 194.692 146.355 194.467 146.355Z" fill="#E6E6E6"/>
<path d="M201.026 146.355H198.562C198.337 146.355 198.154 146.537 198.154 146.762V147.915C198.154 148.14 198.337 148.322 198.562 148.322H201.026C201.252 148.322 201.434 148.14 201.434 147.915V146.762C201.434 146.537 201.252 146.355 201.026 146.355Z" fill="#E6E6E6"/>
<path d="M102.56 149.634H100.095C99.8704 149.634 99.6879 149.817 99.6879 150.042V151.195C99.6879 151.42 99.8704 151.602 100.095 151.602H102.56C102.785 151.602 102.968 151.42 102.968 151.195V150.042C102.968 149.817 102.785 149.634 102.56 149.634Z" fill="#E6E6E6"/>
<path d="M109.12 149.634H106.655C106.43 149.634 106.248 149.817 106.248 150.042V151.195C106.248 151.42 106.43 151.602 106.655 151.602H109.12C109.345 151.602 109.527 151.42 109.527 151.195V150.042C109.527 149.817 109.345 149.634 109.12 149.634Z" fill="#E6E6E6"/>
<path d="M115.679 149.634H113.215C112.99 149.634 112.807 149.817 112.807 150.042V151.195C112.807 151.42 112.99 151.602 113.215 151.602H115.679C115.905 151.602 116.087 151.42 116.087 151.195V150.042C116.087 149.817 115.905 149.634 115.679 149.634Z" fill="#E6E6E6"/>
<path d="M122.238 149.634H119.773C119.548 149.634 119.366 149.817 119.366 150.042V151.195C119.366 151.42 119.548 151.602 119.773 151.602H122.238C122.463 151.602 122.645 151.42 122.645 151.195V150.042C122.645 149.817 122.463 149.634 122.238 149.634Z" fill="#E6E6E6"/>
<path d="M128.797 149.634H126.333C126.108 149.634 125.925 149.817 125.925 150.042V151.195C125.925 151.42 126.108 151.602 126.333 151.602H128.797C129.022 151.602 129.205 151.42 129.205 151.195V150.042C129.205 149.817 129.022 149.634 128.797 149.634Z" fill="#E6E6E6"/>
<path d="M135.357 149.634H132.893C132.668 149.634 132.485 149.817 132.485 150.042V151.195C132.485 151.42 132.668 151.602 132.893 151.602H135.357C135.582 151.602 135.765 151.42 135.765 151.195V150.042C135.765 149.817 135.582 149.634 135.357 149.634Z" fill="#E6E6E6"/>
<path d="M141.915 149.634H139.451C139.226 149.634 139.043 149.817 139.043 150.042V151.195C139.043 151.42 139.226 151.602 139.451 151.602H141.915C142.14 151.602 142.323 151.42 142.323 151.195V150.042C142.323 149.817 142.14 149.634 141.915 149.634Z" fill="#E6E6E6"/>
<path d="M148.475 149.634H146.011C145.785 149.634 145.603 149.817 145.603 150.042V151.195C145.603 151.42 145.785 151.602 146.011 151.602H148.475C148.7 151.602 148.883 151.42 148.883 151.195V150.042C148.883 149.817 148.7 149.634 148.475 149.634Z" fill="#E6E6E6"/>
<path d="M155.035 149.634H152.57C152.345 149.634 152.163 149.817 152.163 150.042V151.195C152.163 151.42 152.345 151.602 152.57 151.602H155.035C155.26 151.602 155.442 151.42 155.442 151.195V150.042C155.442 149.817 155.26 149.634 155.035 149.634Z" fill="#E6E6E6"/>
<path d="M161.593 149.634H159.128C158.903 149.634 158.721 149.817 158.721 150.042V151.195C158.721 151.42 158.903 151.602 159.128 151.602H161.593C161.818 151.602 162 151.42 162 151.195V150.042C162 149.817 161.818 149.634 161.593 149.634Z" fill="#E6E6E6"/>
<path d="M168.153 149.634H165.688C165.463 149.634 165.281 149.817 165.281 150.042V151.195C165.281 151.42 165.463 151.602 165.688 151.602H168.153C168.378 151.602 168.56 151.42 168.56 151.195V150.042C168.56 149.817 168.378 149.634 168.153 149.634Z" fill="#E6E6E6"/>
<path d="M174.712 149.634H172.248C172.023 149.634 171.84 149.817 171.84 150.042V151.195C171.84 151.42 172.023 151.602 172.248 151.602H174.712C174.937 151.602 175.12 151.42 175.12 151.195V150.042C175.12 149.817 174.937 149.634 174.712 149.634Z" fill="#E6E6E6"/>
<path d="M181.271 149.634H178.806C178.581 149.634 178.398 149.817 178.398 150.042V151.195C178.398 151.42 178.581 151.602 178.806 151.602H181.271C181.496 151.602 181.678 151.42 181.678 151.195V150.042C181.678 149.817 181.496 149.634 181.271 149.634Z" fill="#E6E6E6"/>
<path d="M187.83 149.634H185.366C185.141 149.634 184.958 149.817 184.958 150.042V151.195C184.958 151.42 185.141 151.602 185.366 151.602H187.83C188.055 151.602 188.238 151.42 188.238 151.195V150.042C188.238 149.817 188.055 149.634 187.83 149.634Z" fill="#E6E6E6"/>
<path d="M194.39 149.634H191.926C191.7 149.634 191.518 149.817 191.518 150.042V151.195C191.518 151.42 191.7 151.602 191.926 151.602H194.39C194.615 151.602 194.798 151.42 194.798 151.195V150.042C194.798 149.817 194.615 149.634 194.39 149.634Z" fill="#E6E6E6"/>
<path d="M200.948 149.634H198.484C198.259 149.634 198.076 149.817 198.076 150.042V151.195C198.076 151.42 198.259 151.602 198.484 151.602H200.948C201.173 151.602 201.356 151.42 201.356 151.195V150.042C201.356 149.817 201.173 149.634 200.948 149.634Z" fill="#E6E6E6"/>
<path d="M157.002 153.57H131.58C131.355 153.57 131.172 153.752 131.172 153.977V155.13C131.172 155.355 131.355 155.538 131.58 155.538H157.002C157.227 155.538 157.409 155.355 157.409 155.13V153.977C157.409 153.752 157.227 153.57 157.002 153.57Z" fill="#E6E6E6"/>
<path d="M140.25 64H122.75C122.286 64 121.841 63.842 121.513 63.5607C121.184 63.2794 121 62.8978 121 62.5C121 62.1022 121.184 61.7206 121.513 61.4393C121.841 61.158 122.286 61 122.75 61H140.25C140.714 61 141.159 61.158 141.487 61.4393C141.816 61.7206 142 62.1022 142 62.5C142 62.8978 141.816 63.2794 141.487 63.5607C141.159 63.842 140.714 64 140.25 64Z" fill="#EF9635"/>
<path d="M171.25 64H153.75C153.52 64 153.293 63.9612 153.08 63.8858C152.868 63.8104 152.675 63.6999 152.513 63.5607C152.35 63.4214 152.221 63.256 152.133 63.074C152.045 62.892 152 62.697 152 62.5C152 62.303 152.045 62.108 152.133 61.926C152.221 61.744 152.35 61.5786 152.513 61.4393C152.675 61.3001 152.868 61.1896 153.08 61.1142C153.293 61.0388 153.52 61 153.75 61H171.25C171.48 61 171.707 61.0388 171.92 61.1142C172.132 61.1896 172.325 61.3001 172.487 61.4393C172.65 61.5786 172.779 61.744 172.867 61.926C172.955 62.108 173 62.303 173 62.5C173 62.697 172.955 62.892 172.867 63.074C172.779 63.256 172.65 63.4214 172.487 63.5607C172.325 63.6999 172.132 63.8104 171.92 63.8858C171.707 63.9612 171.48 64 171.25 64Z" fill="#EF9635"/>
<path d="M187.25 78H169.75C169.52 78 169.293 77.9612 169.08 77.8858C168.868 77.8104 168.675 77.7 168.513 77.5607C168.35 77.4214 168.221 77.256 168.133 77.074C168.045 76.892 168 76.697 168 76.5C168 76.303 168.045 76.1079 168.133 75.926C168.221 75.744 168.35 75.5786 168.513 75.4393C168.675 75.3 168.868 75.1895 169.08 75.1142C169.293 75.0388 169.52 75 169.75 75H187.25C187.48 75 187.707 75.0388 187.92 75.1142C188.132 75.1895 188.325 75.3 188.487 75.4393C188.65 75.5786 188.779 75.744 188.867 75.926C188.955 76.1079 189 76.303 189 76.5C189 76.697 188.955 76.892 188.867 77.074C188.779 77.256 188.65 77.4214 188.487 77.5607C188.325 77.7 188.132 77.8104 187.92 77.8858C187.707 77.9612 187.48 78 187.25 78Z" fill="#EF9635"/>
<path d="M156.243 78H122.757C122.291 78 121.844 77.842 121.515 77.5607C121.185 77.2794 121 76.8978 121 76.5C121 76.1022 121.185 75.7206 121.515 75.4393C121.844 75.158 122.291 75 122.757 75H156.243C156.709 75 157.156 75.158 157.485 75.4393C157.815 75.7206 158 76.1022 158 76.5C158 76.8978 157.815 77.2794 157.485 77.5607C157.156 77.842 156.709 78 156.243 78Z" fill="#EF9635"/>
<path d="M218.243 64H184.757C184.291 64 183.844 63.842 183.515 63.5607C183.185 63.2794 183 62.8978 183 62.5C183 62.1022 183.185 61.7206 183.515 61.4393C183.844 61.158 184.291 61 184.757 61H218.243C218.474 61 218.702 61.0388 218.915 61.1142C219.128 61.1896 219.322 61.3001 219.485 61.4393C219.649 61.5786 219.778 61.744 219.866 61.926C219.955 62.108 220 62.303 220 62.5C220 62.697 219.955 62.892 219.866 63.074C219.778 63.256 219.649 63.4214 219.485 63.5607C219.322 63.6999 219.128 63.8104 218.915 63.8858C218.702 63.9612 218.474 64 218.243 64Z" fill="#EF9635"/>
<path d="M128.053 31H90.952C90.6959 31.0007 90.4422 30.9494 90.2054 30.8492C89.9686 30.749 89.7534 30.6018 89.572 30.416C89.3907 30.2302 89.2468 30.0095 89.1487 29.7666C89.0505 29.5236 89 29.2631 89 29C89 28.7369 89.0505 28.4764 89.1487 28.2334C89.2468 27.9905 89.3907 27.7698 89.572 27.584C89.7534 27.3982 89.9686 27.251 90.2054 27.1508C90.4422 27.0506 90.6959 26.9993 90.952 27H128.053C128.569 27 129.065 27.2107 129.43 27.5858C129.795 27.9609 130 28.4696 130 29C130 29.5304 129.795 30.0391 129.43 30.4142C129.065 30.7893 128.569 31 128.053 31Z" fill="#264B8D"/>
<path d="M128.496 40C128.185 40.0002 127.881 39.9042 127.627 39.7257C127.373 39.5471 127.182 39.2948 127.081 39.004C126.98 38.7132 126.973 38.3985 127.062 38.1039C127.151 37.8093 127.332 37.5495 127.578 37.3608L135.726 31.1148C136.054 30.8638 136.324 30.5485 136.522 30.1888C136.719 29.8291 136.839 29.433 136.873 29.0254C136.907 28.6178 136.855 28.2077 136.72 27.821C136.584 27.4344 136.369 27.0796 136.088 26.7792L129.247 19.4758C129.114 19.3335 129.01 19.1668 128.942 18.9851C128.874 18.8034 128.843 18.6103 128.851 18.4168C128.859 18.2232 128.905 18.0331 128.987 17.8572C129.069 17.6813 129.186 17.5232 129.33 17.3917C129.475 17.2603 129.644 17.1581 129.828 17.0911C130.012 17.0241 130.208 16.9935 130.404 17.0011C130.6 17.0088 130.793 17.0545 130.972 17.1356C131.15 17.2167 131.31 17.3316 131.444 17.4738L141.603 28.3189C141.743 28.4689 141.851 28.6461 141.918 28.8392C141.986 29.0323 142.012 29.2371 141.995 29.4407C141.978 29.6442 141.918 29.8421 141.82 30.0218C141.721 30.2014 141.586 30.3589 141.422 30.4843L129.414 39.6897C129.151 39.891 128.829 40.0002 128.496 40Z" fill="#264B8D"/>
<path d="M92.4039 40C92.7364 40.0002 93.0607 39.9042 93.3314 39.7257C93.602 39.5471 93.8056 39.2948 93.9136 39.004C94.0215 38.7132 94.0285 38.3985 93.9335 38.1039C93.8386 37.8093 93.6464 37.5495 93.3838 37.3608L84.6922 31.1148C84.3429 30.8638 84.0539 30.5485 83.8433 30.1888C83.6327 29.8291 83.5053 29.433 83.469 29.0254C83.4327 28.6178 83.4883 28.2077 83.6324 27.821C83.7765 27.4344 84.0059 27.0796 84.306 26.7792L91.6031 19.4758C91.7453 19.3335 91.8558 19.1668 91.9283 18.9851C92.0007 18.8034 92.0339 18.6103 92.0256 18.4168C92.0174 18.2232 91.968 18.0331 91.8803 17.8572C91.7925 17.6813 91.6682 17.5232 91.5143 17.3917C91.3605 17.2603 91.1802 17.1581 90.9836 17.0911C90.7871 17.0241 90.5781 16.9935 90.3688 17.0011C90.1595 17.0088 89.9538 17.0545 89.7636 17.1356C89.5734 17.2167 89.4023 17.3316 89.2601 17.4738L78.4237 28.3189C78.2737 28.4689 78.1591 28.6461 78.0871 28.8392C78.0151 29.0323 77.9873 29.2371 78.0054 29.4407C78.0234 29.6442 78.087 29.8421 78.1922 30.0218C78.2973 30.2014 78.4417 30.3589 78.6161 30.4843L91.4255 39.6897C91.7051 39.891 92.0495 40.0002 92.4039 40Z" fill="#264B8D"/>
<path d="M198.29 105H165.71C165.256 105 164.821 104.842 164.501 104.561C164.18 104.279 164 103.898 164 103.5C164 103.102 164.18 102.721 164.501 102.439C164.821 102.158 165.256 102 165.71 102H198.29C198.744 102 199.179 102.158 199.499 102.439C199.82 102.721 200 103.102 200 103.5C200 103.898 199.82 104.279 199.499 104.561C199.179 104.842 198.744 105 198.29 105Z" fill="#264B8D"/>
<path d="M204.496 114C204.185 114 203.881 113.9 203.627 113.714C203.373 113.527 203.182 113.264 203.081 112.961C202.98 112.657 202.973 112.329 203.062 112.021C203.151 111.714 203.332 111.443 203.578 111.246L211.726 104.728C212.053 104.467 212.324 104.138 212.522 103.762C212.719 103.387 212.839 102.974 212.873 102.548C212.907 102.123 212.855 101.695 212.72 101.291C212.585 100.888 212.369 100.518 212.088 100.204L205.247 92.5834C205.114 92.435 205.01 92.261 204.942 92.0714C204.874 91.8818 204.843 91.6803 204.851 91.4783C204.859 91.2764 204.905 91.078 204.987 90.8945C205.069 90.711 205.186 90.5459 205.33 90.4087C205.475 90.2716 205.644 90.165 205.828 90.095C206.012 90.0251 206.208 89.9932 206.404 90.0012C206.6 90.0091 206.793 90.0568 206.972 90.1414C207.15 90.226 207.31 90.346 207.444 90.4944L217.603 101.811C217.743 101.968 217.851 102.152 217.918 102.354C217.986 102.555 218.012 102.769 217.995 102.982C217.978 103.194 217.918 103.4 217.82 103.588C217.721 103.775 217.586 103.94 217.422 104.071L205.414 113.676C205.151 113.886 204.829 114 204.496 114Z" fill="#264B8D"/>
<path d="M147.404 114C147.736 114 148.061 113.9 148.331 113.714C148.602 113.527 148.806 113.264 148.914 112.961C149.022 112.657 149.029 112.329 148.934 112.021C148.839 111.714 148.646 111.443 148.384 111.246L139.692 104.728C139.343 104.467 139.054 104.138 138.843 103.762C138.633 103.387 138.505 102.974 138.469 102.548C138.433 102.123 138.488 101.695 138.632 101.291C138.777 100.888 139.006 100.518 139.306 100.204L146.603 92.5834C146.89 92.2836 147.042 91.8862 147.026 91.4783C147.009 91.0705 146.825 90.6857 146.514 90.4087C146.204 90.1317 145.792 89.9851 145.369 90.0012C144.946 90.0173 144.547 90.1947 144.26 90.4944L133.424 101.811C133.274 101.968 133.159 102.152 133.087 102.354C133.015 102.555 132.987 102.769 133.005 102.982C133.023 103.194 133.087 103.4 133.192 103.588C133.297 103.775 133.442 103.94 133.616 104.071L146.426 113.676C146.705 113.886 147.05 114 147.404 114Z" fill="#264B8D"/>
<path d="M150.143 108.609L156.812 93.0133C156.99 92.6017 157.321 92.279 157.731 92.1158C158.142 91.9526 158.598 91.9622 159.002 92.1425C159.405 92.3228 159.722 92.6591 159.884 93.0778C160.045 93.4965 160.038 93.9636 159.864 94.3768L153.194 109.972C153.107 110.178 152.981 110.364 152.824 110.52C152.666 110.676 152.48 110.799 152.276 110.881C152.072 110.964 151.854 111.004 151.635 111C151.415 110.996 151.199 110.947 150.998 110.858C150.797 110.768 150.616 110.638 150.464 110.476C150.312 110.315 150.193 110.124 150.113 109.915C150.034 109.706 149.995 109.483 150 109.259C150.005 109.035 150.054 108.814 150.143 108.609Z" fill="#264B8D"/>
</g>
<path d="M187.921 51H5.89943C4.33558 51.0025 2.8365 51.6248 1.73069 52.7306C0.624878 53.8364 0.00249702 55.3355 0 56.8994V179.728C0.00150303 181.292 0.623542 182.792 1.72957 183.898C2.8356 185.004 4.33528 185.626 5.89943 185.627H187.921C189.485 185.626 190.984 185.004 192.09 183.898C193.196 182.792 193.818 181.292 193.82 179.728V56.8994C193.818 55.3355 193.195 53.8364 192.089 52.7306C190.984 51.6248 189.485 51.0025 187.921 51Z" fill="#3F3D56"/>
<path d="M186.833 58H7.16706C6.32652 58.0017 5.52103 58.3195 4.9273 58.8835C4.33357 59.4475 4.00007 60.2118 4 61.0086V174.998C4.00144 175.793 4.33562 176.556 4.92924 177.119C5.52287 177.682 6.32755 177.999 7.16706 178H186.833C187.672 177.999 188.477 177.682 189.071 177.119C189.664 176.556 189.999 175.793 190 174.998V61.0086C190 60.2118 189.666 59.4475 189.073 58.8835C188.479 58.3195 187.673 58.0017 186.833 58Z" fill="white"/>
<path d="M71.7155 197.69V204.179C71.7161 204.516 71.85 204.838 72.0878 205.076C72.3256 205.314 72.648 205.448 72.9842 205.448H117.864C118.2 205.447 118.522 205.312 118.759 205.075C118.997 204.837 119.131 204.515 119.133 204.179V197.69H71.7155Z" fill="#3F3D56"/>
<path d="M150.842 207.707H44.3584C44.0669 207.707 43.7791 207.641 43.5159 207.516C43.2528 207.391 43.021 207.208 42.8373 206.982C42.6537 206.756 42.5228 206.491 42.4543 206.208C42.3859 205.924 42.3815 205.629 42.4415 205.344L44.0939 197.497C44.1879 197.058 44.4293 196.664 44.7779 196.381C45.1265 196.098 45.5614 195.943 46.0104 195.942H149.19C149.639 195.943 150.074 196.098 150.423 196.381C150.771 196.664 151.013 197.058 151.107 197.497L152.759 205.344C152.819 205.629 152.815 205.924 152.746 206.208C152.678 206.491 152.547 206.756 152.364 206.982C152.18 207.208 151.948 207.391 151.685 207.516C151.422 207.641 151.134 207.707 150.842 207.707Z" fill="#3F3D56"/>
<path d="M49.6382 197.355H47.1738C46.9487 197.355 46.7662 197.537 46.7662 197.762V198.915C46.7662 199.14 46.9487 199.322 47.1738 199.322H49.6382C49.8633 199.322 50.0458 199.14 50.0458 198.915V197.762C50.0458 197.537 49.8633 197.355 49.6382 197.355Z" fill="#E6E6E6"/>
<path d="M56.1964 197.355H53.7319C53.5068 197.355 53.3243 197.537 53.3243 197.762V198.915C53.3243 199.14 53.5068 199.322 53.7319 199.322H56.1964C56.4215 199.322 56.604 199.14 56.604 198.915V197.762C56.604 197.537 56.4215 197.355 56.1964 197.355Z" fill="#E6E6E6"/>
<path d="M62.7561 197.355H60.2917C60.0666 197.355 59.8841 197.537 59.8841 197.762V198.915C59.8841 199.14 60.0666 199.322 60.2917 199.322H62.7561C62.9812 199.322 63.1637 199.14 63.1637 198.915V197.762C63.1637 197.537 62.9812 197.355 62.7561 197.355Z" fill="#E6E6E6"/>
<path d="M69.3159 197.355H66.8514C66.6263 197.355 66.4438 197.537 66.4438 197.762V198.915C66.4438 199.14 66.6263 199.322 66.8514 199.322H69.3159C69.541 199.322 69.7234 199.14 69.7234 198.915V197.762C69.7234 197.537 69.541 197.355 69.3159 197.355Z" fill="#E6E6E6"/>
<path d="M75.874 197.355H73.4095C73.1844 197.355 73.002 197.537 73.002 197.762V198.915C73.002 199.14 73.1844 199.322 73.4095 199.322H75.874C76.0991 199.322 76.2816 199.14 76.2816 198.915V197.762C76.2816 197.537 76.0991 197.355 75.874 197.355Z" fill="#E6E6E6"/>
<path d="M82.4337 197.355H79.9693C79.7442 197.355 79.5617 197.537 79.5617 197.762V198.915C79.5617 199.14 79.7442 199.322 79.9693 199.322H82.4337C82.6588 199.322 82.8413 199.14 82.8413 198.915V197.762C82.8413 197.537 82.6588 197.355 82.4337 197.355Z" fill="#E6E6E6"/>
<path d="M88.9935 197.355H86.5291C86.304 197.355 86.1215 197.537 86.1215 197.762V198.915C86.1215 199.14 86.304 199.322 86.5291 199.322H88.9935C89.2186 199.322 89.4011 199.14 89.4011 198.915V197.762C89.4011 197.537 89.2186 197.355 88.9935 197.355Z" fill="#E6E6E6"/>
<path d="M95.5517 197.355H93.0872C92.8621 197.355 92.6796 197.537 92.6796 197.762V198.915C92.6796 199.14 92.8621 199.322 93.0872 199.322H95.5517C95.7768 199.322 95.9592 199.14 95.9592 198.915V197.762C95.9592 197.537 95.7768 197.355 95.5517 197.355Z" fill="#E6E6E6"/>
<path d="M102.111 197.355H99.6469C99.4219 197.355 99.2394 197.537 99.2394 197.762V198.915C99.2394 199.14 99.4219 199.322 99.6469 199.322H102.111C102.337 199.322 102.519 199.14 102.519 198.915V197.762C102.519 197.537 102.337 197.355 102.111 197.355Z" fill="#E6E6E6"/>
<path d="M108.671 197.355H106.207C105.982 197.355 105.799 197.537 105.799 197.762V198.915C105.799 199.14 105.982 199.322 106.207 199.322H108.671C108.896 199.322 109.079 199.14 109.079 198.915V197.762C109.079 197.537 108.896 197.355 108.671 197.355Z" fill="#E6E6E6"/>
<path d="M115.229 197.355H112.765C112.54 197.355 112.357 197.537 112.357 197.762V198.915C112.357 199.14 112.54 199.322 112.765 199.322H115.229C115.454 199.322 115.637 199.14 115.637 198.915V197.762C115.637 197.537 115.454 197.355 115.229 197.355Z" fill="#E6E6E6"/>
<path d="M121.789 197.355H119.325C119.099 197.355 118.917 197.537 118.917 197.762V198.915C118.917 199.14 119.099 199.322 119.325 199.322H121.789C122.014 199.322 122.197 199.14 122.197 198.915V197.762C122.197 197.537 122.014 197.355 121.789 197.355Z" fill="#E6E6E6"/>
<path d="M128.349 197.355H125.884C125.659 197.355 125.477 197.537 125.477 197.762V198.915C125.477 199.14 125.659 199.322 125.884 199.322H128.349C128.574 199.322 128.756 199.14 128.756 198.915V197.762C128.756 197.537 128.574 197.355 128.349 197.355Z" fill="#E6E6E6"/>
<path d="M134.907 197.355H132.442C132.217 197.355 132.035 197.537 132.035 197.762V198.915C132.035 199.14 132.217 199.322 132.442 199.322H134.907C135.132 199.322 135.315 199.14 135.315 198.915V197.762C135.315 197.537 135.132 197.355 134.907 197.355Z" fill="#E6E6E6"/>
<path d="M141.467 197.355H139.002C138.777 197.355 138.595 197.537 138.595 197.762V198.915C138.595 199.14 138.777 199.322 139.002 199.322H141.467C141.692 199.322 141.874 199.14 141.874 198.915V197.762C141.874 197.537 141.692 197.355 141.467 197.355Z" fill="#E6E6E6"/>
<path d="M148.026 197.355H145.562C145.337 197.355 145.154 197.537 145.154 197.762V198.915C145.154 199.14 145.337 199.322 145.562 199.322H148.026C148.252 199.322 148.434 199.14 148.434 198.915V197.762C148.434 197.537 148.252 197.355 148.026 197.355Z" fill="#E6E6E6"/>
<path d="M49.56 200.634H47.0955C46.8704 200.634 46.6879 200.817 46.6879 201.042V202.195C46.6879 202.42 46.8704 202.602 47.0955 202.602H49.56C49.7851 202.602 49.9675 202.42 49.9675 202.195V201.042C49.9675 200.817 49.7851 200.634 49.56 200.634Z" fill="#E6E6E6"/>
<path d="M56.1197 200.634H53.6552C53.4302 200.634 53.2477 200.817 53.2477 201.042V202.195C53.2477 202.42 53.4302 202.602 53.6552 202.602H56.1197C56.3448 202.602 56.5273 202.42 56.5273 202.195V201.042C56.5273 200.817 56.3448 200.634 56.1197 200.634Z" fill="#E6E6E6"/>
<path d="M62.6795 200.634H60.215C59.9899 200.634 59.8074 200.817 59.8074 201.042V202.195C59.8074 202.42 59.9899 202.602 60.215 202.602H62.6795C62.9046 202.602 63.0871 202.42 63.0871 202.195V201.042C63.0871 200.817 62.9046 200.634 62.6795 200.634Z" fill="#E6E6E6"/>
<path d="M69.2376 200.634H66.7731C66.548 200.634 66.3656 200.817 66.3656 201.042V202.195C66.3656 202.42 66.548 202.602 66.7731 202.602H69.2376C69.4627 202.602 69.6452 202.42 69.6452 202.195V201.042C69.6452 200.817 69.4627 200.634 69.2376 200.634Z" fill="#E6E6E6"/>
<path d="M75.7974 200.634H73.3329C73.1078 200.634 72.9253 200.817 72.9253 201.042V202.195C72.9253 202.42 73.1078 202.602 73.3329 202.602H75.7974C76.0225 202.602 76.2049 202.42 76.2049 202.195V201.042C76.2049 200.817 76.0225 200.634 75.7974 200.634Z" fill="#E6E6E6"/>
<path d="M82.3571 200.634H79.8926C79.6675 200.634 79.4851 200.817 79.4851 201.042V202.195C79.4851 202.42 79.6675 202.602 79.8926 202.602H82.3571C82.5822 202.602 82.7647 202.42 82.7647 202.195V201.042C82.7647 200.817 82.5822 200.634 82.3571 200.634Z" fill="#E6E6E6"/>
<path d="M88.9153 200.634H86.4508C86.2257 200.634 86.0432 200.817 86.0432 201.042V202.195C86.0432 202.42 86.2257 202.602 86.4508 202.602H88.9153C89.1404 202.602 89.3228 202.42 89.3228 202.195V201.042C89.3228 200.817 89.1404 200.634 88.9153 200.634Z" fill="#E6E6E6"/>
<path d="M95.475 200.634H93.0105C92.7854 200.634 92.603 200.817 92.603 201.042V202.195C92.603 202.42 92.7854 202.602 93.0105 202.602H95.475C95.7001 202.602 95.8826 202.42 95.8826 202.195V201.042C95.8826 200.817 95.7001 200.634 95.475 200.634Z" fill="#E6E6E6"/>
<path d="M102.035 200.634H99.5703C99.3452 200.634 99.1627 200.817 99.1627 201.042V202.195C99.1627 202.42 99.3452 202.602 99.5703 202.602H102.035C102.26 202.602 102.442 202.42 102.442 202.195V201.042C102.442 200.817 102.26 200.634 102.035 200.634Z" fill="#E6E6E6"/>
<path d="M108.593 200.634H106.128C105.903 200.634 105.721 200.817 105.721 201.042V202.195C105.721 202.42 105.903 202.602 106.128 202.602H108.593C108.818 202.602 109 202.42 109 202.195V201.042C109 200.817 108.818 200.634 108.593 200.634Z" fill="#E6E6E6"/>
<path d="M115.153 200.634H112.688C112.463 200.634 112.281 200.817 112.281 201.042V202.195C112.281 202.42 112.463 202.602 112.688 202.602H115.153C115.378 202.602 115.56 202.42 115.56 202.195V201.042C115.56 200.817 115.378 200.634 115.153 200.634Z" fill="#E6E6E6"/>
<path d="M121.712 200.634H119.248C119.023 200.634 118.84 200.817 118.84 201.042V202.195C118.84 202.42 119.023 202.602 119.248 202.602H121.712C121.937 202.602 122.12 202.42 122.12 202.195V201.042C122.12 200.817 121.937 200.634 121.712 200.634Z" fill="#E6E6E6"/>
<path d="M128.271 200.634H125.806C125.581 200.634 125.398 200.817 125.398 201.042V202.195C125.398 202.42 125.581 202.602 125.806 202.602H128.271C128.496 202.602 128.678 202.42 128.678 202.195V201.042C128.678 200.817 128.496 200.634 128.271 200.634Z" fill="#E6E6E6"/>
<path d="M134.83 200.634H132.366C132.141 200.634 131.958 200.817 131.958 201.042V202.195C131.958 202.42 132.141 202.602 132.366 202.602H134.83C135.055 202.602 135.238 202.42 135.238 202.195V201.042C135.238 200.817 135.055 200.634 134.83 200.634Z" fill="#E6E6E6"/>
<path d="M141.39 200.634H138.926C138.7 200.634 138.518 200.817 138.518 201.042V202.195C138.518 202.42 138.7 202.602 138.926 202.602H141.39C141.615 202.602 141.798 202.42 141.798 202.195V201.042C141.798 200.817 141.615 200.634 141.39 200.634Z" fill="#E6E6E6"/>
<path d="M147.948 200.634H145.484C145.259 200.634 145.076 200.817 145.076 201.042V202.195C145.076 202.42 145.259 202.602 145.484 202.602H147.948C148.173 202.602 148.356 202.42 148.356 202.195V201.042C148.356 200.817 148.173 200.634 147.948 200.634Z" fill="#E6E6E6"/>
<path d="M104.002 204.57H78.58C78.355 204.57 78.1725 204.752 78.1725 204.977V206.13C78.1725 206.355 78.355 206.538 78.58 206.538H104.002C104.227 206.538 104.409 206.355 104.409 206.13V204.977C104.409 204.752 104.227 204.57 104.002 204.57Z" fill="#E6E6E6"/>
<path d="M87.25 115H69.75C69.2858 115 68.8407 114.842 68.5125 114.561C68.1843 114.279 68 113.898 68 113.5C68 113.102 68.1843 112.721 68.5125 112.439C68.8407 112.158 69.2858 112 69.75 112H87.25C87.7142 112 88.1593 112.158 88.4875 112.439C88.8157 112.721 89 113.102 89 113.5C89 113.898 88.8157 114.279 88.4875 114.561C88.1593 114.842 87.7142 115 87.25 115Z" fill="#EF9635"/>
<path d="M118.25 115H100.75C100.52 115 100.293 114.961 100.08 114.886C99.868 114.81 99.675 114.7 99.5125 114.561C99.35 114.421 99.2211 114.256 99.1332 114.074C99.0453 113.892 99 113.697 99 113.5C99 113.303 99.0453 113.108 99.1332 112.926C99.2211 112.744 99.35 112.579 99.5125 112.439C99.675 112.3 99.868 112.19 100.08 112.114C100.293 112.039 100.52 112 100.75 112H118.25C118.48 112 118.707 112.039 118.92 112.114C119.132 112.19 119.325 112.3 119.487 112.439C119.65 112.579 119.779 112.744 119.867 112.926C119.955 113.108 120 113.303 120 113.5C120 113.697 119.955 113.892 119.867 114.074C119.779 114.256 119.65 114.421 119.487 114.561C119.325 114.7 119.132 114.81 118.92 114.886C118.707 114.961 118.48 115 118.25 115Z" fill="#EF9635"/>
<path d="M134.25 129H116.75C116.52 129 116.293 128.961 116.08 128.886C115.868 128.81 115.675 128.7 115.513 128.561C115.35 128.421 115.221 128.256 115.133 128.074C115.045 127.892 115 127.697 115 127.5C115 127.303 115.045 127.108 115.133 126.926C115.221 126.744 115.35 126.579 115.513 126.439C115.675 126.3 115.868 126.19 116.08 126.114C116.293 126.039 116.52 126 116.75 126H134.25C134.48 126 134.707 126.039 134.92 126.114C135.132 126.19 135.325 126.3 135.487 126.439C135.65 126.579 135.779 126.744 135.867 126.926C135.955 127.108 136 127.303 136 127.5C136 127.697 135.955 127.892 135.867 128.074C135.779 128.256 135.65 128.421 135.487 128.561C135.325 128.7 135.132 128.81 134.92 128.886C134.707 128.961 134.48 129 134.25 129Z" fill="#EF9635"/>
<path d="M103.243 129H69.7573C69.2912 129 68.8442 128.842 68.5147 128.561C68.1851 128.279 68 127.898 68 127.5C68 127.102 68.1851 126.721 68.5147 126.439C68.8442 126.158 69.2912 126 69.7573 126H103.243C103.709 126 104.156 126.158 104.485 126.439C104.815 126.721 105 127.102 105 127.5C105 127.898 104.815 128.279 104.485 128.561C104.156 128.842 103.709 129 103.243 129Z" fill="#EF9635"/>
<path d="M165.243 115H131.757C131.291 115 130.844 114.842 130.515 114.561C130.185 114.279 130 113.898 130 113.5C130 113.102 130.185 112.721 130.515 112.439C130.844 112.158 131.291 112 131.757 112H165.243C165.474 112 165.702 112.039 165.915 112.114C166.128 112.19 166.322 112.3 166.485 112.439C166.649 112.579 166.778 112.744 166.866 112.926C166.955 113.108 167 113.303 167 113.5C167 113.697 166.955 113.892 166.866 114.074C166.778 114.256 166.649 114.421 166.485 114.561C166.322 114.7 166.128 114.81 165.915 114.886C165.702 114.961 165.474 115 165.243 115Z" fill="#EF9635"/>
<path d="M76.0529 82H38.952C38.6959 82.0007 38.4422 81.9494 38.2054 81.8492C37.9686 81.749 37.7534 81.6018 37.572 81.416C37.3907 81.2302 37.2468 81.0095 37.1487 80.7666C37.0505 80.5236 37 80.2631 37 80C37 79.7369 37.0505 79.4764 37.1487 79.2334C37.2468 78.9905 37.3907 78.7698 37.572 78.584C37.7534 78.3982 37.9686 78.251 38.2054 78.1508C38.4422 78.0506 38.6959 77.9993 38.952 78H76.0529C76.5693 78 77.0646 78.2107 77.4297 78.5858C77.7948 78.9609 78 79.4696 78 80C78 80.5304 77.7948 81.0391 77.4297 81.4142C77.0646 81.7893 76.5693 82 76.0529 82Z" fill="#264B8D"/>
<path d="M75.4963 91C75.1845 91.0002 74.8806 90.9042 74.6268 90.7257C74.3731 90.5471 74.1822 90.2948 74.081 90.004C73.9798 89.7132 73.9733 89.3985 74.0623 89.1039C74.1514 88.8093 74.3315 88.5495 74.5776 88.3608L82.7261 82.1148C83.0535 81.8638 83.3245 81.5485 83.5219 81.1888C83.7193 80.8291 83.8388 80.433 83.8728 80.0254C83.9069 79.6178 83.8547 79.2077 83.7196 78.821C83.5845 78.4344 83.3695 78.0796 83.0881 77.7792L76.247 70.4758C76.1137 70.3335 76.0102 70.1668 75.9422 69.9851C75.8743 69.8034 75.8432 69.6103 75.851 69.4168C75.8587 69.2232 75.905 69.0331 75.9872 68.8572C76.0695 68.6813 76.1861 68.5232 76.3303 68.3917C76.4745 68.2603 76.6436 68.1581 76.8279 68.0911C77.0121 68.0241 77.208 67.9935 77.4042 68.0011C77.6005 68.0088 77.7932 68.0545 77.9716 68.1356C78.1499 68.2167 78.3104 68.3316 78.4437 68.4738L88.6028 79.3189C88.7434 79.4689 88.8508 79.6461 88.9183 79.8392C88.9858 80.0323 89.0119 80.2371 88.995 80.4407C88.978 80.6442 88.9184 80.8421 88.8198 81.0218C88.7213 81.2014 88.5859 81.3589 88.4224 81.4843L76.4135 90.6897C76.1514 90.891 75.8286 91.0002 75.4963 91Z" fill="#264B8D"/>
<path d="M39.4039 91C39.7364 91.0002 40.0607 90.9042 40.3314 90.7257C40.602 90.5471 40.8056 90.2948 40.9136 90.004C41.0215 89.7132 41.0285 89.3985 40.9335 89.1039C40.8386 88.8093 40.6464 88.5495 40.3838 88.3608L31.6922 82.1148C31.3429 81.8638 31.0539 81.5485 30.8433 81.1888C30.6327 80.8291 30.5053 80.433 30.469 80.0254C30.4327 79.6178 30.4883 79.2077 30.6324 78.821C30.7765 78.4344 31.0059 78.0796 31.306 77.7792L38.6031 70.4758C38.7453 70.3335 38.8558 70.1668 38.9283 69.9851C39.0007 69.8034 39.0339 69.6103 39.0256 69.4168C39.0174 69.2232 38.968 69.0331 38.8803 68.8572C38.7925 68.6813 38.6682 68.5232 38.5143 68.3917C38.3605 68.2603 38.1802 68.1581 37.9836 68.0911C37.7871 68.0241 37.5781 67.9935 37.3688 68.0011C37.1595 68.0088 36.9538 68.0545 36.7636 68.1356C36.5734 68.2167 36.4023 68.3316 36.2601 68.4738L25.4237 79.3189C25.2737 79.4689 25.1591 79.6461 25.0871 79.8392C25.0151 80.0323 24.9873 80.2371 25.0054 80.4407C25.0234 80.6442 25.087 80.8421 25.1922 81.0218C25.2973 81.2014 25.4417 81.3589 25.6161 81.4843L38.4255 90.6897C38.7051 90.891 39.0495 91.0002 39.4039 91Z" fill="#264B8D"/>
<path d="M145.29 156H112.71C112.256 156 111.821 155.842 111.501 155.561C111.18 155.279 111 154.898 111 154.5C111 154.102 111.18 153.721 111.501 153.439C111.821 153.158 112.256 153 112.71 153H145.29C145.744 153 146.179 153.158 146.499 153.439C146.82 153.721 147 154.102 147 154.5C147 154.898 146.82 155.279 146.499 155.561C146.179 155.842 145.744 156 145.29 156Z" fill="#264B8D"/>
<path d="M151.496 165C151.185 165 150.881 164.9 150.627 164.714C150.373 164.527 150.182 164.264 150.081 163.961C149.98 163.657 149.973 163.329 150.062 163.021C150.151 162.714 150.332 162.443 150.578 162.246L158.726 155.728C159.053 155.467 159.324 155.138 159.522 154.762C159.719 154.387 159.839 153.974 159.873 153.548C159.907 153.123 159.855 152.695 159.72 152.291C159.585 151.888 159.369 151.518 159.088 151.204L152.247 143.583C152.114 143.435 152.01 143.261 151.942 143.071C151.874 142.882 151.843 142.68 151.851 142.478C151.859 142.276 151.905 142.078 151.987 141.894C152.069 141.711 152.186 141.546 152.33 141.409C152.475 141.272 152.644 141.165 152.828 141.095C153.012 141.025 153.208 140.993 153.404 141.001C153.6 141.009 153.793 141.057 153.972 141.141C154.15 141.226 154.31 141.346 154.444 141.494L164.603 152.811C164.743 152.968 164.851 153.152 164.918 153.354C164.986 153.555 165.012 153.769 164.995 153.982C164.978 154.194 164.918 154.4 164.82 154.588C164.721 154.775 164.586 154.94 164.422 155.071L152.414 164.676C152.151 164.886 151.829 165 151.496 165Z" fill="#264B8D"/>
<path d="M94.4039 165C94.7364 165 95.0607 164.9 95.3314 164.714C95.602 164.527 95.8056 164.264 95.9136 163.961C96.0215 163.657 96.0285 163.329 95.9335 163.021C95.8386 162.714 95.6464 162.443 95.3838 162.246L86.6922 155.728C86.3429 155.467 86.0539 155.138 85.8433 154.762C85.6327 154.387 85.5053 153.974 85.469 153.548C85.4327 153.123 85.4883 152.695 85.6324 152.291C85.7765 151.888 86.0059 151.518 86.306 151.204L93.6031 143.583C93.8903 143.284 94.0423 142.886 94.0256 142.478C94.009 142.071 93.825 141.686 93.5143 141.409C93.2036 141.132 92.7916 140.985 92.3688 141.001C91.9461 141.017 91.5473 141.195 91.2601 141.494L80.4237 152.811C80.2737 152.968 80.1591 153.152 80.0871 153.354C80.0151 153.555 79.9873 153.769 80.0054 153.982C80.0234 154.194 80.087 154.4 80.1922 154.588C80.2973 154.775 80.4417 154.94 80.6161 155.071L93.4255 164.676C93.7051 164.886 94.0495 165 94.4039 165Z" fill="#264B8D"/>
<path d="M97.1426 159.609L103.812 144.013C103.99 143.602 104.321 143.279 104.731 143.116C105.142 142.953 105.598 142.962 106.002 143.143C106.405 143.323 106.722 143.659 106.884 144.078C107.045 144.497 107.038 144.964 106.864 145.377L100.194 160.972C100.107 161.178 99.9813 161.364 99.8237 161.52C99.6662 161.676 99.4801 161.799 99.276 161.881C99.072 161.964 98.8541 162.004 98.6348 162C98.4155 161.996 98.1991 161.947 97.9981 161.858C97.7972 161.768 97.6155 161.638 97.4637 161.476C97.3118 161.315 97.1927 161.124 97.1132 160.915C97.0337 160.706 96.9954 160.483 97.0004 160.259C97.0055 160.035 97.0538 159.814 97.1426 159.609Z" fill="#264B8D"/>
</svg>
