<svg width="284" height="275" viewBox="0 0 284 275" fill="none" xmlns="http://www.w3.org/2000/svg">
<g opacity="0.15">
<path d="M173.968 90.1453H30V0H173.968V90.1453Z" fill="white"/>
<path d="M173.968 90.1453H30V0H173.968V90.1453ZM30.6574 89.4873H173.311V0.657996H30.6574V89.4873Z" fill="#3F3D56"/>
<path d="M156.383 215H74.2091V124.855H156.383V215Z" fill="white"/>
<path d="M156 215H62V111H156V215ZM62.752 214.241H155.248V111.759H62.752V214.241Z" fill="#3F3D56"/>
<path d="M146 200H120V201H146V200Z" fill="#3F3D56"/>
<path d="M146 203H120V204H146V203Z" fill="#3F3D56"/>
<path d="M146 206H120V207H146V206Z" fill="#3F3D56"/>
<path d="M108 124V132.494C113.043 132.494 117.974 133.988 122.167 136.788C126.36 139.588 129.629 143.568 131.559 148.224C133.489 152.88 133.994 158.004 133.01 162.947C132.026 167.89 129.597 172.43 126.031 175.994L132.042 182C136.797 177.248 140.035 171.195 141.347 164.604C142.659 158.013 141.985 151.182 139.412 144.974C136.839 138.765 132.481 133.459 126.889 129.726C121.298 125.993 114.725 124 108 124Z" fill="#E6E6E6"/>
<path d="M132 182.022L125.938 176C121.54 180.369 115.698 183.007 109.493 183.425C103.287 183.843 97.14 182.012 92.1892 178.273L87 185.056C93.6022 190.04 101.799 192.48 110.073 191.922C118.346 191.364 126.136 187.847 132 182.022Z" fill="#EF9635"/>
<path d="M82.5 157.961C82.5 154.617 83.1596 151.304 84.4411 148.214C85.7226 145.124 87.6009 142.316 89.9688 139.951C92.3367 137.585 95.1478 135.709 98.2416 134.429C101.335 133.149 104.651 132.49 108 132.49V124C100.882 124 93.9444 126.231 88.1638 130.379C82.3831 134.527 78.0514 140.382 75.7791 147.119C73.5069 153.857 73.4088 161.136 75.4985 167.933C77.5883 174.729 81.7607 180.698 87.4274 185L92.5722 178.238C89.4396 175.865 86.9001 172.799 85.1526 169.281C83.4051 165.763 82.4972 161.889 82.5 157.961Z" fill="#264B8D"/>
<path d="M278 159.071H195.826V68.9251H278V159.071Z" fill="white"/>
<path d="M284 183H179V68H284V183ZM179.84 182.161H283.16V68.8394H179.84V182.161Z" fill="#3F3D56"/>
<path d="M213 138H194V169H213V138Z" fill="#EF9635"/>
<path d="M240 118H221V169H240V118Z" fill="#264B8D"/>
<path d="M268 94H249V169H268V94Z" fill="#7D93BB"/>
<path d="M274 170H189V82H189.841V169.158H274V170Z" fill="#3F3D56"/>
<path d="M153.975 71.2925H49.994C49.9077 71.2925 49.8249 71.2582 49.7639 71.1971C49.7028 71.136 49.6686 71.0532 49.6685 70.9668V21.0829C49.6685 20.9965 49.7028 20.9137 49.7639 20.8526C49.8249 20.7915 49.9077 20.7572 49.994 20.7572C50.0803 20.7572 50.163 20.7915 50.2241 20.8526C50.2851 20.9137 50.3194 20.9965 50.3194 21.0829V70.6411H153.975C154.017 70.6409 154.06 70.6493 154.099 70.6656C154.139 70.6819 154.175 70.7058 154.205 70.7361C154.236 70.7663 154.26 70.8023 154.276 70.8419C154.293 70.8815 154.301 70.9239 154.301 70.9668C154.301 71.0097 154.293 71.0521 154.276 71.0917C154.26 71.1313 154.236 71.1672 154.205 71.1975C154.175 71.2278 154.139 71.2517 154.099 71.268C154.06 71.2843 154.017 71.2927 153.975 71.2925Z" fill="#3F3D56"/>
<path d="M72.2101 67.7097H62.7526C62.4965 67.7094 62.251 67.6075 62.0699 67.4262C61.8888 67.245 61.787 66.9992 61.7867 66.7429V53.6937C61.787 53.4374 61.8888 53.1917 62.0699 53.0104C62.251 52.8292 62.4965 52.7272 62.7526 52.7269H72.2101C72.4662 52.7272 72.7117 52.8292 72.8928 53.0104C73.0739 53.1917 73.1758 53.4374 73.1761 53.6937V66.7429C73.1758 66.9992 73.0739 67.245 72.8928 67.4262C72.7117 67.6075 72.4662 67.7094 72.2101 67.7097Z" fill="#E6E6E6"/>
<path d="M89.4566 67.7097H79.9992C79.7431 67.7094 79.4976 67.6074 79.3165 67.4262C79.1354 67.2449 79.0335 66.9992 79.0332 66.7429V41.3167C79.0335 41.0603 79.1354 40.8146 79.3165 40.6333C79.4976 40.4521 79.7431 40.3501 79.9992 40.3499H89.4566C89.7127 40.3501 89.9583 40.4521 90.1393 40.6333C90.3204 40.8146 90.4223 41.0603 90.4226 41.3167V66.7429C90.4223 66.9992 90.3204 67.2449 90.1393 67.4262C89.9583 67.6074 89.7127 67.7094 89.4566 67.7097Z" fill="#E6E6E6"/>
<path d="M106.704 67.7097H97.2464C96.9904 67.7094 96.7448 67.6075 96.5637 67.4262C96.3826 67.245 96.2808 66.9992 96.2805 66.7429V53.6937C96.2808 53.4374 96.3826 53.1917 96.5637 53.0104C96.7448 52.8292 96.9904 52.7272 97.2464 52.7269H106.704C106.96 52.7272 107.206 52.8292 107.387 53.0104C107.568 53.1917 107.67 53.4374 107.67 53.6937V66.7429C107.67 66.9992 107.568 67.245 107.387 67.4262C107.206 67.6075 106.96 67.7094 106.704 67.7097Z" fill="#7D93BB"/>
<path d="M123.95 67.7095H114.493C114.243 67.7149 114.001 67.6207 113.819 67.4477C113.638 67.2747 113.533 67.0369 113.527 66.7865V36.387C113.533 36.1365 113.638 35.8987 113.819 35.7257C114.001 35.5527 114.243 35.4586 114.493 35.464H123.95C124.201 35.4586 124.443 35.5527 124.624 35.7257C124.805 35.8987 124.91 36.1365 124.916 36.387V66.7865C124.91 67.0369 124.805 67.2747 124.624 67.4477C124.443 67.6207 124.201 67.7149 123.95 67.7095Z" fill="#E6E6E6"/>
<path d="M141.197 67.7096H131.74C131.483 67.7094 131.238 67.6074 131.057 67.4262C130.876 67.2449 130.774 66.9992 130.774 66.7428V27.6367C130.774 27.3804 130.876 27.1346 131.057 26.9534C131.238 26.7722 131.483 26.6702 131.74 26.6699H141.197C141.453 26.6702 141.699 26.7722 141.88 26.9534C142.061 27.1346 142.163 27.3804 142.163 27.6367V66.7428C142.163 66.9992 142.061 67.2449 141.88 67.4262C141.699 67.6074 141.453 67.7094 141.197 67.7096Z" fill="#264B8D"/>
<path d="M67.4808 48.8185C68.5591 48.8185 69.4333 47.9435 69.4333 46.8642C69.4333 45.7849 68.5591 44.9099 67.4808 44.9099C66.4025 44.9099 65.5284 45.7849 65.5284 46.8642C65.5284 47.9435 66.4025 48.8185 67.4808 48.8185Z" fill="#EF9635"/>
<path d="M84.7281 36.1154C85.8064 36.1154 86.6806 35.2404 86.6806 34.1611C86.6806 33.0818 85.8064 32.2068 84.7281 32.2068C83.6498 32.2068 82.7756 33.0818 82.7756 34.1611C82.7756 35.2404 83.6498 36.1154 84.7281 36.1154Z" fill="#EF9635"/>
<path d="M101.975 48.8185C103.053 48.8185 103.927 47.9435 103.927 46.8642C103.927 45.7849 103.053 44.9099 101.975 44.9099C100.896 44.9099 100.022 45.7849 100.022 46.8642C100.022 47.9435 100.896 48.8185 101.975 48.8185Z" fill="#EF9635"/>
<path d="M119.222 29.9272C120.3 29.9272 121.174 29.0523 121.174 27.9729C121.174 26.8936 120.3 26.0187 119.222 26.0187C118.144 26.0187 117.269 26.8936 117.269 27.9729C117.269 29.0523 118.144 29.9272 119.222 29.9272Z" fill="#EF9635"/>
<path d="M136.468 22.7615C137.547 22.7615 138.421 21.8865 138.421 20.8072C138.421 19.7279 137.547 18.8529 136.468 18.8529C135.39 18.8529 134.516 19.7279 134.516 20.8072C134.516 21.8865 135.39 22.7615 136.468 22.7615Z" fill="#EF9635"/>
<path d="M102.015 47.302L84.7277 34.3412L67.6758 47.1249L67.2857 46.6034L84.7277 33.5271L101.933 46.4263L119.031 27.6987L119.1 27.6707L136.346 20.7151L136.59 21.3197L119.411 28.2474L102.015 47.302Z" fill="#EF9635"/>
</g>
<path d="M143.968 150.145H0V60H143.968V150.145Z" fill="white"/>
<path d="M143.968 150.145H0V60H143.968V150.145ZM0.65739 149.487H143.311V60.658H0.65739V149.487Z" fill="#3F3D56"/>
<path d="M126 275H32V171H126V275Z" fill="white"/>
<path d="M126 275H32V171H126V275ZM32.752 274.241H125.248V171.759H32.752V274.241Z" fill="#3F3D56"/>
<path d="M116 260H90V261H116V260Z" fill="#3F3D56"/>
<path d="M116 263H90V264H116V263Z" fill="#3F3D56"/>
<path d="M116 266H90V267H116V266Z" fill="#3F3D56"/>
<path d="M78 184V192.494C83.0434 192.494 87.9736 193.988 92.167 196.788C96.3605 199.588 99.6289 203.568 101.559 208.224C103.489 212.88 103.994 218.004 103.01 222.947C102.026 227.89 99.5975 232.43 96.0312 235.994L102.042 242C106.797 237.248 110.035 231.195 111.347 224.604C112.659 218.013 111.985 211.182 109.412 204.974C106.839 198.765 102.481 193.459 96.8894 189.726C91.2981 185.993 84.7246 184 78 184Z" fill="#E6E6E6"/>
<path d="M102 242.022L95.9376 236C91.5403 240.369 85.6978 243.007 79.4926 243.425C73.2874 243.843 67.14 242.012 62.1892 238.273L57 245.056C63.6022 250.04 71.799 252.48 80.0727 251.922C88.3463 251.364 96.1363 247.847 102 242.022Z" fill="#EF9635"/>
<path d="M52.5 217.961C52.5 214.617 53.1596 211.304 54.4411 208.214C55.7226 205.124 57.6009 202.316 59.9688 199.951C62.3367 197.585 65.1478 195.709 68.2416 194.429C71.3354 193.149 74.6513 192.49 78 192.49V184C70.8825 184 63.9444 186.231 58.1638 190.379C52.3831 194.527 48.0514 200.382 45.7791 207.119C43.5069 213.857 43.4088 221.136 45.4985 227.933C47.5883 234.729 51.7607 240.698 57.4274 245L62.5722 238.238C59.4396 235.865 56.9001 232.799 55.1526 229.281C53.4051 225.763 52.4972 221.889 52.5 217.961Z" fill="#264B8D"/>
<path d="M254 242H149V129H254V242Z" fill="white"/>
<path d="M254 243H149V128H254V243ZM149.84 242.161H253.16V128.839H149.84V242.161Z" fill="#3F3D56"/>
<path d="M183 198H164V229H183V198Z" fill="#EF9635"/>
<path d="M210 178H191V229H210V178Z" fill="#264B8D"/>
<path d="M238 154H219V229H238V154Z" fill="#7D93BB"/>
<path d="M244 230H159V142H159.841V229.158H244V230Z" fill="#3F3D56"/>
<path d="M123.975 131.293H19.994C19.9077 131.293 19.8249 131.258 19.7639 131.197C19.7028 131.136 19.6686 131.053 19.6685 130.967V81.0829C19.6685 80.9965 19.7028 80.9137 19.7639 80.8526C19.8249 80.7915 19.9077 80.7572 19.994 80.7572C20.0803 80.7572 20.163 80.7915 20.2241 80.8526C20.2851 80.9137 20.3194 80.9965 20.3194 81.0829V130.641H123.975C124.017 130.641 124.06 130.649 124.099 130.666C124.139 130.682 124.175 130.706 124.205 130.736C124.236 130.766 124.26 130.802 124.276 130.842C124.293 130.881 124.301 130.924 124.301 130.967C124.301 131.01 124.293 131.052 124.276 131.092C124.26 131.131 124.236 131.167 124.205 131.197C124.175 131.228 124.139 131.252 124.099 131.268C124.06 131.284 124.017 131.293 123.975 131.293Z" fill="#3F3D56"/>
<path d="M42.2101 127.71H32.7526C32.4965 127.709 32.251 127.607 32.0699 127.426C31.8888 127.245 31.787 126.999 31.7867 126.743V113.694C31.787 113.437 31.8888 113.192 32.0699 113.01C32.251 112.829 32.4965 112.727 32.7526 112.727H42.2101C42.4662 112.727 42.7117 112.829 42.8928 113.01C43.0739 113.192 43.1758 113.437 43.1761 113.694V126.743C43.1758 126.999 43.0739 127.245 42.8928 127.426C42.7117 127.607 42.4662 127.709 42.2101 127.71Z" fill="#E6E6E6"/>
<path d="M59.4566 127.71H49.9992C49.7431 127.709 49.4976 127.607 49.3165 127.426C49.1354 127.245 49.0335 126.999 49.0332 126.743V101.317C49.0335 101.06 49.1354 100.815 49.3165 100.633C49.4976 100.452 49.7431 100.35 49.9992 100.35H59.4566C59.7127 100.35 59.9583 100.452 60.1393 100.633C60.3204 100.815 60.4223 101.06 60.4226 101.317V126.743C60.4223 126.999 60.3204 127.245 60.1393 127.426C59.9583 127.607 59.7127 127.709 59.4566 127.71Z" fill="#E6E6E6"/>
<path d="M76.7039 127.71H67.2464C66.9904 127.709 66.7448 127.607 66.5637 127.426C66.3826 127.245 66.2808 126.999 66.2805 126.743V113.694C66.2808 113.437 66.3826 113.192 66.5637 113.01C66.7448 112.829 66.9904 112.727 67.2464 112.727H76.7039C76.96 112.727 77.2055 112.829 77.3866 113.01C77.5677 113.192 77.6696 113.437 77.6699 113.694V126.743C77.6696 126.999 77.5677 127.245 77.3866 127.426C77.2055 127.607 76.96 127.709 76.7039 127.71Z" fill="#7D93BB"/>
<path d="M93.9504 127.709H84.493C84.2427 127.715 84.0005 127.621 83.8195 127.448C83.6384 127.275 83.5332 127.037 83.527 126.786V96.387C83.5332 96.1365 83.6384 95.8987 83.8195 95.7257C84.0005 95.5527 84.2427 95.4586 84.493 95.464H93.9504C94.2007 95.4586 94.4429 95.5527 94.624 95.7257C94.805 95.8987 94.9102 96.1365 94.9164 96.387V126.786C94.9102 127.037 94.805 127.275 94.624 127.448C94.4429 127.621 94.2007 127.715 93.9504 127.709Z" fill="#E6E6E6"/>
<path d="M111.197 127.71H101.74C101.483 127.709 101.238 127.607 101.057 127.426C100.876 127.245 100.774 126.999 100.774 126.743V87.6367C100.774 87.3804 100.876 87.1346 101.057 86.9534C101.238 86.7722 101.483 86.6702 101.74 86.6699H111.197C111.453 86.6702 111.699 86.7722 111.88 86.9534C112.061 87.1346 112.163 87.3804 112.163 87.6367V126.743C112.163 126.999 112.061 127.245 111.88 127.426C111.699 127.607 111.453 127.709 111.197 127.71Z" fill="#264B8D"/>
<path d="M37.4808 108.818C38.5591 108.818 39.4333 107.944 39.4333 106.864C39.4333 105.785 38.5591 104.91 37.4808 104.91C36.4025 104.91 35.5284 105.785 35.5284 106.864C35.5284 107.944 36.4025 108.818 37.4808 108.818Z" fill="#EF9635"/>
<path d="M54.7281 96.1154C55.8064 96.1154 56.6806 95.2404 56.6806 94.1611C56.6806 93.0818 55.8064 92.2068 54.7281 92.2068C53.6498 92.2068 52.7756 93.0818 52.7756 94.1611C52.7756 95.2404 53.6498 96.1154 54.7281 96.1154Z" fill="#EF9635"/>
<path d="M71.9746 108.818C73.0529 108.818 73.9271 107.944 73.9271 106.864C73.9271 105.785 73.0529 104.91 71.9746 104.91C70.8963 104.91 70.0222 105.785 70.0222 106.864C70.0222 107.944 70.8963 108.818 71.9746 108.818Z" fill="#EF9635"/>
<path d="M89.2219 89.9272C90.3002 89.9272 91.1744 89.0523 91.1744 87.9729C91.1744 86.8936 90.3002 86.0187 89.2219 86.0187C88.1436 86.0187 87.2694 86.8936 87.2694 87.9729C87.2694 89.0523 88.1436 89.9272 89.2219 89.9272Z" fill="#EF9635"/>
<path d="M106.468 82.7615C107.547 82.7615 108.421 81.8865 108.421 80.8072C108.421 79.7279 107.547 78.8529 106.468 78.8529C105.39 78.8529 104.516 79.7279 104.516 80.8072C104.516 81.8865 105.39 82.7615 106.468 82.7615Z" fill="#EF9635"/>
<path d="M72.0154 107.302L54.7277 94.3412L37.6758 107.125L37.2857 106.603L54.7277 93.5271L71.9332 106.426L89.0312 87.6987L89.0998 87.6707L106.346 80.7151L106.59 81.3197L89.4114 88.2474L72.0154 107.302Z" fill="#EF9635"/>
</svg>
