<svg width="454" height="115" viewBox="0 0 454 115" fill="none" xmlns="http://www.w3.org/2000/svg">
<path d="M0 0H454V83.5585L230.547 115L0 84.1844L0 0Z" fill="#ED7973"/>
<path d="M158.107 35.4879C158.431 36.8919 158.575 38.6199 158.575 40.3119C158.575 43.3719 158.215 52.7319 158.215 57.5199C158.215 63.6039 161.995 66.1599 167.827 66.1599C175.963 66.1599 181.003 61.4079 183.307 58.0239L180.067 54.0279C177.511 57.9159 173.767 61.2999 167.863 61.2999C165.127 61.2999 162.967 60.1479 162.967 56.5479C162.967 52.1199 163.219 44.1279 163.399 40.3119C163.435 38.8719 163.615 37.0719 163.867 35.5599L158.107 35.4879Z" fill="white"/>
<path d="M199.579 35.1279C199.615 37.3599 199.327 39.9519 198.823 42.6879C197.023 42.8319 195.331 42.9399 194.215 42.9759C192.919 43.0119 191.731 43.0839 190.435 42.9759L190.831 47.7999C191.947 47.6199 193.783 47.3679 194.791 47.2599C195.475 47.1519 196.591 47.0079 197.851 46.8639C196.555 51.7239 194.143 58.8519 190.651 63.5319L195.331 65.4039C198.607 60.1479 201.199 51.7599 202.567 46.3599C203.575 46.2879 204.439 46.2159 205.015 46.2159C207.283 46.2159 208.507 46.6119 208.507 49.4559C208.507 52.9839 208.039 57.2319 207.031 59.2119C206.491 60.3999 205.555 60.7599 204.367 60.7599C203.431 60.7599 201.379 60.3999 200.011 60.0039L200.803 64.7199C201.991 65.0079 203.683 65.2239 205.051 65.2239C207.751 65.2239 209.731 64.4319 210.919 61.9479C212.431 58.8519 212.935 53.1639 212.935 48.9519C212.935 43.8399 210.271 42.1479 206.491 42.1479C205.771 42.1479 204.691 42.2199 203.503 42.2919C203.755 40.9959 204.043 39.6999 204.223 38.6199C204.403 37.7199 204.655 36.6039 204.871 35.6679L199.579 35.1279ZM212.863 40.8159C215.419 43.9839 217.975 50.4279 218.911 54.3879L223.411 52.2639C222.331 48.8799 219.343 42.0759 217.183 39.0159L212.863 40.8159Z" fill="white"/>
<path d="M233.707 35.4879C234.031 36.8919 234.175 38.6199 234.175 40.3119C234.175 43.3719 233.815 52.7319 233.815 57.5199C233.815 63.6039 237.595 66.1599 243.427 66.1599C251.563 66.1599 256.603 61.4079 258.907 58.0239L255.667 54.0279C253.111 57.9159 249.367 61.2999 243.463 61.2999C240.727 61.2999 238.567 60.1479 238.567 56.5479C238.567 52.1199 238.819 44.1279 238.999 40.3119C239.035 38.8719 239.215 37.0719 239.467 35.5599L233.707 35.4879Z" fill="white"/>
<path d="M269.671 64.5039C271.579 64.5039 272.983 62.9919 272.983 61.0479C272.983 59.1039 271.579 57.5919 269.671 57.5919C267.799 57.5919 266.395 59.1039 266.395 61.0479C266.395 62.9919 267.799 64.5039 269.671 64.5039Z" fill="white"/>
<path d="M283.178 64.5039C285.086 64.5039 286.49 62.9919 286.49 61.0479C286.49 59.1039 285.086 57.5919 283.178 57.5919C281.306 57.5919 279.902 59.1039 279.902 61.0479C279.902 62.9919 281.306 64.5039 283.178 64.5039Z" fill="white"/>
<path d="M296.685 64.5039C298.593 64.5039 299.997 62.9919 299.997 61.0479C299.997 59.1039 298.593 57.5919 296.685 57.5919C294.813 57.5919 293.409 59.1039 293.409 61.0479C293.409 62.9919 294.813 64.5039 296.685 64.5039Z" fill="white"/>
</svg>
