<svg width="90" height="90" viewBox="0 0 90 90" fill="none" xmlns="http://www.w3.org/2000/svg">
<mask id="mask0_471_2351" style="mask-type:alpha" maskUnits="userSpaceOnUse" x="0" y="0" width="90" height="90">
<path d="M0 0H90V90H0V0Z" fill="#D9D9D9"/>
</mask>
<g mask="url(#mask0_471_2351)">
<path d="M90 44.8628C90 69.7156 69.8528 89.8628 45 89.8628C20.1472 89.8628 0 69.7156 0 44.8628C0 20.01 20.1472 -0.137207 45 -0.137207C69.8528 -0.137207 90 20.01 90 44.8628Z" fill="#FA968C"/>
<path d="M29.8022 39.2803H22.3L26.7761 34.0161C28.1631 32.377 30.0544 30.1389 30.0544 27.2704C30.0544 23.6768 27.0913 20.9659 23.1826 20.9659C19.4315 20.9659 16.3423 23.5192 16.3423 27.2704H20.251C20.3771 25.5367 21.4804 24.6225 22.9619 24.6225C24.3804 24.6225 25.6728 25.5051 25.6728 27.2704C25.6728 28.6889 25.0109 30.0128 23.6554 31.5889L16.3738 40.1629V42.9999H29.8022V39.2803Z" fill="white"/>
<path d="M41.3091 31.8096C43.0743 31.8096 43.8308 33.165 43.8308 35.8129C43.8308 38.3662 42.8852 39.564 41.3091 39.564C39.8906 39.564 39.071 38.776 38.7243 37.389H34.3742C34.7209 41.2347 37.7786 43.2836 41.4352 43.2836C45.9113 43.2836 48.2439 40.7303 48.2439 35.5922C48.2439 30.3911 45.9113 27.8378 42.57 27.8378C40.9308 27.8378 39.9536 28.4052 39.3547 28.9726V25.253H47.4244V21.2496H35.0362V33.4172H39.008C39.4808 32.44 40.1743 31.8096 41.3091 31.8096Z" fill="white"/>
<path d="M66.7802 21.2496L54.6127 42.9999H58.5214L70.6574 21.2496H66.7802ZM73.9988 36.6955C73.9988 33.6063 72.3281 32.0302 69.2389 32.0302C66.2128 32.0302 64.5106 33.6379 64.5106 36.6955V38.5553C64.5106 41.613 66.1498 43.2836 69.2389 43.2836C72.6433 43.2836 73.9988 41.3923 73.9988 38.5553V36.6955ZM69.2389 40.5412C68.2302 40.5412 67.7889 39.9108 67.7889 38.5553V36.7901C67.7889 35.3716 68.2933 34.8042 69.2389 34.8042C70.2476 34.8042 70.752 35.34 70.752 36.7901V38.5553C70.752 39.9108 70.2792 40.5412 69.2389 40.5412ZM60.8856 25.6312C60.8856 22.5421 59.2149 20.9659 56.0942 20.9659C53.0996 20.9659 51.3974 22.5736 51.3974 25.6312V27.491C51.3974 30.5487 53.0365 32.2194 56.0942 32.2194C59.5301 32.2194 60.8856 30.328 60.8856 27.491V25.6312ZM56.1257 29.4769C55.0855 29.4769 54.6757 28.8465 54.6757 27.491V25.7258C54.6757 24.3073 55.1801 23.7399 56.1257 23.7399C57.1344 23.7399 57.6388 24.2758 57.6388 25.7258V27.491C57.6388 28.8465 57.1659 29.4769 56.1257 29.4769Z" fill="white"/>
<path d="M34.3232 58.9022V59.9026C34.3232 61.606 34.0872 63.1349 33.6151 64.4893C33.1534 65.8438 32.4915 66.9982 31.6296 67.9525C30.7779 68.9067 29.7621 69.6404 28.5821 70.1535C27.4123 70.6563 26.1143 70.9077 24.688 70.9077C23.2617 70.9077 21.9585 70.6563 20.7785 70.1535C19.5985 69.6404 18.5723 68.9067 17.7001 67.9525C16.8382 66.9982 16.1712 65.8438 15.6992 64.4893C15.2272 63.1349 14.9912 61.606 14.9912 59.9026V58.9022C14.9912 57.1988 15.2272 55.6699 15.6992 54.3154C16.1712 52.9507 16.8331 51.7912 17.6848 50.8369C18.5467 49.8826 19.5677 49.1541 20.7477 48.6513C21.9277 48.1382 23.2309 47.8817 24.6572 47.8817C26.0835 47.8817 27.3866 48.1382 28.5667 48.6513C29.7467 49.1541 30.7626 49.8826 31.6142 50.8369C32.4762 51.7912 33.1431 52.9507 33.6151 54.3154C34.0872 55.6699 34.3232 57.1988 34.3232 58.9022ZM29.2593 59.9026V58.8714C29.2593 57.7324 29.1567 56.7268 28.9515 55.8546C28.7462 54.9721 28.4487 54.2333 28.0587 53.6382C27.6688 53.0431 27.1866 52.5967 26.6119 52.2991C26.0373 51.9913 25.3857 51.8374 24.6572 51.8374C23.8979 51.8374 23.236 51.9913 22.6717 52.2991C22.1073 52.5967 21.6302 53.0431 21.2402 53.6382C20.8606 54.2333 20.5681 54.9721 20.3629 55.8546C20.1679 56.7268 20.0705 57.7324 20.0705 58.8714V59.9026C20.0705 61.0313 20.1679 62.0369 20.3629 62.9194C20.5681 63.7916 20.8657 64.5304 21.2556 65.1358C21.6455 65.7412 22.1227 66.1978 22.6871 66.5056C23.2617 66.8135 23.9286 66.9674 24.688 66.9674C25.4165 66.9674 26.063 66.8135 26.6273 66.5056C27.2019 66.1978 27.6842 65.7412 28.0741 65.1358C28.4641 64.5304 28.7565 63.7916 28.9515 62.9194C29.1567 62.0369 29.2593 61.0313 29.2593 59.9026Z" fill="white"/>
<path d="M43.3648 48.1895V70.5998H38.3472V48.1895H43.3648ZM52.1843 57.64V61.5187H41.9642V57.64H52.1843ZM53.1693 48.1895V52.0836H41.9642V48.1895H53.1693Z" fill="white"/>
<path d="M61.58 48.1895V70.5998H56.5623V48.1895H61.58ZM70.3994 57.64V61.5187H60.1793V57.64H70.3994ZM71.3845 48.1895V52.0836H60.1793V48.1895H71.3845Z" fill="white"/>
</g>
</svg>
