<svg width="40" height="35" viewBox="0 0 40 35" fill="none" xmlns="http://www.w3.org/2000/svg">
<path d="M17.2156 3.27214L2.4667 27.8943C2.16262 28.4209 2.00172 29.0179 2.00001 29.626C1.99831 30.2341 2.15586 30.8321 2.457 31.3604C2.75813 31.8887 3.19235 32.3289 3.71646 32.6373C4.24056 32.9457 4.83628 33.1115 5.44434 33.1182H34.9421C35.5502 33.1115 36.1459 32.9457 36.67 32.6373C37.1941 32.3289 37.6283 31.8887 37.9295 31.3604C38.2306 30.8321 38.3882 30.2341 38.3865 29.626C38.3848 29.0179 38.2239 28.4209 37.9198 27.8943L23.1709 3.27214C22.8604 2.76038 22.4234 2.33726 21.9018 2.04362C21.3802 1.74997 20.7918 1.5957 20.1932 1.5957C19.5947 1.5957 19.0062 1.74997 18.4847 2.04362C17.9631 2.33726 17.526 2.76038 17.2156 3.27214V3.27214Z" stroke="#ED7973" stroke-width="2.81992" stroke-linecap="round" stroke-linejoin="round"/>
<path d="M20.1931 11.5958L20.1931 20.7899" stroke="#ED7973" stroke-width="2.81992" stroke-linecap="round" stroke-linejoin="round"/>
<path d="M20.1931 27.4764H20.2101" stroke="#ED7973" stroke-width="2.81992" stroke-linecap="round" stroke-linejoin="round"/>
</svg>
