<svg width="61" height="39" viewBox="0 0 61 39" fill="none" xmlns="http://www.w3.org/2000/svg">
<path d="M8.83795 33.2857C6.37876 33.2857 4.37849 31.2847 4.37849 28.8263C4.37849 26.3679 6.37876 24.3668 8.83795 24.3668C9.32201 24.3668 9.79958 24.4447 10.2561 24.5979C10.5747 24.7049 10.7466 25.0495 10.6396 25.3674C10.5334 25.686 10.1896 25.8579 9.87012 25.7509C9.53768 25.639 9.19066 25.583 8.83795 25.583C7.04931 25.583 5.59471 27.0376 5.59471 28.8263C5.59471 30.6149 7.04931 32.0695 8.83795 32.0695C10.6266 32.0695 12.0812 30.6149 12.0812 28.8263C12.0812 28.7063 12.0747 28.5887 12.0617 28.4711C12.0253 28.1371 12.2669 27.8371 12.6001 27.8006C12.9407 27.7657 13.2342 28.0066 13.2707 28.3398C13.2885 28.4995 13.2974 28.6617 13.2974 28.8263C13.2974 31.2847 11.2971 33.2857 8.83795 33.2857Z" fill="#30A3DB"/>
<path d="M8.83708 30.9758C8.67654 30.9758 8.52087 30.9117 8.40654 30.7966L6.87816 29.265C6.6406 29.0274 6.64141 28.6423 6.87898 28.4047C7.11654 28.1688 7.50168 28.1671 7.73844 28.4063L8.75925 29.4288L11.829 25.1323C12.0244 24.8582 12.4038 24.7942 12.6771 24.9904C12.9503 25.1858 13.0136 25.5652 12.8182 25.8385L9.33087 30.7196C9.22708 30.8655 9.06411 30.958 8.88573 30.9717C8.8687 30.9734 8.85249 30.9742 8.83546 30.9742L8.83708 30.9758Z" fill="#30A3DB"/>
<path d="M46.1353 16.8668C45.6869 16.8668 45.3244 16.5035 45.3244 16.056V3.0838C45.3244 2.63704 44.9612 2.27299 44.5136 2.27299H10.4596C10.0128 2.27299 9.64877 2.63704 9.64877 3.0838V16.056C9.64877 16.5035 9.28552 16.8668 8.83796 16.8668C8.39039 16.8668 8.02715 16.5035 8.02715 16.056V3.0838C8.02715 1.74272 9.1185 0.651367 10.4596 0.651367H44.5136C45.8547 0.651367 46.9461 1.74272 46.9461 3.0838V16.056C46.9461 16.5035 46.5836 16.8668 46.1353 16.8668Z" fill="#333333"/>
<path d="M29.9182 28.2182H16.1352C15.6877 28.2182 15.3244 27.8557 15.3244 27.4074C15.3244 26.959 15.6877 26.5966 16.1352 26.5966H29.9182C30.3666 26.5966 30.729 26.959 30.729 27.4074C30.729 27.8557 30.3666 28.2182 29.9182 28.2182Z" fill="#333333"/>
<path d="M33.9731 38.7587H21.0001C20.5526 38.7587 20.1893 38.3963 20.1893 37.9479V36.3263C20.1893 35.9963 20.3896 35.6987 20.6953 35.5747C20.8315 35.5163 24.1972 33.9968 24.2434 27.4017C24.2466 26.9557 24.6083 26.5966 25.0542 26.5966H29.9191C30.3674 26.5966 30.7299 26.959 30.7299 27.4074C30.7299 27.8557 30.3674 28.2182 29.9191 28.2182H25.8431C25.5755 33.8801 22.942 36.1082 21.811 36.8095V37.1371H33.9731C34.4215 37.1371 34.7839 37.4995 34.7839 37.9479C34.7839 38.3963 34.4215 38.7587 33.9731 38.7587Z" fill="#333333"/>
<path d="M14.5136 38.7587H3.16228C1.82119 38.7587 0.729843 37.6673 0.729843 36.3262V17.6784C0.729843 16.3373 1.82119 15.246 3.16228 15.246H14.5136C15.8547 15.246 16.9461 16.3373 16.9461 17.6784V36.3262C16.9461 37.6673 15.8547 38.7587 14.5136 38.7587ZM3.16228 16.8676C2.71552 16.8676 2.35146 17.2316 2.35146 17.6784V36.3262C2.35146 36.7738 2.71552 37.1371 3.16228 37.1371H14.5136C14.9604 37.1371 15.3244 36.7738 15.3244 36.3262V17.6784C15.3244 17.2316 14.9604 16.8676 14.5136 16.8676H3.16228Z" fill="#333333"/>
<path d="M57.4866 38.7587H29.919C28.1304 38.7587 26.6758 37.3041 26.6758 35.5154V33.8938C26.6758 33.4454 27.039 33.083 27.4866 33.083H59.919C60.3674 33.083 60.7299 33.4454 60.7299 33.8938V35.5154C60.7299 37.3041 59.2753 38.7587 57.4866 38.7587ZM28.2974 34.7046V35.5154C28.2974 36.409 29.0247 37.1371 29.919 37.1371H57.4866C58.3809 37.1371 59.1082 36.409 59.1082 35.5154V34.7046H28.2974Z" fill="#333333"/>
<path d="M57.4866 34.7046H29.919C29.4714 34.7046 29.1082 34.3422 29.1082 33.8938V17.6784C29.1082 16.3373 30.1996 15.246 31.5406 15.246H55.865C57.206 15.246 58.2974 16.3373 58.2974 17.6784V33.8938C58.2974 34.3422 57.935 34.7046 57.4866 34.7046ZM30.7298 33.083H56.6758V17.6784C56.6758 17.2316 56.3125 16.8676 55.865 16.8676H31.5406C31.0931 16.8676 30.7298 17.2316 30.7298 17.6784V33.083Z" fill="#333333"/>
<path d="M16.1352 20.9208H1.54065C1.09309 20.9208 0.729843 20.5584 0.729843 20.11C0.729843 19.6616 1.09309 19.2992 1.54065 19.2992H16.1352C16.5828 19.2992 16.9461 19.6616 16.9461 20.11C16.9461 20.5584 16.5828 20.9208 16.1352 20.9208Z" fill="#333333"/>
<path d="M29.919 24.1641H16.1352C15.6877 24.1641 15.3244 23.8017 15.3244 23.3533C15.3244 22.9049 15.6877 22.5425 16.1352 22.5425H29.919C30.3674 22.5425 30.7298 22.9049 30.7298 23.3533C30.7298 23.8017 30.3674 24.1641 29.919 24.1641Z" fill="#333333"/>
<path d="M35.5947 21.7316H33.9731C33.5247 21.7316 33.1623 21.3692 33.1623 20.9208C33.1623 20.4724 33.5247 20.11 33.9731 20.11H35.5947C36.0431 20.11 36.4055 20.4724 36.4055 20.9208C36.4055 21.3692 36.0431 21.7316 35.5947 21.7316Z" fill="#30A3DB"/>
<path d="M35.5947 25.7857H33.9731C33.5247 25.7857 33.1623 25.4233 33.1623 24.9749C33.1623 24.5265 33.5247 24.1641 33.9731 24.1641H35.5947C36.0431 24.1641 36.4055 24.5265 36.4055 24.9749C36.4055 25.4233 36.0431 25.7857 35.5947 25.7857Z" fill="#30A3DB"/>
<path d="M35.5947 29.8398H33.9731C33.5247 29.8398 33.1623 29.4773 33.1623 29.029C33.1623 28.5806 33.5247 28.2181 33.9731 28.2181H35.5947C36.0431 28.2181 36.4055 28.5806 36.4055 29.029C36.4055 29.4773 36.0431 29.8398 35.5947 29.8398Z" fill="#30A3DB"/>
<path d="M53.4326 21.7316H39.6488C39.2004 21.7316 38.838 21.3692 38.838 20.9208C38.838 20.4724 39.2004 20.11 39.6488 20.11H53.4326C53.881 20.11 54.2434 20.4724 54.2434 20.9208C54.2434 21.3692 53.881 21.7316 53.4326 21.7316Z" fill="#30A3DB"/>
<path d="M49.3785 25.7857H39.6488C39.2004 25.7857 38.838 25.4233 38.838 24.9749C38.838 24.5265 39.2004 24.1641 39.6488 24.1641H49.3785C49.8269 24.1641 50.1893 24.5265 50.1893 24.9749C50.1893 25.4233 49.8269 25.7857 49.3785 25.7857Z" fill="#30A3DB"/>
<path d="M44.5137 29.8398H39.6488C39.2004 29.8398 38.838 29.4773 38.838 29.029C38.838 28.5806 39.2004 28.2181 39.6488 28.2181H44.5137C44.962 28.2181 45.3245 28.5806 45.3245 29.029C45.3245 29.4773 44.962 29.8398 44.5137 29.8398Z" fill="#30A3DB"/>
<path d="M22.1028 16.3154C21.939 16.3154 21.7744 16.2659 21.6325 16.1646L15.1566 11.5389C14.7917 11.2786 14.7074 10.7719 14.9677 10.4078C15.2271 10.0429 15.7347 9.95861 16.0988 10.2189L21.9812 14.4213L28.8844 6.65537C29.1577 6.34726 29.6206 6.29293 29.9588 6.53212L36.4704 11.1359L41.2169 6.16158C41.5266 5.83726 42.0406 5.82591 42.3633 6.13483C42.6869 6.44374 42.699 6.9578 42.3901 7.28131L37.1604 12.7624C36.8815 13.0527 36.4315 13.0964 36.1055 12.8646L29.6142 8.27537L22.7085 16.0429C22.5488 16.2221 22.3266 16.3154 22.102 16.3154H22.1028Z" fill="#30A3DB"/>
<path d="M41.8047 11.1522C41.3563 11.1522 40.9939 10.789 40.9939 10.3414V7.53275H38.1844C37.7361 7.53275 37.3736 7.16951 37.3736 6.72194C37.3736 6.27438 37.7361 5.91113 38.1844 5.91113H41.8047C42.2531 5.91113 42.6155 6.27438 42.6155 6.72194V10.3414C42.6155 10.789 42.2531 11.1522 41.8047 11.1522Z" fill="#30A3DB"/>
</svg>
