<svg width="62" height="55" viewBox="0 0 62 55" fill="none" xmlns="http://www.w3.org/2000/svg">
<path d="M16.9023 26.8512C13.647 26.8512 6.33211 28.281 5.29807 31.881C4.82573 33.5278 2.85977 44.7108 2.85977 44.7108H30.9449C30.9449 44.7108 28.9917 33.5278 28.5066 31.881C27.4598 28.2427 20.1321 26.8512 16.9023 26.8512Z" stroke="#30A3DB" stroke-width="2" stroke-miterlimit="10"/>
<path d="M24.5108 44.7235L24.5619 34.5107H9.24275L9.29382 44.7235H24.5108Z" stroke="#30A3DB" stroke-width="2" stroke-miterlimit="10"/>
<path d="M0.30658 44.7235H39.881" stroke="#333333" stroke-width="2" stroke-miterlimit="10"/>
<path d="M48.8172 14.0852C45.8938 14.0852 43.7108 11.6342 43.7108 8.60865V6.78311C43.7108 3.75758 45.8938 1.30652 48.8172 1.30652C51.7406 1.30652 53.9236 3.75758 53.9236 6.78311V8.60865C53.9236 11.6342 51.7406 14.0852 48.8172 14.0852Z" stroke="#333333" stroke-width="2" stroke-miterlimit="10"/>
<path d="M42.4342 54.9363V26.8512C42.4342 26.8512 38.2853 29.4044 37.3279 29.4044C36.3704 29.4044 34.3534 28.5235 32.2215 26.8512C31.2896 26.1235 30.2045 25.2044 29.1832 24.2087C27.7534 22.8299 29.2598 20.4682 31.1236 21.1704C33.1151 21.9235 35.1321 22.6767 36.0513 23.0214C37.9662 21.0299 39.9576 17.915 44.9874 17.915H53.9236C58.4938 17.915 60.3066 19.8427 60.3066 25.5746V33.2342C60.3066 35.9789 59.2215 37.064 56.4768 37.064H55.2002" stroke="#333333" stroke-width="2" stroke-miterlimit="10"/>
<path d="M48.8172 37.064V54.9363" stroke="#333333" stroke-width="2" stroke-miterlimit="10"/>
<path d="M55.2002 25.5746V54.9363" stroke="#333333" stroke-width="2" stroke-miterlimit="10"/>
<path d="M16.9023 23.0214C13.9789 23.0214 11.7959 20.5703 11.7959 17.5448V15.7193C11.7959 12.6937 13.9789 10.2427 16.9023 10.2427C19.8257 10.2427 22.0087 12.6937 22.0087 15.7193V17.5448C22.0087 20.5703 19.8257 23.0214 16.9023 23.0214Z" stroke="#30A3DB" stroke-width="2" stroke-miterlimit="10"/>
</svg>
