<svg width="250" height="185" viewBox="0 0 250 185" fill="none" xmlns="http://www.w3.org/2000/svg">
<g opacity="0.1">
<path d="M67.7783 121.718H43.4817C42.8237 121.717 42.193 121.462 41.7277 121.009C41.2625 120.556 41.0008 119.942 41 119.301V86.6828C41.0008 86.0421 41.2625 85.4278 41.7277 84.9747C42.193 84.5217 42.8237 84.2669 43.4817 84.2661H67.7783C68.4363 84.2669 69.067 84.5217 69.5323 84.9747C69.9975 85.4278 70.2592 86.0421 70.26 86.6828V119.301C70.2592 119.942 69.9975 120.556 69.5323 121.009C69.067 121.462 68.4363 121.717 67.7783 121.718Z" fill="#6B6B6B"/>
<path d="M110.623 121.718H86.3267C85.6688 121.717 85.038 121.461 84.5727 121.006C84.1075 120.551 83.8458 119.935 83.845 119.291V55.4827C83.8458 54.8394 84.1075 54.2227 84.5727 53.7679C85.038 53.313 85.6688 53.0572 86.3267 53.0565H110.623C111.281 53.0572 111.912 53.313 112.377 53.7679C112.843 54.2227 113.104 54.8394 113.105 55.4827V119.291C113.104 119.935 112.843 120.551 112.377 121.006C111.912 121.461 111.281 121.717 110.623 121.718Z" fill="#6B6B6B"/>
<path d="M153.557 121.718H130.128C129.494 121.717 128.885 121.462 128.437 121.009C127.988 120.556 127.736 119.942 127.735 119.301V86.6828C127.736 86.0421 127.988 85.4278 128.437 84.9747C128.885 84.5217 129.494 84.2669 130.128 84.2661H153.557C154.191 84.2669 154.8 84.5217 155.248 84.9747C155.697 85.4278 155.949 86.0421 155.95 86.6828V119.301C155.949 119.942 155.697 120.556 155.248 121.009C154.8 121.462 154.191 121.717 153.557 121.718Z" fill="#6B6B6B"/>
<path d="M197.358 121.717H173.062C172.419 121.731 171.797 121.497 171.331 121.067C170.866 120.637 170.596 120.047 170.58 119.424V43.9064C170.596 43.2841 170.866 42.6934 171.331 42.2637C171.797 41.8339 172.419 41.6001 173.062 41.6135H197.358C198.001 41.6001 198.623 41.8339 199.089 42.2637C199.554 42.6934 199.824 43.2841 199.84 43.9064V119.424C199.824 120.047 199.554 120.637 199.089 121.067C198.623 121.497 198.001 121.731 197.358 121.717Z" fill="#6B6B6B"/>
<path d="M239.246 121.218H215.819C215.317 121.217 214.836 121.017 214.481 120.661C214.126 120.304 213.926 119.821 213.925 119.316V22.1682C213.926 21.6633 214.126 21.1797 214.481 20.8232C214.836 20.4669 215.317 20.2667 215.818 20.2661H239.247C239.748 20.2667 240.229 20.4669 240.584 20.8232C240.939 21.1797 241.139 21.6635 241.14 22.1685V119.315C241.139 119.82 240.939 120.304 240.584 120.661C240.229 121.017 239.748 121.217 239.246 121.218Z" fill="#F2F2F2" stroke="black"/>
<path d="M55.63 73.8629C58.5157 73.8629 60.855 71.7669 60.855 69.1814C60.855 66.596 58.5157 64.5 55.63 64.5C52.7443 64.5 50.405 66.596 50.405 69.1814C50.405 71.7669 52.7443 73.8629 55.63 73.8629Z" fill="#3F3D56"/>
<path d="M141.515 70.742L98.2424 38.2846L55.5618 70.2985L54.585 68.9928L98.2424 36.246L141.309 68.5493L184.105 21.6494L184.277 21.5796L227.446 4.16132L228.055 5.67475L185.057 23.0233L141.515 70.742Z" fill="#3F3D56"/>
<path d="M97.9525 42.6532C100.55 42.6532 102.655 40.5573 102.655 37.9718C102.655 35.3863 100.55 33.2903 97.9525 33.2903C95.3554 33.2903 93.25 35.3863 93.25 37.9718C93.25 40.5573 95.3554 42.6532 97.9525 42.6532Z" fill="#3F3D56"/>
<path d="M141.32 73.8629C143.629 73.8629 145.5 71.7669 145.5 69.1814C145.5 66.596 143.629 64.5 141.32 64.5C139.011 64.5 137.14 66.596 137.14 69.1814C137.14 71.7669 139.011 73.8629 141.32 73.8629Z" fill="#3F3D56"/>
<path d="M184.687 28.0887C187.285 28.0887 189.39 25.7599 189.39 22.8871C189.39 20.0143 187.285 17.6855 184.687 17.6855C182.09 17.6855 179.985 20.0143 179.985 22.8871C179.985 25.7599 182.09 28.0887 184.687 28.0887Z" fill="#EF9635"/>
<path d="M227.533 10.4032C230.13 10.4032 232.235 8.07438 232.235 5.20161C232.235 2.32884 230.13 0 227.533 0C224.935 0 222.83 2.32884 222.83 5.20161C222.83 8.07438 224.935 10.4032 227.533 10.4032Z" fill="#3F3D56"/>
<path d="M247.607 129H224.178C223.544 128.999 222.935 128.746 222.487 128.296C222.038 127.846 221.786 127.235 221.785 126.598V29.4502C221.786 28.8134 222.038 28.2029 222.487 27.7526C222.935 27.3024 223.544 27.0491 224.178 27.0484H247.607C248.241 27.0491 248.85 27.3024 249.298 27.7526C249.747 28.2029 249.999 28.8134 250 29.4502V126.598C249.999 127.235 249.747 127.846 249.298 128.296C248.85 128.746 248.241 128.999 247.607 129Z" fill="#264B8D"/>
</g>
<path d="M26.7783 177.718H2.48167C1.82375 177.717 1.19298 177.462 0.727741 177.009C0.262502 176.556 0.000785189 175.942 0 175.301V142.683C0.000785189 142.042 0.262502 141.428 0.727741 140.975C1.19298 140.522 1.82375 140.267 2.48167 140.266H26.7783C27.4363 140.267 28.067 140.522 28.5323 140.975C28.9975 141.428 29.2592 142.042 29.26 142.683V175.301C29.2592 175.942 28.9975 176.556 28.5323 177.009C28.067 177.462 27.4363 177.717 26.7783 177.718Z" fill="#9D9D9D"/>
<path d="M69.6233 177.718H45.3267C44.6688 177.717 44.038 177.461 43.5727 177.006C43.1075 176.551 42.8458 175.935 42.845 175.291V111.483C42.8458 110.839 43.1075 110.223 43.5727 109.768C44.038 109.313 44.6688 109.057 45.3267 109.056H69.6233C70.2813 109.057 70.912 109.313 71.3773 109.768C71.8425 110.223 72.1042 110.839 72.105 111.483V175.291C72.1042 175.935 71.8425 176.551 71.3773 177.006C70.912 177.461 70.2813 177.717 69.6233 177.718Z" fill="#9D9D9D"/>
<path d="M112.557 177.718H89.128C88.4936 177.717 87.8854 177.462 87.4368 177.009C86.9881 176.556 86.7357 175.942 86.735 175.301V142.683C86.7357 142.042 86.9881 141.428 87.4368 140.975C87.8854 140.522 88.4936 140.267 89.128 140.266H112.557C113.191 140.267 113.8 140.522 114.248 140.975C114.697 141.428 114.949 142.042 114.95 142.683V175.301C114.949 175.942 114.697 176.556 114.248 177.009C113.8 177.462 113.191 177.717 112.557 177.718Z" fill="#EF9635"/>
<path d="M156.358 177.717H132.062C131.419 177.731 130.797 177.497 130.331 177.067C129.866 176.637 129.596 176.047 129.58 175.424V99.9064C129.596 99.2841 129.866 98.6934 130.331 98.2637C130.797 97.8339 131.419 97.6001 132.062 97.6135H156.358C157.001 97.6001 157.623 97.8339 158.089 98.2637C158.554 98.6934 158.824 99.2841 158.84 99.9064V175.424C158.824 176.047 158.554 176.637 158.089 177.067C157.623 177.497 157.001 177.731 156.358 177.717Z" fill="#9D9D9D"/>
<path d="M198.247 177.718H174.818C174.184 177.717 173.575 177.464 173.127 177.013C172.678 176.563 172.426 175.953 172.425 175.316V78.1679C172.426 77.5311 172.678 76.9206 173.127 76.4703C173.575 76.0201 174.184 75.7668 174.818 75.7661H198.247C198.881 75.7668 199.49 76.0201 199.938 76.4703C200.387 76.9206 200.639 77.5311 200.64 78.1679V175.316C200.639 175.953 200.387 176.563 199.938 177.013C199.49 177.464 198.881 177.717 198.247 177.718Z" fill="#264B8D" fill-opacity="0.3"/>
<path d="M14.63 129.863C17.5157 129.863 19.855 127.767 19.855 125.181C19.855 122.596 17.5157 120.5 14.63 120.5C11.7443 120.5 9.405 122.596 9.405 125.181C9.405 127.767 11.7443 129.863 14.63 129.863Z" fill="#3F3D56"/>
<path d="M100.515 126.742L57.2424 94.2846L14.5618 126.299L13.585 124.993L57.2424 92.246L100.309 124.549L143.105 77.6494L143.277 77.5796L186.446 60.1613L187.055 61.6748L144.057 79.0233L100.515 126.742Z" fill="#3F3D56"/>
<path d="M56.9525 98.6532C59.5496 98.6532 61.655 96.5573 61.655 93.9718C61.655 91.3863 59.5496 89.2903 56.9525 89.2903C54.3554 89.2903 52.25 91.3863 52.25 93.9718C52.25 96.5573 54.3554 98.6532 56.9525 98.6532Z" fill="#3F3D56"/>
<path d="M100.32 129.863C102.629 129.863 104.5 127.767 104.5 125.181C104.5 122.596 102.629 120.5 100.32 120.5C98.0115 120.5 96.14 122.596 96.14 125.181C96.14 127.767 98.0115 129.863 100.32 129.863Z" fill="#3F3D56"/>
<path d="M143.687 84.0887C146.285 84.0887 148.39 81.7599 148.39 78.8871C148.39 76.0143 146.285 73.6855 143.687 73.6855C141.09 73.6855 138.985 76.0143 138.985 78.8871C138.985 81.7599 141.09 84.0887 143.687 84.0887Z" fill="#EF9635"/>
<path d="M186.533 66.4032C189.13 66.4032 191.235 64.0744 191.235 61.2016C191.235 58.3288 189.13 56 186.533 56C183.935 56 181.83 58.3288 181.83 61.2016C181.83 64.0744 183.935 66.4032 186.533 66.4032Z" fill="#3F3D56"/>
<path d="M206.607 185H183.178C182.544 184.999 181.935 184.746 181.487 184.296C181.038 183.846 180.786 183.235 180.785 182.598V85.4502C180.786 84.8134 181.038 84.2029 181.487 83.7526C181.935 83.3024 182.544 83.0491 183.178 83.0484H206.607C207.241 83.0491 207.85 83.3024 208.298 83.7526C208.747 84.2029 208.999 84.8134 209 85.4502V182.598C208.999 183.235 208.747 183.846 208.298 184.296C207.85 184.746 207.241 184.999 206.607 185Z" fill="#264B8D"/>
</svg>
