<svg width="274" height="149" viewBox="0 0 274 149" fill="none" xmlns="http://www.w3.org/2000/svg">
<g opacity="0.1">
<path d="M18.4891 53.3044C18.4756 46.1735 20.2362 38.9381 24.2185 32.9735C26.1068 30.1043 28.5476 27.6443 31.3969 25.7383C34.2462 23.8324 37.4463 22.5191 40.8086 21.8761C44.1283 21.2521 47.5493 21.4517 50.7748 22.4575C53.6961 23.4199 56.3236 25.1177 58.4074 27.3893C62.3979 31.6767 64.8592 38.5187 62.5447 44.2279C62.0037 45.5601 61.1963 46.7664 60.1725 47.7722C59.1487 48.778 57.9304 49.5617 56.5929 50.0749C54.2113 50.9023 51.2762 50.2618 50.2522 47.7027C49.3743 45.5085 50.2908 42.8706 51.7565 41.1561C52.607 40.1365 53.7406 39.3947 55.0125 39.0256C56.2844 38.6564 57.6369 38.6767 58.8973 39.0837C62.0324 39.9753 64.5046 42.5424 65.9846 45.3777C67.7052 48.6738 68.0643 52.5712 67.7027 56.2277C66.9056 64.2863 62.7598 71.4591 59.7077 78.795C56.8708 85.6137 54.5116 93.503 56.695 100.852C57.5948 103.777 59.227 106.421 61.4352 108.529C63.6434 110.638 66.3535 112.141 69.3057 112.894C74.9373 114.412 81.5259 113.333 85.5256 108.804C87.4116 106.668 88.7887 103.89 88.8075 100.988C88.8332 99.6317 88.4988 98.2925 87.8387 97.1087C87.1786 95.9249 86.2166 94.9393 85.0518 94.2531C80.1782 91.5124 73.5972 94.3298 71.5555 99.3423C70.3059 102.41 70.5427 105.937 71.7215 108.988C72.9828 112.132 75.1105 114.85 77.8548 116.822C80.7053 118.95 84.0349 120.365 87.3991 121.447C90.8988 122.595 94.5055 123.382 98.1636 123.796C105.141 124.544 112.422 123.374 117.891 118.675C122.701 114.542 125.348 108.423 126.695 102.329C128.259 95.2589 128.024 88.0378 128.038 80.8434C128.053 73.1768 128.246 64.8085 131.921 57.8781C134.811 52.4283 139.918 47.6577 146.014 46.2321C148.828 45.561 151.781 45.8052 154.448 46.9295C155.331 47.3015 155.716 45.8542 154.844 45.4867C148.986 43.0172 142.54 44.9547 137.703 48.7139C135.153 50.7032 132.988 53.1465 131.316 55.922C129.516 59.0484 128.277 62.4686 127.655 66.0264C124.835 80.4831 129.196 96.0909 122.626 109.831C121.334 112.625 119.514 115.141 117.268 117.237C114.684 119.545 111.552 121.145 108.173 121.883C101.043 123.508 93.3072 121.966 86.5213 119.576C80.0167 117.285 73.5152 112.988 72.3506 105.633C71.8705 102.601 72.551 99.2122 74.8528 97.0612C75.8241 96.1681 76.9802 95.5025 78.238 95.1122C79.4957 94.7219 80.8239 94.6166 82.127 94.8039C83.4017 94.9893 84.5845 95.5782 85.5038 96.485C86.423 97.3918 87.031 98.5694 87.2394 99.8469C87.7031 102.695 86.3183 105.659 84.473 107.746C80.4207 112.328 73.6477 112.971 68.1509 110.96C65.4361 109.976 63.0183 108.308 61.1292 106.116C58.9421 103.426 57.4213 100.575 57.1952 97.1087C56.5518 89.2636 60.151 81.2596 63.3218 74.3033C66.5522 67.2165 70.0232 59.4339 69.2035 51.4406C68.9192 47.9029 67.5796 44.5336 65.3599 41.7732C63.3241 39.3269 60.4323 37.4892 57.2113 37.287C55.9048 37.2123 54.6002 37.4631 53.4134 38.0172C52.2266 38.5714 51.1944 39.4116 50.4084 40.4632C48.8848 42.4198 47.9952 45.0915 48.6428 47.5589C49.004 48.8162 49.7593 49.9228 50.7962 50.7142C51.8331 51.5056 53.0964 51.9397 54.3983 51.9519C57.2465 52.0022 59.9576 50.2865 61.7818 48.1993C65.9051 43.4816 65.5052 36.4992 62.8314 31.1623C61.4148 28.3168 59.3473 25.8494 56.7985 23.9624C54.2497 22.0753 51.2921 20.8224 48.1684 20.3063C41.5301 19.2709 34.6177 21.3295 29.2997 25.3788C23.635 29.6921 19.9577 36.1607 18.2325 43.0205C17.398 46.3836 16.9842 49.8383 17.0005 53.3044C17.0071 53.4983 17.0885 53.6821 17.2274 53.8169C17.3662 53.9517 17.5517 54.0271 17.7448 54.0271C17.9379 54.0271 18.1234 53.9517 18.2623 53.8169C18.4011 53.6821 18.4825 53.4983 18.4891 53.3044Z" fill="#EF9635"/>
<path d="M214.248 11.7241C215.533 7.60587 218.457 3.82875 222.5 2.43654C226.544 1.04434 232.464 3.1651 235.504 6.21013C241.065 11.7801 241.236 18.5987 237.416 24.6456C236.656 24.6051 234.034 24.5752 233.265 24.5463L232.177 20.9017V24.5104C226.174 24.3239 219.924 24.4407 213.672 24.5614C213.111 20.2802 212.962 15.8424 214.248 11.7241Z" fill="#2F2E41"/>
<path d="M187.505 77.0297C187.27 76.5257 187.147 75.9761 187.146 75.4195C187.146 74.8628 187.266 74.3128 187.499 73.808C187.733 73.3033 188.074 72.8561 188.498 72.498C188.922 72.1399 189.418 71.8796 189.953 71.7355L206.11 41.0947L212.632 46.1537L194.699 74.6818C194.881 75.601 194.72 76.5551 194.249 77.3634C193.777 78.1717 193.026 78.778 192.14 79.0674C191.253 79.3568 190.291 79.3092 189.437 78.9337C188.583 78.5581 187.895 77.8806 187.505 77.0297Z" fill="#FFB6B6"/>
<path d="M230.688 53.82L231.929 57.062L231.681 60.304L207.861 57.3114L208.606 54.5682L211.335 51.3262L230.688 53.82Z" fill="#FFB6B6"/>
<path d="M223.01 24.646C227.799 24.646 231.681 20.7437 231.681 15.9299C231.681 11.1162 227.799 7.21387 223.01 7.21387C218.22 7.21387 214.338 11.1162 214.338 15.9299C214.338 20.7437 218.22 24.646 223.01 24.646Z" fill="#FFB7B7"/>
<path d="M213.815 30.8769L218.778 27.8843L228.702 26.8867L237.474 28.8818L237.387 45.0918L231.822 59.3171L208.498 56.3245L207.612 51.3069C207.612 51.3069 201.161 42.598 208.109 37.6103L213.815 30.8769Z" fill="#264B8D"/>
<path d="M231.928 59.0572V64.5967C231.928 64.5967 238.379 73.0227 234.906 79.5068L236.035 126.933H220.848L217.041 92.9735L213.255 126.933H200.989L199.205 84.9963C199.205 84.9963 200.169 64.5436 205.628 61.0522L208.137 56.5664L231.928 59.0572Z" fill="#555555"/>
<path d="M217.051 4.58055C218.718 3.55957 220.626 3.00728 222.577 2.98142C224.529 2.95556 226.451 3.4571 228.143 4.43357C229.836 5.41005 231.236 6.82561 232.198 8.53223C233.16 10.2389 233.648 12.1739 233.611 14.1349C228.764 14.359 223.672 14.4173 218.509 14.4274L217.288 11.4257L216.569 14.4296C214.996 14.4295 213.419 14.4274 211.84 14.4234C211.776 12.4678 212.223 10.5296 213.138 8.80229C214.052 7.07502 215.402 5.61926 217.051 4.58055Z" fill="#2F2E41"/>
<path d="M160.212 50.8918L156.336 49.3616C156.081 49.2615 155.848 49.1118 155.651 48.9211C155.454 48.7304 155.296 48.5025 155.186 48.2504C155.076 47.9983 155.017 47.7269 155.012 47.4518C155.007 47.1766 155.056 46.9032 155.156 46.6471C155.256 46.391 155.405 46.1572 155.595 45.9592C155.785 45.7612 156.012 45.6027 156.264 45.493C156.515 45.3833 156.785 45.3243 157.058 45.3196C157.332 45.3149 157.604 45.3645 157.859 45.4656L161.735 46.9958C162.248 47.1995 162.66 47.5993 162.88 48.1078C163.1 48.6162 163.11 49.1915 162.908 49.7076C162.707 50.2236 162.31 50.6381 161.804 50.8601C161.299 51.0822 160.726 51.0936 160.212 50.8918Z" fill="#EF9635"/>
<path d="M246.525 76.7213L169.927 46.4822C169.44 46.2901 168.913 46.2188 168.392 46.2741C167.872 46.3294 167.372 46.5098 166.935 46.8001L163.87 45.5899C163.52 45.4517 163.146 45.3841 162.77 45.3911C162.394 45.3981 162.023 45.4794 161.678 45.6305C161.333 45.7816 161.022 45.9994 160.761 46.2716C160.5 46.5437 160.295 46.8649 160.157 47.2167L159.206 49.6505C159.069 50.0023 159.001 50.3779 159.008 50.7558C159.015 51.1338 159.096 51.5066 159.246 51.8531C159.397 52.1996 159.613 52.513 159.884 52.7753C160.155 53.0376 160.475 53.2437 160.825 53.3819L163.374 54.3883C163.201 55.1532 163.306 55.9551 163.67 56.6489C164.034 57.3426 164.634 57.8823 165.36 58.1702L241.958 88.4094C242.766 88.7284 243.667 88.7117 244.463 88.363C245.259 88.0142 245.884 87.362 246.202 86.5497L248.376 80.9869C248.693 80.1746 248.676 79.2689 248.329 78.4689C247.982 77.669 247.333 77.0404 246.525 76.7213Z" fill="#3F3D56"/>
<path d="M264.643 99.6135L235.846 88.2451L241.936 72.6611L270.732 84.0295C272.004 84.5331 273.024 85.523 273.57 86.7819C274.116 88.0409 274.143 89.4661 273.645 90.745L271.324 96.6854C270.823 97.9631 269.838 98.9889 268.586 99.5378C267.333 100.087 265.915 100.114 264.643 99.6135Z" fill="#2F2E41"/>
<path d="M269.187 96.1597L255.157 90.6211C254.448 90.3402 253.878 89.788 253.574 89.0857C253.269 88.3834 253.254 87.5883 253.532 86.8749L253.967 85.7614C254.247 85.0486 254.796 84.4762 255.495 84.1699C256.193 83.8636 256.984 83.8485 257.694 84.1278L271.724 89.6664C272.433 89.9473 273.003 90.4995 273.307 91.2018C273.612 91.9042 273.627 92.6992 273.349 93.4126L272.913 94.5261C272.634 95.239 272.085 95.8114 271.386 96.1176C270.687 96.4239 269.896 96.4391 269.187 96.1597Z" fill="#EF9635"/>
<path d="M223.678 70.5105C223.878 70.5557 224.075 70.6167 224.265 70.6928L239.404 60.219L239.058 55.7449L245.707 54.3369L247.086 62.1975C247.198 62.8326 247.101 63.4868 246.811 64.062C246.521 64.6372 246.053 65.1023 245.478 65.3875L226.725 74.6831C226.654 75.4738 226.345 76.2241 225.839 76.8341C225.334 77.444 224.655 77.8848 223.894 78.0977C223.133 78.3107 222.326 78.2857 221.579 78.0261C220.833 77.7665 220.182 77.2846 219.715 76.6446C219.248 76.0045 218.985 75.2365 218.963 74.4428C218.94 73.6492 219.158 72.8674 219.589 72.2015C220.019 71.5356 220.641 71.0171 221.371 70.7151C222.102 70.413 222.906 70.3417 223.678 70.5105Z" fill="#FFB6B6"/>
<path d="M237.91 60.5575L246.346 65.5452C248.331 64.5477 247.948 58.0784 246.736 57.6995L245.822 36.1147C245.326 26.1393 237.474 28.8825 237.474 28.8825L233.912 29.6307L236.393 40.1048L239.088 58.1772C238.722 58.4555 238.426 58.8152 238.221 59.2282C238.017 59.6412 237.91 60.0962 237.91 60.5575Z" fill="#264B8D"/>
<path d="M214.007 30.7402C214.007 30.7402 207.195 30.8482 205.066 34.5334C203.361 37.4837 200.175 49.2519 198.972 53.8315C198.312 53.8128 197.664 54.0154 197.131 54.4074C196.598 54.7994 196.209 55.3586 196.027 55.9967L205.159 59.559C207.143 58.5615 206.593 57.1789 206.089 56.4636L209.49 51.3365L213.46 49.3414L215.106 31.6856L214.007 30.7402Z" fill="#264B8D"/>
<path d="M99.9418 90.8677C85.4503 90.7691 71.1399 87.5222 57.9352 81.3366C57.1492 80.9737 56.482 80.3818 56.0149 79.633C55.5479 78.8842 55.3011 78.0108 55.3047 77.1193V39.6956C55.306 38.4696 55.7768 37.2941 56.6136 36.4272C57.4504 35.5603 58.585 35.0726 59.7684 35.0713H140.115C141.299 35.0727 142.433 35.5603 143.27 36.4272C144.107 37.2942 144.578 38.4696 144.579 39.6956V77.1194C144.582 78.0109 144.336 78.8842 143.869 79.633C143.402 80.3818 142.734 80.9738 141.948 81.3367C128.744 87.5222 114.433 90.7692 99.9418 90.8677Z" fill="#264B8D"/>
<path d="M99.5708 60.5789C98.9752 60.5795 98.3854 60.4597 97.8363 60.2267L34.1212 33.0764C33.2995 32.7264 32.6005 32.1357 32.1143 31.3807C31.6281 30.6256 31.377 29.7408 31.3933 28.8402C31.4097 27.9397 31.6927 27.0647 32.206 26.3282C32.7193 25.5916 33.4392 25.0273 34.273 24.7078L97.9889 0.294505C99.0152 -0.100515 100.15 -0.0980777 101.174 0.301354L164.037 24.7146C164.866 25.0366 165.581 25.6012 166.09 26.3359C166.6 27.0707 166.881 27.9424 166.897 28.8394C166.914 29.7364 166.665 30.6179 166.182 31.3712C165.7 32.1245 165.006 32.7154 164.189 33.0681L101.327 60.2179C100.771 60.4567 100.174 60.5795 99.5708 60.5789Z" fill="#264B8D"/>
<path d="M62.4781 82.8976C65.5596 82.8976 68.0577 80.3995 68.0577 77.3179C68.0577 74.2364 65.5596 71.7383 62.4781 71.7383C59.3965 71.7383 56.8984 74.2364 56.8984 77.3179C56.8984 80.3995 59.3965 82.8976 62.4781 82.8976Z" fill="#EF9635"/>
<path opacity="0.2" d="M164.471 30.3073L101.146 56.415C100.652 56.6185 100.121 56.7241 99.5843 56.7253C99.0474 56.7266 98.5157 56.6235 98.021 56.4223L33.8378 30.315C33.0318 29.9949 32.3593 29.425 31.9267 28.6954C31.6437 29.1685 31.4683 29.6943 31.4122 30.2378C31.3561 30.7813 31.4206 31.3301 31.6013 31.8478C31.7821 32.3654 32.075 32.8401 32.4606 33.2402C32.8462 33.6403 33.3156 33.9568 33.8378 34.1686L98.021 60.2759C98.5157 60.4771 99.0474 60.5802 99.5843 60.579C100.121 60.5777 100.652 60.4722 101.146 60.2686L164.471 34.161C164.991 33.9473 165.457 33.6298 165.84 33.2295C166.223 32.8292 166.514 32.3551 166.692 31.8386C166.871 31.3221 166.935 30.7748 166.878 30.233C166.821 29.6912 166.646 29.1671 166.364 28.6953C165.935 29.4191 165.269 29.9858 164.471 30.3073Z" fill="black"/>
<path d="M62.7003 76.5204C62.9704 76.5204 63.2295 76.4199 63.4205 76.2411C63.6116 76.0622 63.7189 75.8196 63.7189 75.5667V43.6551L97.3139 32.1964C97.5841 32.2002 97.8448 32.1033 98.0386 31.9271C98.2325 31.751 98.3437 31.5099 98.3477 31.2569C98.3518 31.004 98.2483 30.7599 98.0601 30.5784C97.8719 30.3969 97.6144 30.2928 97.3443 30.2891L63.7492 41.7477C63.4789 41.7419 63.2101 41.7875 62.9591 41.8818C62.7081 41.9761 62.4802 42.1171 62.2892 42.2963C62.0961 42.4733 61.9429 42.6847 61.8385 42.9181C61.7342 43.1515 61.6808 43.4021 61.6816 43.6551V75.5667C61.6817 75.8196 61.789 76.0622 61.98 76.241C62.171 76.4199 62.4301 76.5204 62.7003 76.5204Z" fill="#EF9635"/>
</g>
<path d="M1.48914 75.3044C1.47563 68.1735 3.23618 60.9381 7.2185 54.9735C9.10682 52.1043 11.5476 49.6443 14.3969 47.7383C17.2462 45.8324 20.4463 44.5191 23.8086 43.8761C27.1283 43.2521 30.5493 43.4517 33.7748 44.4575C36.6961 45.4199 39.3236 47.1177 41.4074 49.3893C45.3979 53.6767 47.8592 60.5187 45.5447 66.2279C45.0037 67.5601 44.1963 68.7664 43.1725 69.7722C42.1487 70.778 40.9304 71.5617 39.5929 72.0749C37.2113 72.9023 34.2762 72.2618 33.2522 69.7027C32.3743 67.5085 33.2908 64.8706 34.7565 63.1561C35.607 62.1365 36.7406 61.3947 38.0125 61.0256C39.2844 60.6564 40.6369 60.6767 41.8973 61.0837C45.0324 61.9753 47.5046 64.5424 48.9846 67.3777C50.7052 70.6738 51.0643 74.5712 50.7027 78.2277C49.9056 86.2863 45.7598 93.4591 42.7077 100.795C39.8708 107.614 37.5116 115.503 39.695 122.852C40.5948 125.777 42.227 128.421 44.4352 130.529C46.6434 132.638 49.3535 134.141 52.3057 134.894C57.9373 136.412 64.5259 135.333 68.5256 130.804C70.4116 128.668 71.7887 125.89 71.8075 122.988C71.8332 121.632 71.4988 120.293 70.8387 119.109C70.1786 117.925 69.2166 116.939 68.0518 116.253C63.1782 113.512 56.5972 116.33 54.5555 121.342C53.3059 124.41 53.5427 127.937 54.7215 130.988C55.9828 134.132 58.1105 136.85 60.8548 138.822C63.7053 140.95 67.0349 142.365 70.3991 143.447C73.8988 144.595 77.5055 145.382 81.1636 145.796C88.1407 146.544 95.4219 145.374 100.891 140.675C105.701 136.542 108.348 130.423 109.695 124.329C111.259 117.259 111.024 110.038 111.038 102.843C111.053 95.1768 111.246 86.8085 114.921 79.8781C117.811 74.4283 122.918 69.6577 129.014 68.2321C131.828 67.561 134.781 67.8052 137.448 68.9295C138.331 69.3015 138.716 67.8542 137.844 67.4867C131.986 65.0172 125.54 66.9547 120.703 70.7139C118.153 72.7032 115.988 75.1465 114.316 77.922C112.516 81.0484 111.277 84.4686 110.655 88.0264C107.835 102.483 112.196 118.091 105.626 131.831C104.334 134.625 102.514 137.141 100.268 139.237C97.6839 141.545 94.5515 143.145 91.173 143.883C84.0426 145.508 76.3072 143.966 69.5213 141.576C63.0167 139.285 56.5152 134.988 55.3506 127.633C54.8705 124.601 55.551 121.212 57.8528 119.061C58.8241 118.168 59.9802 117.503 61.238 117.112C62.4957 116.722 63.8239 116.617 65.127 116.804C66.4017 116.989 67.5845 117.578 68.5038 118.485C69.423 119.392 70.031 120.569 70.2394 121.847C70.7031 124.695 69.3183 127.659 67.473 129.746C63.4207 134.328 56.6477 134.971 51.1509 132.96C48.4361 131.976 46.0183 130.308 44.1292 128.116C41.9421 125.426 40.4213 122.575 40.1952 119.109C39.5518 111.264 43.151 103.26 46.3218 96.3033C49.5522 89.2165 53.0232 81.4339 52.2035 73.4406C51.9192 69.9029 50.5796 66.5336 48.3599 63.7732C46.3241 61.3269 43.4323 59.4892 40.2113 59.287C38.9048 59.2123 37.6002 59.4631 36.4134 60.0172C35.2266 60.5714 34.1944 61.4116 33.4084 62.4632C31.8848 64.4198 30.9952 67.0915 31.6428 69.5589C32.004 70.8162 32.7593 71.9228 33.7962 72.7142C34.8331 73.5056 36.0964 73.9397 37.3983 73.9519C40.2465 74.0022 42.9576 72.2865 44.7818 70.1993C48.9051 65.4816 48.5052 58.4992 45.8314 53.1623C44.4148 50.3168 42.3473 47.8494 39.7985 45.9624C37.2497 44.0753 34.2921 42.8224 31.1684 42.3063C24.5301 41.2709 17.6177 43.3295 12.2997 47.3788C6.63503 51.6921 2.95772 58.1607 1.23245 65.0205C0.398042 68.3836 -0.015814 71.8383 0.000461969 75.3044C0.00714705 75.4983 0.0885004 75.6821 0.227364 75.8169C0.366228 75.9517 0.551749 76.0271 0.744818 76.0271C0.937887 76.0271 1.12341 75.9517 1.26227 75.8169C1.40114 75.6821 1.48246 75.4983 1.48914 75.3044Z" fill="#EF9635"/>
<path d="M197.248 33.7241C198.533 29.6059 201.457 25.8287 205.5 24.4365C209.544 23.0443 215.464 25.1651 218.504 28.2101C224.065 33.7801 224.236 40.5987 220.416 46.6456C219.656 46.6051 217.034 46.5752 216.265 46.5463L215.177 42.9017V46.5104C209.174 46.3239 202.924 46.4407 196.672 46.5614C196.111 42.2802 195.962 37.8424 197.248 33.7241Z" fill="#2F2E41"/>
<path d="M170.505 99.0297C170.27 98.5257 170.147 97.9761 170.146 97.4195C170.146 96.8628 170.266 96.3128 170.499 95.808C170.733 95.3033 171.074 94.8561 171.498 94.498C171.922 94.1399 172.418 93.8796 172.953 93.7355L189.11 63.0947L195.632 68.1537L177.699 96.6818C177.881 97.601 177.72 98.5551 177.249 99.3634C176.777 100.172 176.026 100.778 175.14 101.067C174.253 101.357 173.291 101.309 172.437 100.934C171.583 100.558 170.895 99.8806 170.505 99.0297Z" fill="#FFCDB7"/>
<path d="M213.688 75.82L214.929 79.062L214.681 82.304L190.861 79.3114L191.606 76.5682L194.335 73.3262L213.688 75.82Z" fill="#FFB6B6"/>
<path d="M206.01 46.646C210.799 46.646 214.681 42.7437 214.681 37.9299C214.681 33.1162 210.799 29.2139 206.01 29.2139C201.22 29.2139 197.338 33.1162 197.338 37.9299C197.338 42.7437 201.22 46.646 206.01 46.646Z" fill="#FFCDB7"/>
<path d="M196.815 52.8769L201.778 49.8843L211.702 48.8867L220.474 50.8818L220.387 67.0918L214.822 81.3171L191.498 78.3245L190.612 73.3069C190.612 73.3069 184.161 64.598 191.109 59.6103L196.815 52.8769Z" fill="#264B8D"/>
<path d="M214.928 81.0572V86.5967C214.928 86.5967 221.379 95.0227 217.906 101.507L219.035 148.933H203.848L200.041 114.974L196.255 148.933H183.989L182.205 106.996C182.205 106.996 183.169 86.5436 188.628 83.0522L191.137 78.5664L214.928 81.0572Z" fill="#555555"/>
<path d="M200.051 26.5806C201.718 25.5596 203.626 25.0073 205.577 24.9814C207.529 24.9556 209.451 25.4571 211.143 26.4336C212.836 27.4101 214.236 28.8256 215.198 30.5322C216.16 32.2389 216.648 34.1739 216.611 36.1349C211.764 36.359 206.672 36.4173 201.509 36.4274L200.288 33.4257L199.569 36.4296C197.996 36.4295 196.419 36.4274 194.84 36.4234C194.776 34.4678 195.223 32.5296 196.138 30.8023C197.052 29.075 198.402 27.6193 200.051 26.5806Z" fill="#2F2E41"/>
<path d="M143.212 72.8918L139.336 71.3616C139.081 71.2615 138.848 71.1118 138.651 70.9211C138.454 70.7304 138.296 70.5025 138.186 70.2504C138.076 69.9983 138.017 69.7269 138.012 69.4518C138.007 69.1766 138.056 68.9032 138.156 68.6471C138.256 68.391 138.405 68.1572 138.595 67.9592C138.785 67.7612 139.012 67.6027 139.264 67.493C139.515 67.3833 139.785 67.3243 140.058 67.3196C140.332 67.3149 140.604 67.3645 140.859 67.4656L144.735 68.9958C145.248 69.1995 145.66 69.5993 145.88 70.1078C146.1 70.6162 146.11 71.1915 145.908 71.7076C145.707 72.2236 145.31 72.6381 144.804 72.8601C144.299 73.0822 143.726 73.0936 143.212 72.8918Z" fill="#EF9635"/>
<path d="M229.525 98.7213L152.927 68.4822C152.44 68.2901 151.913 68.2188 151.392 68.2741C150.872 68.3294 150.372 68.5098 149.935 68.8001L146.87 67.5899C146.52 67.4517 146.146 67.3841 145.77 67.3911C145.394 67.3981 145.023 67.4794 144.678 67.6305C144.333 67.7816 144.022 67.9994 143.761 68.2716C143.5 68.5437 143.295 68.8649 143.157 69.2167L142.206 71.6505C142.069 72.0023 142.001 72.3779 142.008 72.7558C142.015 73.1338 142.096 73.5066 142.246 73.8531C142.397 74.1996 142.613 74.513 142.884 74.7753C143.155 75.0376 143.475 75.2437 143.825 75.3819L146.374 76.3883C146.201 77.1532 146.306 77.9551 146.67 78.6489C147.034 79.3426 147.634 79.8823 148.36 80.1702L224.958 110.409C225.766 110.728 226.667 110.712 227.463 110.363C228.259 110.014 228.884 109.362 229.202 108.55L231.376 102.987C231.693 102.175 231.676 101.269 231.329 100.469C230.982 99.669 230.333 99.0404 229.525 98.7213Z" fill="#3F3D56"/>
<path d="M247.643 121.613L218.846 110.245L224.936 94.6611L253.732 106.029C255.004 106.533 256.024 107.523 256.57 108.782C257.116 110.041 257.143 111.466 256.645 112.745L254.324 118.685C253.823 119.963 252.838 120.989 251.586 121.538C250.333 122.087 248.915 122.114 247.643 121.613Z" fill="#2F2E41"/>
<path d="M252.187 118.16L238.157 112.621C237.448 112.34 236.878 111.788 236.574 111.086C236.269 110.383 236.254 109.588 236.532 108.875L236.967 107.761C237.247 107.049 237.796 106.476 238.495 106.17C239.193 105.864 239.984 105.848 240.694 106.128L254.724 111.666C255.433 111.947 256.003 112.499 256.307 113.202C256.612 113.904 256.627 114.699 256.349 115.413L255.913 116.526C255.634 117.239 255.085 117.811 254.386 118.118C253.687 118.424 252.896 118.439 252.187 118.16Z" fill="#EF9635"/>
<path d="M206.678 92.5105C206.878 92.5557 207.075 92.6167 207.265 92.6928L222.404 82.219L222.058 77.7449L228.707 76.3369L230.086 84.1975C230.198 84.8326 230.101 85.4868 229.811 86.062C229.521 86.6372 229.053 87.1023 228.478 87.3875L209.725 96.6831C209.654 97.4738 209.345 98.2241 208.839 98.8341C208.334 99.444 207.655 99.8848 206.894 100.098C206.133 100.311 205.326 100.286 204.579 100.026C203.833 99.7665 203.182 99.2846 202.715 98.6446C202.248 98.0045 201.985 97.2365 201.963 96.4428C201.94 95.6492 202.158 94.8674 202.589 94.2015C203.019 93.5356 203.641 93.0171 204.371 92.7151C205.102 92.413 205.906 92.3417 206.678 92.5105Z" fill="#FFCDB7"/>
<path d="M220.91 82.5575L229.346 87.5452C231.331 86.5477 230.948 80.0784 229.736 79.6995L228.822 58.1147C228.326 48.1393 220.474 50.8825 220.474 50.8825L216.912 51.6307L219.393 62.1048L222.088 80.1772C221.722 80.4555 221.426 80.8152 221.221 81.2282C221.017 81.6412 220.91 82.0962 220.91 82.5575Z" fill="#264B8D"/>
<path d="M197.007 52.7402C197.007 52.7402 190.195 52.8482 188.066 56.5334C186.361 59.4837 183.175 71.2519 181.972 75.8315C181.312 75.8128 180.664 76.0154 180.131 76.4074C179.598 76.7994 179.209 77.3586 179.027 77.9967L188.159 81.559C190.143 80.5615 189.593 79.1789 189.089 78.4636L192.49 73.3365L196.46 71.3414L198.106 53.6856L197.007 52.7402Z" fill="#264B8D"/>
<path d="M82.9418 112.868C68.4503 112.769 54.1399 109.522 40.9352 103.337C40.1492 102.974 39.482 102.382 39.0149 101.633C38.5479 100.884 38.3011 100.011 38.3047 99.1193V61.6956C38.306 60.4696 38.7768 59.2941 39.6136 58.4272C40.4504 57.5603 41.585 57.0726 42.7684 57.0713H123.115C124.299 57.0727 125.433 57.5603 126.27 58.4272C127.107 59.2942 127.578 60.4696 127.579 61.6956V99.1194C127.582 100.011 127.336 100.884 126.869 101.633C126.402 102.382 125.734 102.974 124.948 103.337C111.744 109.522 97.4333 112.769 82.9418 112.868Z" fill="#264B8D"/>
<path d="M82.5708 82.5789C81.9752 82.5795 81.3854 82.4597 80.8363 82.2267L17.1212 55.0764C16.2995 54.7264 15.6005 54.1357 15.1143 53.3807C14.6281 52.6256 14.377 51.7408 14.3933 50.8402C14.4097 49.9397 14.6927 49.0647 15.206 48.3282C15.7193 47.5916 16.4392 47.0273 17.273 46.7078L80.9889 22.2945C82.0152 21.8995 83.1498 21.9019 84.1744 22.3014L147.037 46.7146C147.866 47.0366 148.581 47.6012 149.09 48.3359C149.6 49.0707 149.881 49.9424 149.897 50.8394C149.914 51.7364 149.665 52.6179 149.182 53.3712C148.7 54.1245 148.006 54.7154 147.189 55.0681L84.3265 82.2179C83.7714 82.4567 83.1742 82.5795 82.5708 82.5789Z" fill="#264B8D"/>
<path d="M45.4781 104.898C48.5596 104.898 51.0577 102.399 51.0577 99.3179C51.0577 96.2364 48.5596 93.7383 45.4781 93.7383C42.3965 93.7383 39.8984 96.2364 39.8984 99.3179C39.8984 102.399 42.3965 104.898 45.4781 104.898Z" fill="#EF9635"/>
<path opacity="0.2" d="M147.471 52.3073L84.1461 78.415C83.6524 78.6185 83.1213 78.7241 82.5843 78.7253C82.0474 78.7266 81.5157 78.6235 81.021 78.4223L16.8378 52.315C16.0318 51.9949 15.3593 51.425 14.9267 50.6954C14.6437 51.1685 14.4683 51.6943 14.4122 52.2378C14.3561 52.7813 14.4206 53.3301 14.6013 53.8478C14.7821 54.3654 15.075 54.8401 15.4606 55.2402C15.8462 55.6403 16.3156 55.9568 16.8378 56.1686L81.021 82.2759C81.5157 82.4771 82.0474 82.5802 82.5843 82.579C83.1213 82.5777 83.6524 82.4722 84.1461 82.2686L147.471 56.161C147.991 55.9473 148.457 55.6298 148.84 55.2295C149.223 54.8292 149.514 54.3551 149.692 53.8386C149.871 53.3221 149.935 52.7748 149.878 52.233C149.821 51.6912 149.646 51.1671 149.364 50.6953C148.935 51.4191 148.269 51.9858 147.471 52.3073Z" fill="black"/>
<path d="M45.7003 98.5204C45.9704 98.5204 46.2295 98.4199 46.4205 98.2411C46.6116 98.0622 46.7189 97.8196 46.7189 97.5667V65.6551L80.3139 54.1964C80.5841 54.2002 80.8448 54.1033 81.0386 53.9271C81.2325 53.751 81.3437 53.5099 81.3477 53.2569C81.3518 53.004 81.2483 52.7599 81.0601 52.5784C80.8719 52.3969 80.6144 52.2928 80.3443 52.2891L46.7492 63.7477C46.4789 63.7419 46.2101 63.7875 45.9591 63.8818C45.7081 63.9761 45.4802 64.1171 45.2892 64.2963C45.0961 64.4733 44.9429 64.6847 44.8385 64.9181C44.7342 65.1515 44.6808 65.4021 44.6816 65.6551V97.5667C44.6817 97.8196 44.789 98.0622 44.98 98.241C45.171 98.4199 45.4301 98.5204 45.7003 98.5204Z" fill="#EF9635"/>
</svg>
