<svg width="32" height="59" viewBox="0 0 32 59" fill="none" xmlns="http://www.w3.org/2000/svg">
<path d="M31.6347 27.7572C31.6347 32.3961 29.9889 36.3568 26.857 39.3042C24.6346 41.3968 21.2113 44.3297 21.2113 47.4308V49.9964H10.7879V47.4308C10.7879 44.2973 7.35128 41.3583 5.14225 39.3042C2.08107 36.46 0.364563 32.2305 0.364563 27.7572V27.6623C0.378012 23.5791 2.03782 19.6684 4.97892 16.7903C7.92002 13.9122 11.9015 12.3024 16.0478 12.315C20.194 12.3276 24.1654 13.9615 27.0884 16.8574C30.0115 19.7533 31.6468 23.674 31.6347 27.7572Z" fill="#FFBD00"/>
<path d="M21.2113 50.3566C21.1143 50.3566 21.0212 50.3186 20.9527 50.2511C20.8841 50.1835 20.8455 50.0919 20.8455 49.9964V47.4303C20.8455 44.4139 23.8664 41.598 26.0722 39.5419C26.2551 39.3712 26.4332 39.2057 26.6041 39.0442C29.6554 36.1715 31.2683 32.2686 31.2683 27.7573C31.2683 19.3258 24.5616 12.721 15.9999 12.721H15.9568C11.9276 12.7255 8.06405 14.3008 5.21095 17.1026C2.35786 19.9044 0.747318 23.7047 0.731465 27.6726V27.7567C0.731465 32.1747 2.43078 36.2882 5.39395 39.0428C5.54402 39.1824 5.69994 39.3261 5.86001 39.4737C8.09427 41.5337 11.1542 44.3549 11.1542 47.4304V49.9964C11.1542 50.0919 11.1157 50.1835 11.0471 50.2511C10.9785 50.3186 10.8855 50.3566 10.7885 50.3566C10.6915 50.3566 10.5985 50.3186 10.5299 50.2511C10.4613 50.1835 10.4228 50.0919 10.4228 49.9964V47.4303C10.4228 44.6672 7.49691 41.9694 5.36005 39.9988C5.19925 39.8507 5.04317 39.7064 4.89179 39.566C1.78307 36.676 0 32.3717 0 27.7568V27.6703C0.0243822 19.0209 7.17872 12.0002 15.9557 12.0002H16.0009C20.2221 11.9786 24.2792 13.6092 27.2795 16.5334C30.2799 19.4576 31.9778 23.4357 31.9998 27.5927C32.0001 27.6476 32.0001 27.7024 31.9998 27.7573C31.9998 32.4701 30.3088 36.5531 27.1097 39.5649C26.9379 39.7266 26.7591 39.8934 26.575 40.065C24.4659 42.0311 21.5766 44.7239 21.5766 47.4303V49.9964C21.5766 50.0919 21.5381 50.1835 21.4695 50.2511C21.4009 50.3186 21.3079 50.3566 21.2109 50.3566H21.2113Z" fill="#616161"/>
<path d="M19.4745 54.9782H12.5256C12.3639 54.9782 12.2089 54.9149 12.0946 54.8023C11.9802 54.6898 11.916 54.5371 11.916 54.3779C11.916 54.2187 11.9802 54.066 12.0946 53.9534C12.2089 53.8408 12.3639 53.7776 12.5256 53.7776H19.4745C19.6362 53.7776 19.7912 53.8408 19.9055 53.9534C20.0198 54.066 20.084 54.2187 20.084 54.3779C20.084 54.5371 20.0198 54.6898 19.9055 54.8023C19.7912 54.9149 19.6362 54.9782 19.4745 54.9782Z" fill="#616161"/>
<path d="M16.7467 58.9999H15.2512C14.7318 59.0003 14.222 58.8612 13.7768 58.5977C13.7108 58.5598 13.6597 58.5011 13.6316 58.4311C13.6036 58.3611 13.6003 58.2838 13.6222 58.2118C13.6423 58.1378 13.6867 58.0724 13.7485 58.0258C13.8102 57.9793 13.886 57.9543 13.9637 57.9546H18.0342C18.112 57.9543 18.1877 57.9793 18.2495 58.0258C18.3113 58.0724 18.3557 58.1377 18.3758 58.2118C18.3977 58.2838 18.3944 58.3611 18.3663 58.4311C18.3383 58.5011 18.2871 58.5598 18.2211 58.5977C17.7759 58.8612 17.2662 59.0003 16.7467 58.9999Z" fill="#616161"/>
<path d="M19.4756 56.8743L12.4854 56.8735L12.4638 56.8278C12.4431 56.7437 12.4423 56.6561 12.4613 56.5717C12.4803 56.4872 12.5187 56.4082 12.5734 56.3406C12.629 56.2713 12.6998 56.2152 12.7805 56.1768C12.8613 56.1383 12.9498 56.1185 13.0395 56.1187H18.9592C19.0489 56.1185 19.1375 56.1383 19.2182 56.1768C19.299 56.2153 19.3698 56.2713 19.4253 56.3407C19.4796 56.4073 19.5178 56.4853 19.5371 56.5686C19.5563 56.652 19.5561 56.7385 19.5364 56.8218L19.5254 56.8681L19.4756 56.8743Z" fill="#616161"/>
<path d="M21.2111 52.8478H10.7877C10.626 52.8478 10.471 52.7845 10.3567 52.672C10.2423 52.5594 10.1781 52.4067 10.1781 52.2475C10.1781 52.0883 10.2423 51.9356 10.3567 51.823C10.471 51.7105 10.626 51.6472 10.7877 51.6472H21.2111C21.3727 51.6472 21.5278 51.7105 21.6421 51.823C21.7564 51.9356 21.8206 52.0883 21.8206 52.2475C21.8206 52.4067 21.7564 52.5594 21.6421 52.672C21.5278 52.7845 21.3727 52.8478 21.2111 52.8478Z" fill="#616161"/>
<path d="M15.7436 37.1661L13.576 49.9965H12.3386L14.5403 36.9692C14.5668 36.8121 14.6557 36.6717 14.7872 36.5791C14.9188 36.4864 15.0824 36.4491 15.2419 36.4752C15.4015 36.5013 15.544 36.5887 15.6381 36.7183C15.7321 36.8479 15.7701 37.009 15.7436 37.1661Z" fill="#9B9B9B"/>
<path d="M19.9093 49.9965H18.6719L16.5043 37.1661C16.4778 37.009 16.5158 36.8479 16.6099 36.7183C16.704 36.5887 16.8464 36.5013 17.006 36.4752C17.1656 36.4491 17.3291 36.4864 17.4607 36.5791C17.5923 36.6717 17.6811 36.8121 17.7076 36.9692L19.9093 49.9965Z" fill="#9B9B9B"/>
<path d="M12.0378 36.7372C12.0378 36.578 12.102 36.4254 12.2163 36.3128C12.3306 36.2002 12.4857 36.137 12.6473 36.137H19.3516C19.5132 36.137 19.6683 36.2002 19.7826 36.3128C19.8969 36.4254 19.9611 36.578 19.9611 36.7372C19.9611 36.8964 19.8969 37.0491 19.7826 37.1617C19.6683 37.2743 19.5132 37.3375 19.3516 37.3375H12.6473C12.4857 37.3375 12.3306 37.2743 12.2163 37.1617C12.102 37.0491 12.0378 36.8964 12.0378 36.7372Z" fill="#9B9B9B"/>
<path d="M8.52722 8.99989C8.41298 9.00004 8.30259 8.95386 8.21664 8.86996L4.15823 4.9203C4.06526 4.82796 4.00873 4.69845 4.00093 4.5599C3.99313 4.42135 4.03469 4.28497 4.11657 4.18039C4.19845 4.07581 4.31404 4.01149 4.43823 4.0014C4.56241 3.9913 4.68514 4.03626 4.77976 4.1265L8.83817 8.07615C8.91066 8.14669 8.96211 8.24022 8.98565 8.34424C9.00918 8.44825 9.00368 8.5578 8.96987 8.65823C8.93607 8.75867 8.87557 8.8452 8.79647 8.90627C8.71737 8.96735 8.62343 9.00005 8.52722 9V8.99989Z" fill="#616161"/>
<path d="M24.5674 9C24.4519 9.00005 24.3392 8.96735 24.2442 8.90628C24.1493 8.84521 24.0767 8.75868 24.0362 8.65825C23.9956 8.55783 23.989 8.44829 24.0172 8.34428C24.0455 8.24027 24.1072 8.14675 24.1942 8.07621L29.0643 4.12649C29.1778 4.03626 29.3251 3.9913 29.4741 4.00139C29.6231 4.01149 29.7619 4.07581 29.8601 4.18038C29.9584 4.28495 30.0082 4.42133 29.9989 4.55986C29.9895 4.6984 29.9217 4.82791 29.8101 4.92025L24.9399 8.86966C24.8369 8.95367 24.7045 9 24.5674 9Z" fill="#616161"/>
<path d="M17.2351 7.3701C17.1622 7.45965 17.0656 7.5264 16.9583 7.56144C16.851 7.59647 16.7381 7.59811 16.6346 7.56614C16.5311 7.53417 16.442 7.47011 16.3792 7.38253C16.3164 7.29495 16.2829 7.18802 16.2831 7.07602L16.2963 0.80564C16.2981 0.66062 16.3562 0.518032 16.4582 0.408861C16.5601 0.29969 16.6976 0.23276 16.8407 0.222614C16.9838 0.212467 17.1211 0.259924 17.2226 0.354673C17.3241 0.449423 17.3817 0.583806 17.3828 0.728622L17.3693 6.9989C17.3694 7.13186 17.3216 7.2638 17.2351 7.3701Z" fill="#616161"/>
</svg>
