<?xml version="1.0" encoding="UTF-8"?><svg id="_レイヤー_2" xmlns="http://www.w3.org/2000/svg" viewBox="0 0 514.81 127.97"><defs><style>.cls-1{fill:#fff;}.cls-2{fill:none;stroke:#fff;stroke-miterlimit:10;}</style></defs><g id="_レイヤー_2-2"><path class="cls-1" d="m43.14,123.88c-15.6-9.42-24.99-9.55-42.59-8l-.55-48.79,3.6-.04.95,43.37c18.18.71,29.19,3.28,38.59,13.46Z"/><path class="cls-1" d="m45.3,123.85c15.39-9.77,24.77-10.11,42.4-8.95l-.55-48.79-3.6.04v43.38c-18.15,1.11-29.09,3.93-38.26,14.32Z"/><path class="cls-1" d="m43.12,122.33c-9.44-11.29-20.46-12.95-35.22-15.17l-1.23-49.44c16.47,4.17,28.88,11.46,35.98,22.86l.47,41.74Z"/><path class="cls-2" d="m45.34,122.3c9.19-11.5,20.17-13.4,34.87-15.95l.13-49.45c-16.37,4.53-28.62,12.11-35.46,23.66l.47,41.74Z"/><path class="cls-1" d="m70.67,86.79s.03-.03.04-.04c.02-.03.03-.07.04-.1,0,0,0,0,0,0,.01-.05,0-.11,0-.16,0,0,0-.01,0-.02,0,0,0,0,0,0-.01-.04-.03-.07-.06-.11l-4.67-5.15c-.05-.06-.13-.1-.21-.12l-4.49-.85s-.03,0-.04,0c0,0-.01,0-.02,0,0,0-.01,0-.02,0-.04,0-.09,0-.13.02,0,0,0,0-.01,0-.04.02-.08.04-.11.07,0,0,0,0-.01,0l-5.13,5.17c-.13.13-.13.32,0,.45l4.67,5.15s.02.02.03.03c.04.04.1.06.16.08,0,0,.01,0,.02,0l4.49.85c.13.02.26-.01.35-.1l5.13-5.17s0-.01,0-.02Zm-6.69.36l-3.19,3.22m5.32-4.96l-1.32-1.45-2.59-2.86,3.32.63,3.91,4.31-.71-.14-2.61-.5Zm-4.61,5.27l4.55-4.58.67.13,2.97.57-4.55,4.58-3.64-.69Zm14.55-78.18s.05-.07.07-.11c.04-.08.06-.17.06-.25,0,0,0,0,0-.01,0-.13-.02-.25-.08-.37,0-.01,0-.03,0-.04,0,0-.01,0-.01-.02-.05-.09-.11-.17-.19-.23L63.01.81c-.15-.12-.34-.2-.54-.21L51.61,0s-.07,0-.1,0c-.02,0-.04,0-.05,0-.02,0-.03.01-.04.01-.1.02-.2.04-.29.09,0,0-.02,0-.03.01-.09.05-.17.13-.24.21,0,0-.02.01-.03.02l-10.15,13.77c-.25.34-.19.79.14,1.06l12.87,10.66s.06.04.09.06c.12.08.26.11.4.13.02,0,.03.02.05.02l10.86.6c.31.02.6-.12.78-.35l10.15-13.77s0-.03.01-.04Zm-33.46,1.96l9.15-12.42,11.54,9.56-2.83,3.84-6.32,8.58-11.54-9.56Zm22.21-3.78l-3.63-3.01-7.13-5.91,8.04.45,10.76,8.92-1.72-.1-6.32-.35Zm15.5,47.34s.03-.05.03-.08c.01-.06.02-.11.01-.17,0,0,0,0,0,0,0-.08-.04-.16-.09-.23,0,0,0-.02,0-.02,0,0,0,0-.01,0-.04-.05-.09-.1-.15-.13l-9.41-5.58c-.11-.06-.24-.09-.37-.08l-6.99.66s-.04.01-.06.02c-.01,0-.02,0-.04,0,0,0-.02,0-.03.01-.06.02-.12.05-.17.09,0,0-.01,0-.01,0-.05.04-.1.1-.13.16,0,0-.01.01-.01.02l-4.92,9.78c-.12.24-.03.52.21.67l9.41,5.58s.04.02.06.03c.08.04.18.05.27.04.01,0,.02,0,.04,0l6.99-.66c.2-.02.37-.13.45-.3l4.92-9.78s0-.02,0-.03Zm-21.12,4.48l4.44-8.82,8.44,5-1.37,2.73-3.06,6.09-8.44-5Zm13.74-4.56l-2.65-1.57-5.22-3.09,5.18-.49,7.87,4.66-1.11.11-4.07.39Zm-4.11,9.71l4.36-8.67,1.04-.1,4.63-.44-4.36,8.67-5.67.54Z"/><path class="cls-1" d="m66.54,36.6l7.83-7.89,7.3,8-2.42,2.44-5.41,5.45-7.3-8Zm16.31-.39l-2.29-2.52-4.51-4.95,5.72,1.15,6.81,7.46-1.23-.25-4.5-.9Zm-7.79,8.93l7.7-7.76,1.15.23,5.12,1.03-7.7,7.76-6.26-1.26Zm-26.22,32.59l-3.62-7.13,7.11-3.18,1.12,2.2,2.5,4.92-7.11,3.18Zm3.42-11.23l-2.24,1-4.4,1.96,2.08-3.65,6.63-2.96-.45.78-1.63,2.87Zm4.34,7.34l-3.56-7.01.42-.73,1.86-3.26,3.56,7.01-2.27,3.99Z"/><path class="cls-1" d="m52.96,31.34s-.02-.07-.05-.11c-.04-.07-.1-.13-.16-.18,0,0,0,0-.01,0-.09-.08-.2-.13-.31-.15-.01,0-.02-.01-.03-.02,0,0-.01,0-.02,0-.09-.02-.18-.02-.26,0l-14.23,2.44c-.16.03-.31.11-.42.23l-5.75,6.75s-.03.05-.04.07c0,.01-.02.02-.03.03,0,.01,0,.02-.01.04-.04.08-.06.15-.07.24,0,0,0,.01,0,.02,0,.09,0,.18.04.27,0,0,0,.02,0,.03l5.3,14.31c.13.35.5.56.86.5l14.23-2.44s.06-.01.09-.02c.11-.03.21-.1.29-.19.01-.01.03-.01.04-.02l5.75-6.75c.16-.19.21-.46.12-.7l-5.3-14.31s-.02-.02-.02-.03Zm-6.85,6.32l-4.01.69-7.89,1.35,4.26-5,11.9-2.04-.91,1.07-3.35,3.93Zm5.96,13.53l-4.69-12.68.85-1,3.81-4.47,4.69,12.68-4.67,5.47Z"/><path class="cls-1" d="m134.29,115.86c-3.64,0-6.91-.56-9.8-1.68-2.89-1.12-5.34-2.77-7.35-4.94-2.01-2.17-3.55-4.82-4.62-7.94-1.07-3.13-1.61-6.72-1.61-10.78s.62-7.65,1.85-10.78c1.24-3.13,2.93-5.78,5.07-7.95,2.15-2.17,4.67-3.81,7.56-4.94,2.89-1.12,6-1.68,9.31-1.68,2.01,0,3.83.15,5.46.46,1.63.3,3.06.64,4.27,1.01,1.21.37,2.22.77,3.01,1.19.79.42,1.35.72,1.68.91l-2.59,7.21c-1.12-.7-2.72-1.36-4.79-2-2.08-.63-4.33-.94-6.76-.94-2.1,0-4.06.36-5.88,1.08-1.82.72-3.4,1.81-4.73,3.25-1.33,1.45-2.37,3.27-3.11,5.46-.75,2.19-1.12,4.74-1.12,7.63,0,2.57.29,4.92.88,7.07.58,2.15,1.48,4,2.69,5.56,1.21,1.56,2.75,2.78,4.62,3.64,1.87.86,4.11,1.29,6.72,1.29,3.13,0,5.67-.32,7.63-.95s3.48-1.22,4.55-1.79l2.38,7.21c-.56.37-1.32.75-2.28,1.12-.96.37-2.09.74-3.4,1.08-1.31.35-2.78.63-4.41.84-1.63.21-3.38.32-5.25.32Z"/><path class="cls-1" d="m176.15,85.83c-.7-.23-1.67-.48-2.9-.73-1.24-.26-2.67-.39-4.31-.39-.93,0-1.92.09-2.98.28-1.05.19-1.79.35-2.21.49v29.33h-8.47v-34.86c1.63-.61,3.67-1.18,6.12-1.72,2.45-.54,5.17-.8,8.15-.8.56,0,1.21.03,1.96.1.75.07,1.49.16,2.24.28.75.12,1.47.26,2.17.42.7.16,1.26.32,1.68.46l-1.47,7.14Z"/><path class="cls-1" d="m194,77.29c2.8,0,5.16.35,7.07,1.05,1.91.7,3.44,1.68,4.58,2.94,1.14,1.26,1.96,2.79,2.45,4.58.49,1.8.74,3.77.74,5.92v22.19c-1.31.28-3.28.62-5.92,1.01-2.64.4-5.61.59-8.93.59-2.19,0-4.2-.21-6.02-.63-1.82-.42-3.37-1.1-4.65-2.03-1.28-.93-2.29-2.15-3.01-3.64-.72-1.49-1.08-3.34-1.08-5.53s.41-3.87,1.23-5.32c.82-1.45,1.93-2.62,3.33-3.54s3.02-1.56,4.86-1.96c1.84-.4,3.77-.6,5.78-.6.93,0,1.91.06,2.94.18,1.03.12,2.12.31,3.29.59v-1.4c0-.98-.12-1.91-.35-2.8-.23-.89-.64-1.67-1.23-2.35-.58-.68-1.35-1.2-2.31-1.57-.96-.37-2.16-.56-3.6-.56-1.96,0-3.76.14-5.39.42-1.63.28-2.96.61-3.99.98l-1.05-6.86c1.07-.37,2.64-.75,4.69-1.12,2.05-.37,4.25-.56,6.58-.56Zm.7,31.57c2.61,0,4.6-.14,5.95-.42v-9.38c-.47-.14-1.14-.28-2.03-.42-.89-.14-1.87-.21-2.94-.21-.93,0-1.88.07-2.83.21-.96.14-1.82.4-2.59.77-.77.37-1.39.9-1.85,1.57-.47.68-.7,1.53-.7,2.55,0,2.01.63,3.4,1.89,4.17,1.26.77,2.96,1.16,5.11,1.16Z"/><path class="cls-1" d="m232.43,60.49c1.96,0,3.69.17,5.18.52,1.49.35,2.61.67,3.36.94l-1.61,7c-.79-.37-1.71-.68-2.77-.91-1.05-.23-2.18-.35-3.4-.35-1.35,0-2.5.2-3.43.59-.93.4-1.68.95-2.24,1.65-.56.7-.96,1.55-1.19,2.56-.23,1-.35,2.09-.35,3.25v2.45h13.3v7.07h-13.3v29.54h-8.47v-39.2c0-4.71,1.24-8.41,3.71-11.09,2.47-2.68,6.21-4.02,11.2-4.02Z"/><path class="cls-1" d="m243.42,68.54l8.47-1.4v11.06h13.02v7.07h-13.02v14.91c0,2.94.47,5.04,1.4,6.3.93,1.26,2.52,1.89,4.76,1.89,1.54,0,2.9-.16,4.09-.49,1.19-.33,2.14-.63,2.83-.91l1.4,6.72c-.98.42-2.26.85-3.85,1.29-1.59.44-3.45.67-5.6.67-2.61,0-4.79-.35-6.54-1.05s-3.14-1.71-4.17-3.04c-1.03-1.33-1.75-2.94-2.17-4.83-.42-1.89-.63-4.05-.63-6.48v-31.71Z"/><path class="cls-1" d="m308.03,115.86c-3.64,0-6.91-.56-9.8-1.68-2.89-1.12-5.34-2.77-7.35-4.94-2.01-2.17-3.55-4.82-4.62-7.94-1.07-3.13-1.61-6.72-1.61-10.78s.62-7.65,1.85-10.78c1.24-3.13,2.93-5.78,5.07-7.95,2.15-2.17,4.67-3.81,7.56-4.94,2.89-1.12,6-1.68,9.31-1.68,2.01,0,3.83.15,5.46.46,1.63.3,3.06.64,4.27,1.01,1.21.37,2.22.77,3.01,1.19.79.42,1.35.72,1.68.91l-2.59,7.21c-1.12-.7-2.72-1.36-4.79-2-2.08-.63-4.33-.94-6.76-.94-2.1,0-4.06.36-5.88,1.08-1.82.72-3.4,1.81-4.73,3.25-1.33,1.45-2.37,3.27-3.11,5.46-.75,2.19-1.12,4.74-1.12,7.63,0,2.57.29,4.92.88,7.07.58,2.15,1.48,4,2.69,5.56,1.21,1.56,2.75,2.78,4.62,3.64,1.87.86,4.11,1.29,6.72,1.29,3.13,0,5.67-.32,7.63-.95s3.48-1.22,4.55-1.79l2.38,7.21c-.56.37-1.32.75-2.28,1.12-.96.37-2.09.74-3.4,1.08-1.31.35-2.78.63-4.41.84-1.63.21-3.38.32-5.25.32Z"/><path class="cls-1" d="m361.93,96.47c0,2.89-.42,5.53-1.26,7.91-.84,2.38-2.03,4.41-3.57,6.09-1.54,1.68-3.39,2.99-5.56,3.92-2.17.93-4.56,1.4-7.17,1.4s-4.99-.47-7.14-1.4c-2.15-.93-3.99-2.24-5.53-3.92-1.54-1.68-2.74-3.71-3.6-6.09-.86-2.38-1.29-5.02-1.29-7.91s.43-5.52,1.29-7.88c.86-2.36,2.08-4.38,3.64-6.06,1.56-1.68,3.42-2.98,5.57-3.88,2.15-.91,4.5-1.37,7.07-1.37s4.93.46,7.1,1.37c2.17.91,4.03,2.2,5.57,3.88s2.74,3.7,3.6,6.06c.86,2.36,1.29,4.98,1.29,7.88Zm-8.68,0c0-3.64-.78-6.52-2.34-8.65-1.56-2.12-3.75-3.19-6.54-3.19s-4.98,1.06-6.55,3.19c-1.56,2.12-2.34,5-2.34,8.65s.78,6.6,2.34,8.75,3.75,3.22,6.55,3.22,4.98-1.07,6.54-3.22c1.56-2.15,2.34-5.06,2.34-8.75Z"/><path class="cls-1" d="m381.53,115.51c-2.52-.05-4.61-.33-6.26-.84-1.66-.51-2.97-1.25-3.96-2.21-.98-.96-1.67-2.15-2.06-3.57-.4-1.42-.6-3.04-.6-4.87v-42.14l8.47-1.4v41.93c0,1.03.08,1.89.24,2.59.16.7.46,1.29.88,1.78.42.49.99.86,1.72,1.12.72.26,1.64.46,2.76.6l-1.19,7Z"/><path class="cls-1" d="m400.43,115.51c-2.52-.05-4.61-.33-6.26-.84-1.66-.51-2.97-1.25-3.96-2.21-.98-.96-1.67-2.15-2.06-3.57-.4-1.42-.6-3.04-.6-4.87v-42.14l8.47-1.4v41.93c0,1.03.08,1.89.25,2.59.16.7.46,1.29.88,1.78.42.49.99.86,1.71,1.12.72.26,1.65.46,2.77.6l-1.19,7Z"/><path class="cls-1" d="m404.56,96.68c0-3.22.48-6.04,1.43-8.47.96-2.43,2.23-4.44,3.82-6.05,1.59-1.61,3.41-2.82,5.46-3.64,2.05-.82,4.15-1.23,6.3-1.23,5.04,0,8.97,1.56,11.79,4.69,2.82,3.13,4.24,7.79,4.24,14,0,.47-.01.99-.04,1.58-.02.58-.06,1.11-.11,1.57h-24.15c.23,2.94,1.27,5.22,3.11,6.82,1.84,1.61,4.52,2.42,8.02,2.42,2.05,0,3.93-.19,5.63-.56,1.7-.37,3.04-.77,4.03-1.19l1.12,6.93c-.47.23-1.11.48-1.92.73-.82.26-1.75.49-2.8.7s-2.18.38-3.39.53c-1.21.14-2.45.21-3.71.21-3.22,0-6.02-.48-8.4-1.44s-4.34-2.29-5.88-3.99c-1.54-1.7-2.68-3.71-3.43-6.02-.75-2.31-1.12-4.84-1.12-7.59Zm24.57-3.78c0-1.17-.16-2.27-.49-3.32-.33-1.05-.81-1.96-1.44-2.73s-1.4-1.38-2.31-1.82c-.91-.44-2-.67-3.25-.67s-2.45.25-3.43.74-1.81,1.13-2.48,1.92c-.68.79-1.2,1.7-1.58,2.73-.37,1.03-.63,2.08-.77,3.15h15.75Z"/><path class="cls-1" d="m474.91,111.1c0,5.83-1.48,10.1-4.45,12.81-2.96,2.71-7.5,4.06-13.61,4.06-2.24,0-4.42-.19-6.54-.56-2.12-.37-4.05-.86-5.78-1.47l1.54-7.21c1.45.61,3.09,1.1,4.93,1.47,1.84.37,3.84.56,5.99.56,3.41,0,5.83-.7,7.28-2.1,1.45-1.4,2.17-3.48,2.17-6.23v-1.4c-.84.42-1.95.84-3.33,1.26-1.38.42-2.95.63-4.72.63-2.33,0-4.47-.37-6.41-1.12-1.94-.75-3.59-1.84-4.97-3.29-1.38-1.45-2.45-3.26-3.22-5.43-.77-2.17-1.15-4.68-1.15-7.52,0-2.66.41-5.11,1.22-7.35.82-2.24,2.01-4.15,3.57-5.74,1.56-1.59,3.46-2.82,5.71-3.71,2.24-.89,4.78-1.33,7.63-1.33s5.37.21,7.84.63c2.47.42,4.57.86,6.3,1.33v31.71Zm-23.59-15.54c0,3.59.78,6.22,2.34,7.88,1.56,1.66,3.58,2.48,6.06,2.48,1.35,0,2.62-.19,3.81-.56,1.19-.37,2.16-.82,2.91-1.33v-18.97c-.61-.14-1.35-.27-2.24-.38-.89-.12-2.01-.18-3.36-.18-3.08,0-5.44,1.02-7.07,3.04-1.63,2.03-2.45,4.7-2.45,8.02Z"/><path class="cls-1" d="m481.77,96.68c0-3.22.48-6.04,1.43-8.47.96-2.43,2.23-4.44,3.82-6.05,1.59-1.61,3.41-2.82,5.46-3.64,2.05-.82,4.15-1.23,6.3-1.23,5.04,0,8.97,1.56,11.79,4.69,2.82,3.13,4.24,7.79,4.24,14,0,.47-.01.99-.04,1.58-.02.58-.06,1.11-.11,1.57h-24.15c.23,2.94,1.27,5.22,3.11,6.82,1.84,1.61,4.52,2.42,8.02,2.42,2.05,0,3.93-.19,5.63-.56,1.7-.37,3.04-.77,4.03-1.19l1.12,6.93c-.47.23-1.11.48-1.92.73-.82.26-1.75.49-2.8.7s-2.18.38-3.39.53c-1.21.14-2.45.21-3.71.21-3.22,0-6.02-.48-8.4-1.44s-4.34-2.29-5.88-3.99c-1.54-1.7-2.68-3.71-3.43-6.02-.75-2.31-1.12-4.84-1.12-7.59Zm24.57-3.78c0-1.17-.16-2.27-.49-3.32-.33-1.05-.81-1.96-1.44-2.73s-1.4-1.38-2.31-1.82c-.91-.44-2-.67-3.25-.67s-2.45.25-3.43.74-1.81,1.13-2.48,1.92c-.68.79-1.2,1.7-1.58,2.73-.37,1.03-.63,2.08-.77,3.15h15.75Z"/></g></svg>