<svg width="514" height="115" viewBox="0 0 514 115" fill="none" xmlns="http://www.w3.org/2000/svg">
<path d="M0 0H514V83.5585L261.016 115L0 84.1844L0 0Z" fill="#ED7973"/>
<path d="M56.9199 42.6518C59.8359 42.8678 62.9319 43.0478 66.6759 43.0478C70.0599 43.0478 74.4879 42.7958 76.9719 42.6158V37.8278C74.2359 38.1158 70.1679 38.3318 66.6399 38.3318C62.8959 38.3318 59.5839 38.1878 56.9199 37.8998V42.6518ZM55.2639 52.5878C54.9759 53.9198 54.5439 55.6478 54.5439 57.7358C54.5439 62.6318 58.6479 65.3678 66.8199 65.3678C71.8239 65.3678 76.1079 64.8998 79.2039 64.1438L79.1679 59.1398C75.9999 60.0038 71.4639 60.5438 66.6399 60.5438C61.4919 60.5438 59.3319 58.8878 59.3319 56.6198C59.3319 55.4318 59.6199 54.3158 59.9439 53.0198L55.2639 52.5878Z" fill="white"/>
<path d="M96.6279 57.5198C95.2959 57.5198 93.8559 55.7558 93.8559 52.1558C93.8559 48.2318 96.9879 43.0478 102.892 41.8238C102.46 44.7758 101.812 47.8358 100.984 50.4638C99.5439 55.2878 98.1039 57.5198 96.6279 57.5198ZM106.42 65.4758C115.42 64.1078 120.028 58.7798 120.028 51.2918C120.028 43.5158 114.448 37.3598 105.628 37.3598C96.3759 37.3598 89.2119 44.4158 89.2119 52.6238C89.2119 58.6358 92.5599 62.9918 96.4839 62.9918C100.372 62.9918 103.468 58.5998 105.592 51.3998C106.6 48.0518 107.212 44.7398 107.716 41.7158C112.504 42.5438 115.168 46.2158 115.168 51.1478C115.168 56.3318 111.64 59.6078 107.068 60.6878C106.132 60.9038 105.124 61.0838 103.756 61.2638L106.42 65.4758Z" fill="white"/>
<path d="M140.584 58.2758C140.584 60.6158 139.756 61.6598 137.452 61.6598C134.968 61.6598 133.168 61.0118 133.168 59.2478C133.168 57.7358 134.824 56.7998 137.596 56.7998C138.604 56.7998 139.612 56.9078 140.548 57.0518C140.584 57.5198 140.584 57.9518 140.584 58.2758ZM155.992 59.9318C153.544 57.6278 149.692 55.1798 145.156 53.8118C144.976 51.1838 144.832 48.3758 144.76 46.2158C147.64 46.1438 151.888 45.9998 154.876 45.7118L154.696 41.4638C151.744 41.7878 147.568 41.9318 144.76 42.0038C144.76 41.1038 144.76 40.2038 144.76 39.4118C144.832 38.0078 144.94 36.2798 145.084 35.2358H139.72C139.936 36.1358 140.044 37.6478 140.08 39.4118C140.116 40.9238 140.152 43.0478 140.152 45.2078C140.152 47.0798 140.296 50.1398 140.404 52.9118C139.72 52.8398 139 52.8038 138.28 52.8038C131.728 52.8038 128.56 55.7558 128.56 59.4638C128.56 64.3238 132.736 65.9798 137.812 65.9798C143.788 65.9798 145.408 62.9558 145.408 59.8238C145.408 59.4638 145.408 59.0678 145.372 58.5998C148.54 60.0398 151.24 62.1638 153.256 64.1798L155.992 59.9318Z" fill="white"/>
<path d="M186.952 52.1558C186.952 57.7358 181.3 60.6158 172.444 61.6238L175.036 66.0878C184.936 64.7198 191.992 59.9678 191.992 52.3358C191.992 46.7558 188.032 43.5518 182.38 43.5518C178.24 43.5518 174.244 44.5958 171.616 45.1718C170.464 45.4238 168.916 45.6758 167.728 45.7838L169.06 50.8598C170.104 50.4998 171.472 49.9598 172.516 49.6358C174.352 49.0958 177.88 47.9078 181.804 47.9078C185.152 47.8718 186.952 49.8158 186.952 52.1558ZM172.984 35.0198L172.264 39.3398C176.368 40.0598 184.108 40.7438 188.284 41.0318L189.004 36.6398C185.224 36.6398 177.124 35.9198 172.984 35.0198Z" fill="white"/>
<path d="M234.184 44.3438C232.384 43.0478 227.956 40.6358 225.4 39.5198L223.096 43.0478C225.544 44.1278 229.612 46.4678 231.664 48.1238L234.184 44.3438ZM220.756 38.8718C219.352 39.3038 217.696 39.6998 215.968 39.9878C216.472 38.0798 216.904 36.2798 217.192 35.1278L212.26 34.6238C212.188 36.4598 211.792 38.6198 211.288 40.5998C210.208 40.6718 209.128 40.7078 208.084 40.7078C206.788 40.7078 204.88 40.6358 203.332 40.4558L203.656 44.6318C205.204 44.7038 206.644 44.7398 208.12 44.7398C208.732 44.7398 209.344 44.7398 209.956 44.7038C208.372 48.5558 205.564 53.8118 202.684 57.3038L207.04 59.4998C209.92 55.4318 212.98 49.2398 214.672 44.2358C217.048 43.9118 219.244 43.4438 220.864 43.0118L220.756 38.8718ZM221.62 58.7078C221.62 60.6158 220.828 62.0198 218.416 62.0198C216.472 62.0198 215.356 61.1198 215.356 59.7878C215.356 58.5278 216.688 57.6638 218.74 57.6638C219.748 57.6638 220.684 57.8078 221.62 58.0238V58.7078ZM221.044 46.2158C221.152 48.3758 221.332 51.5078 221.44 54.1718C220.684 54.0998 219.856 54.0278 219.028 54.0278C214.06 54.0278 211.144 56.7278 211.144 60.2198C211.144 64.1438 214.636 66.1238 219.064 66.1238C224.14 66.1238 225.94 63.5318 225.94 60.2198V59.8958C227.884 61.0838 229.504 62.5238 230.764 63.6758L233.14 59.8598C231.34 58.2398 228.82 56.4398 225.76 55.2878C225.652 53.5238 225.58 51.7958 225.544 50.7878C225.508 49.2038 225.436 47.7278 225.544 46.2158H221.044Z" fill="white"/>
<path d="M247.144 48.5198H253.768V50.3558H247.144V48.5198ZM247.144 43.9478H253.768V45.7838H247.144V43.9478ZM264.82 43.9478V45.7838H257.944V43.9478H264.82ZM264.82 50.3558H257.944V48.5198H264.82V50.3558ZM272.308 55.1798H264.568V53.2718H268.996V41.0318H257.944V39.4118H271.444V35.9198H257.944V33.5438H253.768V35.9198H240.556V39.4118H253.768V41.0318H243.184V53.2718H260.356V55.1798H239.728V58.7798H247.432L244.84 60.6158C246.748 62.0558 249.016 64.2158 249.988 65.6558L253.408 63.1358C252.436 61.8398 250.456 60.0758 248.656 58.7798H260.356V62.8478C260.356 63.3158 260.14 63.4598 259.564 63.4958C258.952 63.4958 256.684 63.4958 254.776 63.4238C255.316 64.5038 255.928 66.0158 256.108 67.1678C258.988 67.1678 261.148 67.1318 262.624 66.5918C264.136 66.0158 264.568 65.0438 264.568 62.9918V58.7798H272.308V55.1798Z" fill="white"/>
<path d="M288.472 38.4038V40.2758H283V38.4038H288.472ZM283 45.3878V43.3358H288.472V45.3878H283ZM292.468 34.9478H278.752V67.1318H283V48.8078H292.468V34.9478ZM299.056 45.4598V43.3358H304.744V45.4598H299.056ZM304.744 38.4038V40.2758H299.056V38.4038H304.744ZM309.064 34.9478H294.988V48.9158H304.744V61.8758C304.744 62.5598 304.492 62.8118 303.736 62.8118C302.98 62.8118 300.316 62.8478 298.048 62.7038C298.696 63.8558 299.38 65.8718 299.56 67.0958C303.052 67.0958 305.428 67.0238 306.976 66.3038C308.56 65.6558 309.064 64.3958 309.064 61.9478V34.9478Z" fill="white"/>
<path d="M328.612 34.3358C328.36 39.0878 328.864 55.4318 314.5 63.3878C315.94 64.3958 317.344 65.6918 318.1 66.8078C325.696 62.1638 329.476 55.2158 331.42 48.7358C333.436 55.3598 337.468 62.7758 345.604 66.8078C346.288 65.6558 347.584 64.1798 348.916 63.1718C335.488 56.8718 333.688 41.3558 333.4 36.3878C333.436 35.6318 333.472 34.9118 333.508 34.3358H328.612Z" fill="white"/>
<path d="M368.536 51.5078C367.744 50.6078 364.432 47.1518 362.992 45.9638V44.9918H367.528V40.9238H362.992V33.5078H358.672V40.9238H353.128V44.9918H358.132C356.908 49.3118 354.64 54.0638 352.084 56.9438C352.84 58.0958 353.848 59.8958 354.28 61.2278C355.936 59.2118 357.412 56.2958 358.672 53.1638V67.0958H362.992V50.8238C364.18 52.3718 365.332 54.0278 366.052 55.1798L368.536 51.5078ZM386.104 40.9238H382.684V33.5798H378.112V40.9238H368.536V44.9918H376.816C374.224 50.2118 369.904 55.4678 365.44 58.2758C366.556 59.1758 367.816 60.6878 368.536 61.8038C371.992 59.1758 375.448 55.1798 378.112 50.8958V61.8398C378.112 62.4878 377.86 62.6678 377.212 62.7038C376.6 62.7038 374.368 62.7038 372.388 62.6318C373 63.8198 373.648 65.7278 373.828 66.9518C376.924 66.9518 379.228 66.8438 380.668 66.1238C382.144 65.4398 382.684 64.3238 382.684 61.8398V44.9918H386.104V40.9238Z" fill="white"/>
<path d="M394.528 35.8838C394.528 36.9998 394.348 38.3678 394.204 39.3758C393.772 42.1118 392.728 48.8438 392.728 54.2438C392.728 59.0678 393.412 63.1358 394.132 65.6198L398.164 65.3318C398.128 64.8278 398.128 64.2158 398.128 63.8558C398.092 63.4598 398.2 62.7038 398.308 62.1998C398.704 60.2558 399.856 56.6198 400.864 53.7038L398.668 51.9398C398.128 53.1278 397.552 54.3158 397.084 55.5758C396.976 54.8558 396.94 53.9918 396.94 53.2718C396.94 49.7078 398.092 41.8598 398.632 39.4838C398.776 38.8358 399.208 37.0358 399.496 36.3158L394.528 35.8838ZM412.528 58.0238C412.528 60.1118 411.772 61.2638 409.576 61.2638C407.704 61.2638 406.264 60.6158 406.264 59.1758C406.264 57.8438 407.632 57.0158 409.648 57.0158C410.62 57.0158 411.592 57.1598 412.528 57.4118V58.0238ZM423.796 59.4638C422.14 57.9158 419.908 56.0798 416.92 54.8558C416.776 52.4438 416.596 49.5998 416.524 46.1438C418.468 45.9998 420.34 45.7838 422.068 45.5318V41.1038C420.376 41.4638 418.504 41.7158 416.56 41.9318C416.56 40.3478 416.632 39.0158 416.668 38.2238C416.704 37.4678 416.776 36.6038 416.884 35.9198H411.772C411.88 36.6398 411.988 37.7198 411.988 38.2598C412.024 39.0158 412.024 40.4558 412.06 42.2198C411.232 42.2558 410.368 42.2558 409.54 42.2558C407.416 42.2558 405.364 42.1478 403.312 41.9318V46.1798C405.436 46.3238 407.452 46.3958 409.54 46.3958C410.368 46.3958 411.232 46.3958 412.096 46.3598C412.132 48.8798 412.24 51.4718 412.348 53.6678C411.628 53.5598 410.836 53.5238 410.008 53.5238C405.148 53.5238 402.088 56.0078 402.088 59.6438C402.088 63.3878 405.184 65.4758 410.08 65.4758C414.904 65.4758 416.848 63.0278 417.064 59.6438C418.468 60.6158 419.908 61.8038 421.384 63.2078L423.796 59.4638Z" fill="white"/>
<path d="M430.096 50.3198C430.096 51.9398 431.392 53.2358 433.012 53.2358C434.632 53.2358 435.928 51.9398 435.928 50.3198C435.928 48.6998 434.632 47.4038 433.012 47.4038C431.392 47.4038 430.096 48.6998 430.096 50.3198ZM442.084 50.3198C442.084 51.9398 443.38 53.2358 445 53.2358C446.62 53.2358 447.916 51.9398 447.916 50.3198C447.916 48.6998 446.62 47.4038 445 47.4038C443.38 47.4038 442.084 48.6998 442.084 50.3198ZM454.072 50.3198C454.072 51.9398 455.368 53.2358 456.988 53.2358C458.608 53.2358 459.904 51.9398 459.904 50.3198C459.904 48.6998 458.608 47.4038 456.988 47.4038C455.368 47.4038 454.072 48.6998 454.072 50.3198Z" fill="white"/>
</svg>
