<svg width="454" height="115" viewBox="0 0 454 115" fill="none" xmlns="http://www.w3.org/2000/svg">
<path d="M0 0H454V83.5585L230.547 115L0 84.1844L0 0Z" fill="#ED7973"/>
<path d="M66.2279 36.532L66.4439 41.104C67.5599 40.996 68.7479 40.852 69.6479 40.78C71.0879 40.636 75.4799 40.42 76.92 40.312C74.724 42.292 70.0799 46.324 66.8759 48.412C65.0399 48.628 62.5559 48.952 60.6479 49.132L61.0799 53.452C64.6439 52.84 68.6399 52.3 71.8799 52.048C70.5839 53.272 69.2879 55.468 69.2879 57.664C69.2879 63.604 74.616 66.34 83.76 65.944L84.696 61.264C83.364 61.372 81.24 61.408 79.26 61.192C76.056 60.796 73.8599 59.716 73.8599 56.908C73.8599 53.992 76.5959 51.688 79.872 51.22C82.032 50.932 85.596 50.932 89.016 51.148V46.936C84.66 46.936 78.7919 47.296 74.004 47.8C76.416 45.892 79.9439 42.94 82.5 40.924C83.2199 40.312 84.552 39.448 85.2719 38.944L82.464 35.668C81.96 35.812 81.132 35.992 79.98 36.1C77.82 36.352 71.1239 36.676 69.6119 36.676C68.388 36.676 67.3439 36.64 66.2279 36.532Z" fill="white"/>
<path d="M116.088 36.928L111.012 34.876C110.364 36.388 109.716 37.54 109.248 38.512C107.376 41.896 99.8519 56.872 97.2239 64L102.264 65.692C102.804 63.82 103.992 59.86 104.964 57.772C106.224 54.856 108.204 52.408 110.652 52.408C111.948 52.408 112.632 53.128 112.74 54.388C112.848 55.828 112.812 58.744 112.956 60.652C113.1 63.244 114.972 65.62 118.86 65.62C124.368 65.62 127.68 61.588 129.516 55.432L125.664 52.3C124.656 56.728 122.712 60.724 119.652 60.724C118.464 60.724 117.492 60.184 117.384 58.78C117.168 57.304 117.276 54.424 117.204 52.84C117.06 49.888 115.44 48.16 112.776 48.16C111.408 48.16 110.04 48.484 108.708 49.24C110.472 46.108 113.172 41.14 114.936 38.584C115.332 38.008 115.728 37.36 116.088 36.928Z" fill="white"/>
<path d="M166.884 44.344C165.084 43.048 160.656 40.636 158.1 39.52L155.796 43.048C158.244 44.128 162.312 46.468 164.364 48.124L166.884 44.344ZM153.456 38.872C152.052 39.304 150.396 39.7 148.668 39.988C149.172 38.08 149.604 36.28 149.892 35.128L144.96 34.624C144.888 36.46 144.492 38.62 143.988 40.6C142.908 40.672 141.828 40.708 140.784 40.708C139.488 40.708 137.58 40.636 136.032 40.456L136.356 44.632C137.904 44.704 139.344 44.74 140.82 44.74C141.432 44.74 142.044 44.74 142.656 44.704C141.072 48.556 138.264 53.812 135.384 57.304L139.74 59.5C142.62 55.432 145.68 49.24 147.372 44.236C149.748 43.912 151.944 43.444 153.564 43.012L153.456 38.872ZM154.32 58.708C154.32 60.616 153.528 62.02 151.116 62.02C149.172 62.02 148.056 61.12 148.056 59.788C148.056 58.528 149.388 57.664 151.44 57.664C152.448 57.664 153.384 57.808 154.32 58.024V58.708ZM153.744 46.216C153.852 48.376 154.032 51.508 154.14 54.172C153.384 54.1 152.556 54.028 151.728 54.028C146.76 54.028 143.844 56.728 143.844 60.22C143.844 64.144 147.336 66.124 151.764 66.124C156.84 66.124 158.64 63.532 158.64 60.22V59.896C160.584 61.084 162.204 62.524 163.464 63.676L165.84 59.86C164.04 58.24 161.52 56.44 158.46 55.288C158.352 53.524 158.28 51.796 158.244 50.788C158.208 49.204 158.136 47.728 158.244 46.216H153.744Z" fill="white"/>
<path d="M186.792 49.816C188.16 49.384 189.816 49.06 191.688 49.024C190.5 51.904 188.916 54.064 187.188 55.792C186.936 54.028 186.792 52.084 186.792 49.888V49.816ZM179.988 59.968C178.836 59.968 178.332 59.356 178.332 58.24C178.332 56.224 180.132 53.488 182.796 51.688C182.868 54.136 183.156 56.584 183.552 58.816C182.22 59.572 180.996 59.968 179.988 59.968ZM193.2 43.264C193.164 43.768 193.02 44.668 192.876 45.388H192.264C190.5 45.388 188.628 45.64 186.936 46.036C186.972 44.956 187.08 43.876 187.188 42.832C191.58 42.616 196.368 42.184 199.86 41.536L199.824 37.432C195.9 38.368 192.048 38.8 187.728 38.944C187.836 38.26 187.944 37.612 188.088 37.036C188.196 36.496 188.34 35.848 188.592 35.128L183.912 35.02C183.948 35.632 183.876 36.496 183.804 37.144L183.588 39.052H182.22C180.024 39.052 176.892 38.764 175.632 38.584L175.776 42.724C177.432 42.796 180.204 42.94 182.076 42.94H183.228C183.084 44.38 182.976 45.892 182.868 47.404C177.9 49.744 174.12 54.568 174.12 59.104C174.12 62.74 176.316 64.324 178.944 64.324C180.816 64.324 182.724 63.748 184.452 62.884C184.596 63.388 184.776 63.892 184.92 64.324L189.024 63.1C188.736 62.236 188.448 61.372 188.196 60.436C190.896 58.204 193.74 54.496 195.72 49.636C198.132 50.572 199.392 52.48 199.392 54.64C199.392 58.132 196.584 61.588 189.708 62.344L192.084 66.088C200.832 64.792 203.82 59.86 203.82 54.856C203.82 50.68 201.084 47.476 196.944 46.108C197.16 45.424 197.412 44.668 197.592 44.272L193.2 43.264Z" fill="white"/>
<path d="M242.484 44.344C240.684 43.048 236.256 40.636 233.7 39.52L231.396 43.048C233.844 44.128 237.912 46.468 239.964 48.124L242.484 44.344ZM229.056 38.872C227.652 39.304 225.996 39.7 224.268 39.988C224.772 38.08 225.204 36.28 225.492 35.128L220.56 34.624C220.488 36.46 220.092 38.62 219.588 40.6C218.508 40.672 217.428 40.708 216.384 40.708C215.088 40.708 213.18 40.636 211.632 40.456L211.956 44.632C213.504 44.704 214.944 44.74 216.42 44.74C217.032 44.74 217.644 44.74 218.256 44.704C216.672 48.556 213.864 53.812 210.984 57.304L215.34 59.5C218.22 55.432 221.28 49.24 222.972 44.236C225.348 43.912 227.544 43.444 229.164 43.012L229.056 38.872ZM229.92 58.708C229.92 60.616 229.128 62.02 226.716 62.02C224.772 62.02 223.656 61.12 223.656 59.788C223.656 58.528 224.988 57.664 227.04 57.664C228.048 57.664 228.984 57.808 229.92 58.024V58.708ZM229.344 46.216C229.452 48.376 229.632 51.508 229.74 54.172C228.984 54.1 228.156 54.028 227.328 54.028C222.36 54.028 219.444 56.728 219.444 60.22C219.444 64.144 222.936 66.124 227.364 66.124C232.44 66.124 234.24 63.532 234.24 60.22V59.896C236.184 61.084 237.804 62.524 239.064 63.676L241.44 59.86C239.64 58.24 237.12 56.44 234.06 55.288C233.952 53.524 233.88 51.796 233.844 50.788C233.808 49.204 233.736 47.728 233.844 46.216H229.344Z" fill="white"/>
<path d="M265.488 50.356C267.72 50.068 269.88 49.96 272.364 49.96C274.524 49.96 276.72 50.176 278.484 50.392L278.592 46.108C276.504 45.892 274.344 45.784 272.328 45.784C270.024 45.784 267.468 45.964 265.488 46.144V50.356ZM268.296 38.908C266.352 39.376 264.336 39.772 262.32 40.096L262.608 38.728C262.788 37.936 263.112 36.352 263.364 35.38L257.928 34.948C258 35.776 257.964 37.216 257.784 38.548C257.712 39.124 257.604 39.808 257.46 40.6C256.38 40.672 255.336 40.708 254.292 40.708C252.816 40.708 251.628 40.636 249.792 40.42L249.9 44.884C251.16 44.956 252.492 45.028 254.22 45.028C254.94 45.028 255.732 44.992 256.56 44.956C256.308 45.964 256.056 46.972 255.804 47.908C254.472 52.912 251.772 60.4 249.648 63.964L254.652 65.62C256.596 61.444 259.008 54.136 260.304 49.132C260.7 47.692 261.06 46.108 261.384 44.56C263.76 44.272 266.172 43.876 268.296 43.408V38.908ZM263.292 54.712C263.004 56.116 262.68 57.844 262.68 59.464C262.68 63.064 265.74 65.152 271.752 65.152C274.596 65.152 277.008 64.9 279.024 64.648L279.204 60.076C276.648 60.544 274.164 60.796 271.788 60.796C267.972 60.796 267.072 59.644 267.072 58.096C267.072 57.304 267.288 56.116 267.576 55.108L263.292 54.712Z" fill="white"/>
<path d="M300.228 38.872L300.264 43.48C304.728 43.876 311.172 43.876 315.564 43.48V38.872C311.712 39.34 304.62 39.484 300.228 38.872ZM299.004 53.74C298.644 55.396 298.392 56.908 298.392 58.384C298.392 62.02 301.308 64.252 307.464 64.252C311.496 64.252 314.376 63.964 316.68 63.532L316.572 58.708C313.476 59.356 310.848 59.644 307.644 59.644C304.044 59.644 302.676 58.708 302.676 57.124C302.676 56.152 302.82 55.288 303.108 54.136L299.004 53.74ZM289.752 36.1C289.752 37.216 289.536 38.584 289.392 39.592C288.996 42.328 287.916 48.34 287.916 53.704C287.916 58.528 288.6 62.884 289.32 65.368L293.424 65.08C293.388 64.576 293.388 64 293.352 63.604C293.352 63.244 293.46 62.452 293.568 61.948C293.928 60.04 295.116 56.188 296.124 53.2L293.892 51.472C293.388 52.624 292.812 53.812 292.308 55.072C292.2 54.316 292.164 53.452 292.164 52.768C292.164 49.204 293.388 42.076 293.892 39.7C294.036 39.052 294.468 37.252 294.756 36.532L289.752 36.1Z" fill="white"/>
<path d="M327.228 35.884C327.228 37 327.048 38.368 326.904 39.376C326.472 42.112 325.428 48.844 325.428 54.244C325.428 59.068 326.112 63.136 326.832 65.62L330.864 65.332C330.828 64.828 330.828 64.216 330.828 63.856C330.792 63.46 330.9 62.704 331.008 62.2C331.404 60.256 332.556 56.62 333.564 53.704L331.368 51.94C330.828 53.128 330.252 54.316 329.784 55.576C329.676 54.856 329.64 53.992 329.64 53.272C329.64 49.708 330.792 41.86 331.332 39.484C331.476 38.836 331.908 37.036 332.196 36.316L327.228 35.884ZM345.228 58.024C345.228 60.112 344.472 61.264 342.276 61.264C340.404 61.264 338.964 60.616 338.964 59.176C338.964 57.844 340.332 57.016 342.348 57.016C343.32 57.016 344.292 57.16 345.228 57.412V58.024ZM356.496 59.464C354.84 57.916 352.608 56.08 349.62 54.856C349.476 52.444 349.296 49.6 349.224 46.144C351.168 46 353.04 45.784 354.768 45.532V41.104C353.076 41.464 351.204 41.716 349.26 41.932C349.26 40.348 349.332 39.016 349.368 38.224C349.404 37.468 349.476 36.604 349.584 35.92H344.472C344.58 36.64 344.688 37.72 344.688 38.26C344.724 39.016 344.724 40.456 344.76 42.22C343.932 42.256 343.068 42.256 342.24 42.256C340.116 42.256 338.064 42.148 336.012 41.932V46.18C338.136 46.324 340.152 46.396 342.24 46.396C343.068 46.396 343.932 46.396 344.796 46.36C344.832 48.88 344.94 51.472 345.048 53.668C344.328 53.56 343.536 53.524 342.708 53.524C337.848 53.524 334.788 56.008 334.788 59.644C334.788 63.388 337.884 65.476 342.78 65.476C347.604 65.476 349.548 63.028 349.764 59.644C351.168 60.616 352.608 61.804 354.084 63.208L356.496 59.464Z" fill="white"/>
<path d="M362.796 50.32C362.796 51.94 364.092 53.236 365.712 53.236C367.332 53.236 368.628 51.94 368.628 50.32C368.628 48.7 367.332 47.404 365.712 47.404C364.092 47.404 362.796 48.7 362.796 50.32ZM374.784 50.32C374.784 51.94 376.08 53.236 377.7 53.236C379.32 53.236 380.616 51.94 380.616 50.32C380.616 48.7 379.32 47.404 377.7 47.404C376.08 47.404 374.784 48.7 374.784 50.32ZM386.772 50.32C386.772 51.94 388.068 53.236 389.688 53.236C391.308 53.236 392.604 51.94 392.604 50.32C392.604 48.7 391.308 47.404 389.688 47.404C388.068 47.404 386.772 48.7 386.772 50.32Z" fill="white"/>
</svg>
